<?xml version="1.0" encoding="UTF-8"?>
<!DOCTYPE svg PUBLIC "-//W3C//DTD SVG 1.1//EN" "http://www.w3.org/Graphics/SVG/1.1/DTD/svg11.dtd">
<svg xmlns="http://www.w3.org/2000/svg" version="1.1" width="200px" height="200px" style="shape-rendering:geometricPrecision; text-rendering:geometricPrecision; image-rendering:optimizeQuality; fill-rule:evenodd; clip-rule:evenodd" xmlns:xlink="http://www.w3.org/1999/xlink">
<g><path style="opacity:0.004" fill="#0000ff" d="M 114.5,12.5 C 115.833,13.1667 115.833,13.1667 114.5,12.5 Z"/></g>
<g><path style="opacity:1" fill="#94abdd" d="M 164.5,48.5 C 164.5,48.8333 164.5,49.1667 164.5,49.5C 159.167,49.5 153.833,49.5 148.5,49.5C 148.5,44.5 148.5,39.5 148.5,34.5C 113.832,34.3333 79.1651,34.5 44.5,35C 43.3147,36.353 41.9814,37.5197 40.5,38.5C 39.5059,79.1239 39.1725,119.791 39.5,160.5C 44.1667,160.5 48.8333,160.5 53.5,160.5C 53.1683,125.663 53.5016,90.996 54.5,56.5C 54.5,96.5 54.5,136.5 54.5,176.5C 42.7817,177.448 37.4483,172.115 38.5,160.5C 34.7267,160.737 31.0601,160.237 27.5,159C 25.5125,157.681 24.3459,155.848 24,153.5C 23.1752,112.304 23.3419,71.1376 24.5,30C 24.2409,28.7387 23.5742,27.7387 22.5,27C 23.056,26.6174 23.3893,26.1174 23.5,25.5C 24.1174,25.6107 24.6174,25.944 25,26.5C 27.7041,22.8969 31.2041,20.3969 35.5,19C 71.1667,18.3333 106.833,18.3333 142.5,19C 147.725,22.3282 150.058,27.1615 149.5,33.5C 160.833,32.1667 165.833,37.1667 164.5,48.5 Z"/></g>
<g><path style="opacity:0.004" fill="#0000ff" d="M 23.5,25.5 C 22.8333,24.1667 22.8333,24.1667 23.5,25.5 Z"/></g>
<g><path style="opacity:0.004" fill="#0000ff" d="M 2.5,25.5 C 3.83333,26.1667 3.83333,26.1667 2.5,25.5 Z"/></g>
<g><path style="opacity:0.004" fill="#0000ff" d="M 0.5,26.5 C 1.83333,27.1667 1.83333,27.1667 0.5,26.5 Z"/></g>
<g><path style="opacity:1" fill="#bfccea" d="M 61.5,49.5 C 60.391,49.5569 59.391,49.8902 58.5,50.5C 55.4955,50.2501 53.6622,51.5834 53,54.5C 52.5,89.4984 52.3333,124.498 52.5,159.5C 48.8333,159.5 45.1667,159.5 41.5,159.5C 41.0482,119.806 41.5482,80.1393 43,40.5C 45.0129,37.298 47.8463,35.6313 51.5,35.5C 81.5687,36.6665 112.735,36.6665 145,35.5C 145.833,35.8333 146.667,36.1667 147.5,36.5C 145.833,37.5 144.5,38.8333 143.5,40.5C 147.17,42.0491 148.17,44.5491 146.5,48C 117.997,48.1677 89.6637,48.6677 61.5,49.5 Z"/></g>
<g><path style="opacity:0.004" fill="#0000ff" d="M 197.5,38.5 C 198.833,39.1667 198.833,39.1667 197.5,38.5 Z"/></g>
<g><path style="opacity:1" fill="#bacbf1" d="M 148.5,49.5 C 119.5,49.5 90.5,49.5 61.5,49.5C 89.6637,48.6677 117.997,48.1677 146.5,48C 148.17,44.5491 147.17,42.0491 143.5,40.5C 144.5,38.8333 145.833,37.5 147.5,36.5C 146.667,36.1667 145.833,35.8333 145,35.5C 112.735,36.6665 81.5687,36.6665 51.5,35.5C 47.8463,35.6313 45.0129,37.298 43,40.5C 41.5482,80.1393 41.0482,119.806 41.5,159.5C 45.1667,159.5 48.8333,159.5 52.5,159.5C 52.3333,124.498 52.5,89.4984 53,54.5C 53.6622,51.5834 55.4955,50.2501 58.5,50.5C 58.1667,51.1667 57.8333,51.8333 57.5,52.5C 56.0256,53.4363 55.0256,54.7697 54.5,56.5C 53.5016,90.996 53.1683,125.663 53.5,160.5C 48.8333,160.5 44.1667,160.5 39.5,160.5C 39.1725,119.791 39.5059,79.1239 40.5,38.5C 41.9814,37.5197 43.3147,36.353 44.5,35C 79.1651,34.5 113.832,34.3333 148.5,34.5C 148.5,39.5 148.5,44.5 148.5,49.5 Z"/></g>
<g><path style="opacity:1" fill="#677fb6" d="M 61.5,49.5 C 90.5,49.5 119.5,49.5 148.5,49.5C 153.833,49.5 159.167,49.5 164.5,49.5C 130.002,50.3325 95.3357,50.8325 60.5,51C 59.7562,52.0386 58.7562,52.5386 57.5,52.5C 57.8333,51.8333 58.1667,51.1667 58.5,50.5C 59.391,49.8902 60.391,49.5569 61.5,49.5 Z"/></g>
<g><path style="opacity:0.004" fill="#0000ff" d="M 21.5,50.5 C 22.8333,51.1667 22.8333,51.1667 21.5,50.5 Z"/></g>
<g><path style="opacity:1" fill="#3e5ea6" d="M 164.5,48.5 C 168.733,48.8637 171.899,50.8637 174,54.5C 174.667,96.1667 174.667,137.833 174,179.5C 172.772,183.704 169.939,185.87 165.5,186C 142.261,186.172 119.094,186.672 96,187.5C 85.9102,186.679 75.7435,186.179 65.5,186C 58.031,186.962 54.3643,183.796 54.5,176.5C 54.5,136.5 54.5,96.5 54.5,56.5C 55.0256,54.7697 56.0256,53.4363 57.5,52.5C 58.7562,52.5386 59.7562,52.0386 60.5,51C 95.3357,50.8325 130.002,50.3325 164.5,49.5C 164.5,49.1667 164.5,48.8333 164.5,48.5 Z"/></g>
<g><path style="opacity:0.004" fill="#0000ff" d="M 15.5,67.5 C 16.8333,68.1667 16.8333,68.1667 15.5,67.5 Z"/></g>
<g><path style="opacity:0.004" fill="#0000ff" d="M 177.5,74.5 C 178.833,75.1667 178.833,75.1667 177.5,74.5 Z"/></g>
<g><path style="opacity:1" fill="#f9fbfc" d="M 103.5,110.5 C 110.952,101.894 118.619,93.5608 126.5,85.5C 127.833,84.8333 128.833,83.8333 129.5,82.5C 136.255,81.8771 142.588,82.5437 148.5,84.5C 139.154,92.8457 130.488,101.846 122.5,111.5C 123.188,112.855 124.188,113.855 125.5,114.5C 133.698,127.545 142.532,140.212 152,152.5C 152.483,153.448 152.649,154.448 152.5,155.5C 145.8,155.83 139.134,155.497 132.5,154.5C 127.884,146.243 122.55,138.577 116.5,131.5C 115.468,128.1 113.468,125.434 110.5,123.5C 107.479,125.854 104.812,128.521 102.5,131.5C 101.508,138.982 101.175,146.648 101.5,154.5C 96.5,154.5 91.5,154.5 86.5,154.5C 86.5,130.5 86.5,106.5 86.5,82.5C 91.5,82.5 96.5,82.5 101.5,82.5C 101.168,92.1896 101.502,101.856 102.5,111.5C 103.107,111.376 103.44,111.043 103.5,110.5 Z"/></g>
<g><path style="opacity:1" fill="#acbdd8" d="M 103.5,110.5 C 103.44,111.043 103.107,111.376 102.5,111.5C 101.502,101.856 101.168,92.1896 101.5,82.5C 96.5,82.5 91.5,82.5 86.5,82.5C 86.5,106.5 86.5,130.5 86.5,154.5C 91.5,154.5 96.5,154.5 101.5,154.5C 101.175,146.648 101.508,138.982 102.5,131.5C 102.5,139.5 102.5,147.5 102.5,155.5C 96.8333,155.5 91.1667,155.5 85.5,155.5C 85.5,131.167 85.5,106.833 85.5,82.5C 90.9753,81.5111 96.642,81.1778 102.5,81.5C 102.173,91.3478 102.506,101.014 103.5,110.5 Z"/></g>
<g><path style="opacity:1" fill="#46629b" d="M 85.5,82.5 C 85.5,106.833 85.5,131.167 85.5,155.5C 83.7316,151.956 82.8982,147.956 83,143.5C 82.8333,135.333 82.6667,127.167 82.5,119C 82.9441,108.12 82.9441,97.2871 82.5,86.5C 82.6198,84.4115 83.6198,83.0782 85.5,82.5 Z"/></g>
<g><path style="opacity:1" fill="#4d659c" d="M 125.5,114.5 C 124.188,113.855 123.188,112.855 122.5,111.5C 130.488,101.846 139.154,92.8457 148.5,84.5C 149.478,84.189 150.145,83.5223 150.5,82.5C 143.344,81.1812 136.344,81.1812 129.5,82.5C 128.833,83.8333 127.833,84.8333 126.5,85.5C 126.096,84.2436 125.429,83.0769 124.5,82C 124.613,80.7202 125.28,79.8869 126.5,79.5C 134.75,79.5778 143.084,80.0778 151.5,81C 151.957,81.414 152.291,81.914 152.5,82.5C 151.167,84.5 149.5,86.1667 147.5,87.5C 146.754,88.7362 146.421,90.0695 146.5,91.5C 148.199,91.3398 149.866,91.5065 151.5,92C 149.354,93.7333 147.02,93.9 144.5,92.5C 142.936,93.7692 141.269,94.9359 139.5,96C 135.694,99.8063 131.86,103.64 128,107.5C 126.589,109.65 125.755,111.984 125.5,114.5 Z"/></g>
<g><path style="opacity:1" fill="#99adcf" d="M 129.5,82.5 C 136.344,81.1812 143.344,81.1812 150.5,82.5C 150.145,83.5223 149.478,84.189 148.5,84.5C 142.588,82.5437 136.255,81.8771 129.5,82.5 Z"/></g>
<g><path style="opacity:0.004" fill="#0000ff" d="M 176.5,119.5 C 177.833,120.167 177.833,120.167 176.5,119.5 Z"/></g>
<g><path style="opacity:0.004" fill="#0000ff" d="M 199.5,128.5 C 199.5,128.833 199.5,129.167 199.5,129.5C 198.83,129.019 198.83,128.685 199.5,128.5 Z"/></g>
<g><path style="opacity:0.004" fill="#0000ff" d="M 178.5,132.5 C 179.833,133.167 179.833,133.167 178.5,132.5 Z"/></g>
<g><path style="opacity:0.004" fill="#0000ff" d="M 188.5,134.5 C 189.833,135.167 189.833,135.167 188.5,134.5 Z"/></g>
<g><path style="opacity:1" fill="#47619a" d="M 116.5,131.5 C 114.297,130.116 112.297,128.449 110.5,126.5C 107.867,127.301 106.033,128.967 105,131.5C 103.391,138.879 103.391,146.213 105,153.5C 105.317,151.699 105.984,151.366 107,152.5C 107.667,154.833 107.667,157.167 107,159.5C 106,158.5 105,157.5 104,156.5C 102.915,157.293 101.748,157.96 100.5,158.5C 95.4135,157.279 90.4135,156.279 85.5,155.5C 91.1667,155.5 96.8333,155.5 102.5,155.5C 102.5,147.5 102.5,139.5 102.5,131.5C 104.812,128.521 107.479,125.854 110.5,123.5C 113.468,125.434 115.468,128.1 116.5,131.5 Z"/></g>
<g><path style="opacity:0.004" fill="#0000ff" d="M 194.5,159.5 C 195.833,160.167 195.833,160.167 194.5,159.5 Z"/></g>
<g><path style="opacity:0.004" fill="#0000ff" d="M 175.5,162.5 C 176.833,163.167 176.833,163.167 175.5,162.5 Z"/></g>
<g><path style="opacity:0.004" fill="#0000ff" d="M 179.5,175.5 C 180.833,176.167 180.833,176.167 179.5,175.5 Z"/></g>
<g><path style="opacity:0.004" fill="#0000ff" d="M 184.5,179.5 C 185.833,180.167 185.833,180.167 184.5,179.5 Z"/></g>
<g><path style="opacity:0.004" fill="#0000ff" d="M 187.5,180.5 C 188.833,181.167 188.833,181.167 187.5,180.5 Z"/></g>
<g><path style="opacity:0.004" fill="#0000ff" d="M 178.5,182.5 C 179.833,183.167 179.833,183.167 178.5,182.5 Z"/></g>
<g><path style="opacity:0.004" fill="#0000ff" d="M 140.5,188.5 C 141.833,189.167 141.833,189.167 140.5,188.5 Z"/></g>
<g><path style="opacity:0.004" fill="#0000ff" d="M 37.5,192.5 C 38.8333,193.167 38.8333,193.167 37.5,192.5 Z"/></g>
<g><path style="opacity:0.004" fill="#0000ff" d="M 155.5,192.5 C 156.833,193.167 156.833,193.167 155.5,192.5 Z"/></g>
<g><path style="opacity:0.004" fill="#0000ff" d="M 165.5,197.5 C 166.833,198.167 166.833,198.167 165.5,197.5 Z"/></g>
</svg>
