<?xml version="1.0" encoding="UTF-8"?>
<!DOCTYPE svg PUBLIC "-//W3C//DTD SVG 1.1//EN" "http://www.w3.org/Graphics/SVG/1.1/DTD/svg11.dtd">
<svg xmlns="http://www.w3.org/2000/svg" version="1.1" width="400px" height="400px" style="shape-rendering:geometricPrecision; text-rendering:geometricPrecision; image-rendering:optimizeQuality; fill-rule:evenodd; clip-rule:evenodd" xmlns:xlink="http://www.w3.org/1999/xlink">
<g><path style="opacity:0.004" fill="#fefffe" d="M 165.5,-0.5 C 165.833,-0.5 166.167,-0.5 166.5,-0.5C 166.315,0.170143 165.981,0.170143 165.5,-0.5 Z"/></g>
<g><path style="opacity:0.004" fill="#fefffe" d="M 71.5,2.5 C 72.8333,3.16667 72.8333,3.16667 71.5,2.5 Z"/></g>
<g><path style="opacity:0.004" fill="#fefffe" d="M 207.5,11.5 C 208.833,12.1667 208.833,12.1667 207.5,11.5 Z"/></g>
<g><path style="opacity:0.004" fill="#fefffe" d="M 287.5,11.5 C 288.833,12.1667 288.833,12.1667 287.5,11.5 Z"/></g>
<g><path style="opacity:0.004" fill="#fefffe" d="M 150.5,12.5 C 151.833,13.1667 151.833,13.1667 150.5,12.5 Z"/></g>
<g><path style="opacity:0.004" fill="#fefffe" d="M 258.5,17.5 C 259.833,18.1667 259.833,18.1667 258.5,17.5 Z"/></g>
<g><path style="opacity:1" fill="#e94f42" d="M 225.5,16.5 C 224.191,19.4507 221.857,20.7841 218.5,20.5C 220.336,18.412 222.669,17.0787 225.5,16.5 Z"/></g>
<g><path style="opacity:1" fill="#e85647" d="M 218.5,20.5 C 217.191,23.4507 214.857,24.7841 211.5,24.5C 213.336,22.412 215.669,21.0787 218.5,20.5 Z"/></g>
<g><path style="opacity:1" fill="#ea5c4e" d="M 211.5,24.5 C 210.191,27.4507 207.857,28.7841 204.5,28.5C 206.336,26.412 208.669,25.0787 211.5,24.5 Z"/></g>
<g><path style="opacity:1" fill="#fd0109" d="M 231.5,70.5 C 231.5,71.5 231.5,72.5 231.5,73.5C 226.701,73.8993 222.701,75.8993 219.5,79.5C 217.801,79.3398 216.134,79.5065 214.5,80C 213.077,82.5313 211.077,84.3647 208.5,85.5C 207.833,85.5 207.5,85.8333 207.5,86.5C 204.166,88.6767 200.5,90.1767 196.5,91C 191.459,94.2688 186.459,97.4355 181.5,100.5C 179.267,102.348 176.934,104.015 174.5,105.5C 171.134,107.691 167.467,109.191 163.5,110C 158.678,113.637 153.678,116.804 148.5,119.5C 145.996,120.584 143.663,121.917 141.5,123.5C 137.528,124.63 134.195,126.796 131.5,130C 126.507,131.522 122.174,134.022 118.5,137.5C 114.286,138.941 110.286,140.941 106.5,143.5C 105.833,164.663 105.167,185.663 104.5,206.5C 100.188,208.984 95.5217,210.317 90.5,210.5C 90.5,211.833 90.5,213.167 90.5,214.5C 88.4086,214.682 86.4086,214.348 84.5,213.5C 83.7084,214.7 83.7084,216.033 84.5,217.5C 81.6385,219.046 78.6385,220.38 75.5,221.5C 75.8627,222.183 76.1961,222.85 76.5,223.5C 76.5,224.167 76.1667,224.5 75.5,224.5C 73.8333,224.5 72.1667,224.5 70.5,224.5C 70.5,225.5 70.5,226.5 70.5,227.5C 68.7837,229.025 66.7837,230.025 64.5,230.5C 59.2097,232.456 53.8764,234.456 48.5,236.5C 48.7373,237.791 48.404,238.791 47.5,239.5C 46.1667,239.5 44.8333,239.5 43.5,239.5C 43.3333,201.165 43.5,162.832 44,124.5C 46.7232,121.607 49.5565,118.94 52.5,116.5C 53.8734,116.657 55.2068,116.49 56.5,116C 58.596,114.234 60.9293,112.901 63.5,112C 66.0432,110.618 68.0432,108.785 69.5,106.5C 72.8573,106.784 75.1906,105.451 76.5,102.5C 77.1667,102.5 77.8333,102.5 78.5,102.5C 79.8734,102.657 81.2068,102.49 82.5,102C 85.7026,99.9383 88.3692,97.4383 90.5,94.5C 92.0269,94.573 93.0269,93.9063 93.5,92.5C 96.8573,92.7841 99.1906,91.4507 100.5,88.5C 102.848,88.4077 104.514,87.4077 105.5,85.5C 106.514,84.3263 107.847,83.6596 109.5,83.5C 113.002,83.9236 115.335,82.5902 116.5,79.5C 118.848,79.4077 120.514,78.4077 121.5,76.5C 122.167,76.5 122.833,76.5 123.5,76.5C 128.412,76.3214 131.746,73.9881 133.5,69.5C 135.027,69.573 136.027,68.9063 136.5,67.5C 137.514,66.3263 138.847,65.6596 140.5,65.5C 142.027,65.573 143.027,64.9063 143.5,63.5C 144.514,62.3263 145.847,61.6596 147.5,61.5C 149.027,61.573 150.027,60.9063 150.5,59.5C 155.596,59.7913 159.263,57.7913 161.5,53.5C 164.857,53.7841 167.191,52.4507 168.5,49.5C 171.577,49.273 174.41,48.273 177,46.5C 178.749,45.5902 179.916,44.2569 180.5,42.5C 182.848,42.4077 184.514,41.4077 185.5,39.5C 193.234,38.1366 199.568,34.47 204.5,28.5C 207.857,28.7841 210.191,27.4507 211.5,24.5C 214.857,24.7841 217.191,23.4507 218.5,20.5C 221.857,20.7841 224.191,19.4507 225.5,16.5C 227.262,16.6427 228.929,16.3094 230.5,15.5C 231.5,33.8212 231.833,52.1546 231.5,70.5 Z"/></g>
<g><path style="opacity:1" fill="#c02525" d="M 232.5,70.5 C 232.167,70.5 231.833,70.5 231.5,70.5C 231.833,52.1546 231.5,33.8212 230.5,15.5C 228.929,16.3094 227.262,16.6427 225.5,16.5C 227.089,14.6944 229.089,13.3611 231.5,12.5C 232.5,31.8218 232.833,51.1552 232.5,70.5 Z"/></g>
<g><path style="opacity:0.855" fill="#ec8b8b" d="M 195.5,33.5 C 195.027,34.9063 194.027,35.573 192.5,35.5C 192.973,34.0937 193.973,33.427 195.5,33.5 Z"/></g>
<g><path style="opacity:1" fill="#e7433a" d="M 204.5,28.5 C 199.568,34.47 193.234,38.1366 185.5,39.5C 187.336,37.412 189.669,36.0787 192.5,35.5C 194.027,35.573 195.027,34.9063 195.5,33.5C 198.008,31.0764 201.008,29.4097 204.5,28.5 Z"/></g>
<g><path style="opacity:1" fill="#e44d4a" d="M 292.5,36.5 C 291.191,39.4507 288.857,40.7841 285.5,40.5C 287.336,38.412 289.669,37.0787 292.5,36.5 Z"/></g>
<g><path style="opacity:0.847" fill="#ec7469" d="M 185.5,39.5 C 184.514,41.4077 182.848,42.4077 180.5,42.5C 181.659,40.7497 183.326,39.7497 185.5,39.5 Z"/></g>
<g><path style="opacity:1" fill="#e5564b" d="M 285.5,40.5 C 284.191,43.4507 281.857,44.7841 278.5,44.5C 280.336,42.412 282.669,41.0787 285.5,40.5 Z"/></g>
<g><path style="opacity:0.004" fill="#fefffe" d="M 315.5,45.5 C 316.833,46.1667 316.833,46.1667 315.5,45.5 Z"/></g>
<g><path style="opacity:1" fill="#e74f45" d="M 180.5,42.5 C 179.916,44.2569 178.749,45.5902 177,46.5C 174.41,48.273 171.577,49.273 168.5,49.5C 171.976,46.3768 175.976,44.0435 180.5,42.5 Z"/></g>
<g><path style="opacity:1" fill="#df5852" d="M 278.5,44.5 C 277.674,46.2644 276.341,47.5977 274.5,48.5C 273.5,48.5 272.5,48.5 271.5,48.5C 273.336,46.412 275.669,45.0787 278.5,44.5 Z"/></g>
<g><path style="opacity:1" fill="#e94843" d="M 168.5,49.5 C 167.191,52.4507 164.857,53.7841 161.5,53.5C 163.336,51.412 165.669,50.0787 168.5,49.5 Z"/></g>
<g><path style="opacity:0.851" fill="#e68d94" d="M 262.5,53.5 C 262.027,54.9063 261.027,55.573 259.5,55.5C 259.973,54.0937 260.973,53.427 262.5,53.5 Z"/></g>
<g><path style="opacity:1" fill="#f0051c" d="M 271.5,48.5 C 272.5,48.5 273.5,48.5 274.5,48.5C 273.402,49.397 273.402,50.2303 274.5,51C 272.091,52.2007 270.091,53.8674 268.5,56C 270.952,56.2895 273.285,56.9562 275.5,58C 278.54,60.5186 281.873,62.5186 285.5,64C 287.242,67.8719 290.242,69.7053 294.5,69.5C 294.5,73.1667 294.5,76.8333 294.5,80.5C 293.71,81.6085 293.21,82.9419 293,84.5C 292.51,83.2068 292.343,81.8734 292.5,80.5C 291.5,80.5 290.5,80.5 289.5,80.5C 289.078,85.7562 288.078,86.2562 286.5,82C 282.136,80.2666 277.802,78.4332 273.5,76.5C 269.713,71.8826 266.547,66.8826 264,61.5C 262.607,58.8749 261.441,58.8749 260.5,61.5C 256.674,60.5204 256.674,59.6871 260.5,59C 262.213,57.6218 263.547,55.9552 264.5,54C 266.5,53.1667 268.5,52.3333 270.5,51.5C 271.127,50.5832 271.461,49.5832 271.5,48.5 Z"/></g>
<g><path style="opacity:1" fill="#f60313" d="M 292.5,36.5 C 294.477,47.1158 295.144,58.1158 294.5,69.5C 290.242,69.7053 287.242,67.8719 285.5,64C 281.873,62.5186 278.54,60.5186 275.5,58C 273.285,56.9562 270.952,56.2895 268.5,56C 270.091,53.8674 272.091,52.2007 274.5,51C 273.402,50.2303 273.402,49.397 274.5,48.5C 276.341,47.5977 277.674,46.2644 278.5,44.5C 281.857,44.7841 284.191,43.4507 285.5,40.5C 288.857,40.7841 291.191,39.4507 292.5,36.5 Z"/></g>
<g><path style="opacity:0.239" fill="#febcc5" d="M 293.5,35.5 C 294.209,34.596 295.209,34.2627 296.5,34.5C 296.5,59.5 296.5,84.5 296.5,109.5C 298.735,109.205 300.735,109.539 302.5,110.5C 300.167,110.5 297.833,110.5 295.5,110.5C 295.5,110.167 295.5,109.833 295.5,109.5C 296.157,84.4774 295.49,59.8107 293.5,35.5 Z"/></g>
<g><path style="opacity:1" fill="#e94e3e" d="M 161.5,53.5 C 159.263,57.7913 155.596,59.7913 150.5,59.5C 153.678,56.7417 157.345,54.7417 161.5,53.5 Z"/></g>
<g><path style="opacity:0.78" fill="#f39493" d="M 150.5,59.5 C 150.027,60.9063 149.027,61.573 147.5,61.5C 147.973,60.0937 148.973,59.427 150.5,59.5 Z"/></g>
<g><path style="opacity:1" fill="#e70f29" d="M 271.5,48.5 C 271.461,49.5832 271.127,50.5832 270.5,51.5C 268.5,52.3333 266.5,53.1667 264.5,54C 263.547,55.9552 262.213,57.6218 260.5,59C 256.674,59.6871 256.674,60.5204 260.5,61.5C 259.551,70.6431 262.551,78.3098 269.5,84.5C 274.5,86.1667 279.5,87.8333 284.5,89.5C 286.885,87.4612 289.052,87.4612 291,89.5C 291.333,88.8333 291.667,88.1667 292,87.5C 292.374,89.4913 293.207,91.158 294.5,92.5C 294.5,96.8333 294.5,101.167 294.5,105.5C 291.421,105.26 288.421,105.593 285.5,106.5C 284.5,106.167 283.833,105.5 283.5,104.5C 285.743,103.526 288.076,103.192 290.5,103.5C 290.565,100.529 289.731,97.8618 288,95.5C 282.599,99.2745 277.432,99.4412 272.5,96C 273.167,95.6667 273.833,95.3333 274.5,95C 271.901,94.231 269.401,94.3977 267,95.5C 264.333,90.8333 260.667,87.1667 256,84.5C 255.751,81.8232 254.751,79.4899 253,77.5C 250.108,79.6729 246.941,80.0063 243.5,78.5C 246.251,77.984 248.584,76.8173 250.5,75C 248.334,73.9976 246.667,72.4976 245.5,70.5C 247.376,68.952 248.376,66.952 248.5,64.5C 249.5,64.5 250.5,64.5 251.5,64.5C 251.629,62.7839 251.962,61.1172 252.5,59.5C 254.336,57.412 256.669,56.0787 259.5,55.5C 261.027,55.573 262.027,54.9063 262.5,53.5C 265.24,51.4405 268.24,49.7738 271.5,48.5 Z"/></g>
<g><path style="opacity:0.667" fill="#f6a5a0" d="M 143.5,63.5 C 143.027,64.9063 142.027,65.573 140.5,65.5C 140.973,64.0937 141.973,63.427 143.5,63.5 Z"/></g>
<g><path style="opacity:0.592" fill="#f7a5a8" d="M 136.5,67.5 C 136.027,68.9063 135.027,69.573 133.5,69.5C 133.973,68.0937 134.973,67.427 136.5,67.5 Z"/></g>
<g><path style="opacity:0.004" fill="#fefffe" d="M 1.5,71.5 C 2.83333,72.1667 2.83333,72.1667 1.5,71.5 Z"/></g>
<g><path style="opacity:0.004" fill="#fefffe" d="M 105.5,71.5 C 106.833,72.1667 106.833,72.1667 105.5,71.5 Z"/></g>
<g><path style="opacity:1" fill="#d63a4c" d="M 245.5,63.5 C 245.179,65.0481 244.179,65.7148 242.5,65.5C 242.5,66.5 242.5,67.5 242.5,68.5C 239.486,68.852 236.986,70.1854 235,72.5C 233.699,72.3613 232.866,71.6946 232.5,70.5C 236.701,67.8998 241.034,65.5665 245.5,63.5 Z"/></g>
<g><path style="opacity:0.004" fill="#feff00" d="M 300.5,73.5 C 301.833,74.1667 301.833,74.1667 300.5,73.5 Z"/></g>
<g><path style="opacity:0.004" fill="#fefffe" d="M 377.5,73.5 C 378.833,74.1667 378.833,74.1667 377.5,73.5 Z"/></g>
<g><path style="opacity:0.773" fill="#f79293" d="M 124.5,74.5 C 124.167,75.1667 123.833,75.8333 123.5,76.5C 122.833,76.5 122.167,76.5 121.5,76.5C 121.973,75.0937 122.973,74.427 124.5,74.5 Z"/></g>
<g><path style="opacity:1" fill="#ed3228" d="M 133.5,69.5 C 131.746,73.9881 128.412,76.3214 123.5,76.5C 123.833,75.8333 124.167,75.1667 124.5,74.5C 127.24,72.4405 130.24,70.7738 133.5,69.5 Z"/></g>
<g><path style="opacity:1" fill="#de0c35" d="M 279.5,110.5 C 276.98,111.918 274.313,112.918 271.5,113.5C 266.189,113.053 261.522,114.387 257.5,117.5C 255.824,116.817 255.157,115.483 255.5,113.5C 253.418,113.528 251.584,112.861 250,111.5C 249.667,111.833 249.333,112.167 249,112.5C 247.548,107.544 244.381,104.544 239.5,103.5C 236.009,96.2059 233.176,88.5392 231,80.5C 228.699,79.1328 226.199,78.4661 223.5,78.5C 225.017,76.8158 226.85,75.4825 229,74.5C 230.892,74.7769 232.225,75.7769 233,77.5C 235.541,75.1219 238.375,74.4552 241.5,75.5C 242.579,79.4249 241.579,80.0916 238.5,77.5C 238.167,77.8333 237.833,78.1667 237.5,78.5C 243.641,82.627 247.308,88.2936 248.5,95.5C 249.248,97.3325 250.248,98.9991 251.5,100.5C 259.298,103.376 266.964,106.543 274.5,110C 276.134,110.494 277.801,110.66 279.5,110.5 Z"/></g>
<g><path style="opacity:0.004" fill="#fefffe" d="M 350.5,75.5 C 351.833,76.1667 351.833,76.1667 350.5,75.5 Z"/></g>
<g><path style="opacity:1" fill="#e10d2f" d="M 292.5,36.5 C 292.5,35.8333 292.833,35.5 293.5,35.5C 295.49,59.8107 296.157,84.4774 295.5,109.5C 292.615,109.194 289.948,109.527 287.5,110.5C 284.833,110.5 282.167,110.5 279.5,110.5C 277.801,110.66 276.134,110.494 274.5,110C 266.964,106.543 259.298,103.376 251.5,100.5C 250.248,98.9991 249.248,97.3325 248.5,95.5C 247.308,88.2936 243.641,82.627 237.5,78.5C 237.833,78.1667 238.167,77.8333 238.5,77.5C 241.579,80.0916 242.579,79.4249 241.5,75.5C 238.375,74.4552 235.541,75.1219 233,77.5C 232.225,75.7769 230.892,74.7769 229,74.5C 226.85,75.4825 225.017,76.8158 223.5,78.5C 222.167,78.8333 220.833,79.1667 219.5,79.5C 222.701,75.8993 226.701,73.8993 231.5,73.5C 231.5,72.5 231.5,71.5 231.5,70.5C 231.833,70.5 232.167,70.5 232.5,70.5C 232.866,71.6946 233.699,72.3613 235,72.5C 236.986,70.1854 239.486,68.852 242.5,68.5C 242.5,67.5 242.5,66.5 242.5,65.5C 244.179,65.7148 245.179,65.0481 245.5,63.5C 247.336,61.412 249.669,60.0787 252.5,59.5C 251.962,61.1172 251.629,62.7839 251.5,64.5C 250.5,64.5 249.5,64.5 248.5,64.5C 248.376,66.952 247.376,68.952 245.5,70.5C 246.667,72.4976 248.334,73.9976 250.5,75C 248.584,76.8173 246.251,77.984 243.5,78.5C 246.941,80.0063 250.108,79.6729 253,77.5C 254.751,79.4899 255.751,81.8232 256,84.5C 260.667,87.1667 264.333,90.8333 267,95.5C 269.401,94.3977 271.901,94.231 274.5,95C 273.833,95.3333 273.167,95.6667 272.5,96C 277.432,99.4412 282.599,99.2745 288,95.5C 289.731,97.8618 290.565,100.529 290.5,103.5C 288.076,103.192 285.743,103.526 283.5,104.5C 283.833,105.5 284.5,106.167 285.5,106.5C 288.421,105.593 291.421,105.26 294.5,105.5C 294.5,101.167 294.5,96.8333 294.5,92.5C 294.5,88.5 294.5,84.5 294.5,80.5C 294.5,76.8333 294.5,73.1667 294.5,69.5C 295.144,58.1158 294.477,47.1158 292.5,36.5 Z"/></g>
<g><path style="opacity:1" fill="#ec0722" d="M 294.5,80.5 C 294.5,84.5 294.5,88.5 294.5,92.5C 293.207,91.158 292.374,89.4913 292,87.5C 291.667,88.1667 291.333,88.8333 291,89.5C 289.052,87.4612 286.885,87.4612 284.5,89.5C 279.5,87.8333 274.5,86.1667 269.5,84.5C 262.551,78.3098 259.551,70.6431 260.5,61.5C 261.441,58.8749 262.607,58.8749 264,61.5C 266.547,66.8826 269.713,71.8826 273.5,76.5C 277.802,78.4332 282.136,80.2666 286.5,82C 288.078,86.2562 289.078,85.7562 289.5,80.5C 290.5,80.5 291.5,80.5 292.5,80.5C 292.343,81.8734 292.51,83.2068 293,84.5C 293.21,82.9419 293.71,81.6085 294.5,80.5 Z"/></g>
<g><path style="opacity:0.855" fill="#e96f67" d="M 121.5,76.5 C 120.514,78.4077 118.848,79.4077 116.5,79.5C 117.659,77.7497 119.326,76.7497 121.5,76.5 Z"/></g>
<g><path style="opacity:1" fill="#db0d3b" d="M 223.5,78.5 C 226.199,78.4661 228.699,79.1328 231,80.5C 233.176,88.5392 236.009,96.2059 239.5,103.5C 244.381,104.544 247.548,107.544 249,112.5C 249.333,112.167 249.667,111.833 250,111.5C 251.584,112.861 253.418,113.528 255.5,113.5C 255.157,115.483 255.824,116.817 257.5,117.5C 256.666,118.748 255.333,119.415 253.5,119.5C 250.911,119.558 248.577,118.892 246.5,117.5C 244.865,118.046 243.199,118.38 241.5,118.5C 241.719,119.675 241.386,120.675 240.5,121.5C 239.253,119.994 239.253,118.494 240.5,117C 238.475,115.806 238.141,114.306 239.5,112.5C 237.988,111.138 236.488,110.804 235,111.5C 234.814,107.551 233.147,104.551 230,102.5C 229.517,101.552 229.351,100.552 229.5,99.5C 228.5,99.5 227.5,99.5 226.5,99.5C 226.674,104.021 226.007,104.355 224.5,100.5C 225.427,97.8211 225.927,94.8211 226,91.5C 225,89.5 224,87.5 223,85.5C 218.583,88.7008 217.416,87.7008 219.5,82.5C 215.697,82.9622 212.031,83.9622 208.5,85.5C 211.077,84.3647 213.077,82.5313 214.5,80C 216.134,79.5065 217.801,79.3398 219.5,79.5C 220.833,79.1667 222.167,78.8333 223.5,78.5 Z"/></g>
<g><path style="opacity:0.004" fill="#fefffe" d="M 2.5,81.5 C 3.83333,82.1667 3.83333,82.1667 2.5,81.5 Z"/></g>
<g><path style="opacity:1" fill="#e64a45" d="M 116.5,79.5 C 115.335,82.5902 113.002,83.9236 109.5,83.5C 111.336,81.412 113.669,80.0787 116.5,79.5 Z"/></g>
<g><path style="opacity:1" fill="#d60f41" d="M 257.5,117.5 C 261.522,114.387 266.189,113.053 271.5,113.5C 271.5,113.833 271.5,114.167 271.5,114.5C 266.984,116.031 262.984,118.364 259.5,121.5C 257.216,121.975 255.216,122.975 253.5,124.5C 248.997,125.418 244.997,127.418 241.5,130.5C 238.068,130.757 234.734,131.424 231.5,132.5C 231.5,131.5 231.5,130.5 231.5,129.5C 233.103,129.688 234.437,129.188 235.5,128C 232.667,123.167 228.833,119.333 224,116.5C 223.506,114.866 223.34,113.199 223.5,111.5C 222.167,111.5 220.833,111.5 219.5,111.5C 218.892,105.342 216.892,99.675 213.5,94.5C 215.396,93.5344 217.396,93.2011 219.5,93.5C 219.5,92.1667 219.5,90.8333 219.5,89.5C 215.302,89.0536 211.302,88.0536 207.5,86.5C 207.5,85.8333 207.833,85.5 208.5,85.5C 212.031,83.9622 215.697,82.9622 219.5,82.5C 217.416,87.7008 218.583,88.7008 223,85.5C 224,87.5 225,89.5 226,91.5C 225.927,94.8211 225.427,97.8211 224.5,100.5C 226.007,104.355 226.674,104.021 226.5,99.5C 227.5,99.5 228.5,99.5 229.5,99.5C 229.351,100.552 229.517,101.552 230,102.5C 233.147,104.551 234.814,107.551 235,111.5C 236.488,110.804 237.988,111.138 239.5,112.5C 238.141,114.306 238.475,115.806 240.5,117C 239.253,118.494 239.253,119.994 240.5,121.5C 241.386,120.675 241.719,119.675 241.5,118.5C 243.199,118.38 244.865,118.046 246.5,117.5C 248.577,118.892 250.911,119.558 253.5,119.5C 255.333,119.415 256.666,118.748 257.5,117.5 Z"/></g>
<g><path style="opacity:1" fill="#d21047" d="M 207.5,86.5 C 211.302,88.0536 215.302,89.0536 219.5,89.5C 219.5,90.8333 219.5,92.1667 219.5,93.5C 217.396,93.2011 215.396,93.5344 213.5,94.5C 216.892,99.675 218.892,105.342 219.5,111.5C 220.833,111.5 222.167,111.5 223.5,111.5C 223.34,113.199 223.506,114.866 224,116.5C 228.833,119.333 232.667,123.167 235.5,128C 234.437,129.188 233.103,129.688 231.5,129.5C 231.5,130.5 231.5,131.5 231.5,132.5C 234.734,131.424 238.068,130.757 241.5,130.5C 241.5,130.833 241.5,131.167 241.5,131.5C 240.508,131.328 239.842,131.662 239.5,132.5C 237.315,132.704 235.315,133.37 233.5,134.5C 232.5,134.5 231.5,134.5 230.5,134.5C 230.615,129.672 228.448,128.339 224,130.5C 222.383,129.464 222.216,128.297 223.5,127C 220.349,123.349 217.016,119.849 213.5,116.5C 212.253,114.958 212.253,113.458 213.5,112C 210.833,107 208.167,102 205.5,97C 207.074,96.647 208.741,95.9804 210.5,95C 207.05,93.8924 203.55,92.7257 200,91.5C 197.043,92.6481 194.543,94.3147 192.5,96.5C 189.036,98.1482 185.369,99.4815 181.5,100.5C 186.459,97.4355 191.459,94.2688 196.5,91C 200.5,90.1767 204.166,88.6767 207.5,86.5 Z"/></g>
<g><path style="opacity:0.678" fill="#f38f91" d="M 105.5,85.5 C 104.514,87.4077 102.848,88.4077 100.5,88.5C 101.659,86.7497 103.326,85.7497 105.5,85.5 Z"/></g>
<g><path style="opacity:0.004" fill="#fefffe" d="M 27.5,89.5 C 28.8333,90.1667 28.8333,90.1667 27.5,89.5 Z"/></g>
<g><path style="opacity:1" fill="#eb6254" d="M 100.5,88.5 C 99.1906,91.4507 96.8573,92.7841 93.5,92.5C 95.3356,90.412 97.6689,89.0787 100.5,88.5 Z"/></g>
<g><path style="opacity:0.914" fill="#f18a88" d="M 93.5,92.5 C 93.0269,93.9063 92.0269,94.573 90.5,94.5C 90.9731,93.0937 91.9731,92.427 93.5,92.5 Z"/></g>
<g><path style="opacity:1" fill="#c91454" d="M 192.5,96.5 C 194.167,96.5 195.833,96.5 197.5,96.5C 199.084,107.417 202.75,117.584 208.5,127C 211.043,127.14 213.377,127.806 215.5,129C 213.543,131.121 213.043,133.621 214,136.5C 216.851,137.244 219.517,137.244 222,136.5C 222.995,137.066 223.828,137.733 224.5,138.5C 222.488,139.228 220.488,140.062 218.5,141C 219.171,141.986 219.171,143.153 218.5,144.5C 218.167,144.5 217.833,144.5 217.5,144.5C 214.076,144.685 210.909,145.685 208,147.5C 207.055,147.095 206.388,146.428 206,145.5C 205.692,146.308 205.192,146.975 204.5,147.5C 203.167,146.5 201.833,145.5 200.5,144.5C 202.834,142.013 205.334,142.013 208,144.5C 208.236,142.7 207.736,141.034 206.5,139.5C 203.744,136.073 200.41,133.407 196.5,131.5C 195.558,128.007 194.225,124.674 192.5,121.5C 191.508,117.217 191.174,112.884 191.5,108.5C 188.833,107.5 186.167,106.5 183.5,105.5C 183.5,104.5 183.5,103.5 183.5,102.5C 182.448,102.351 181.448,102.517 180.5,103C 182.007,103.837 182.507,105.004 182,106.5C 180.253,107.33 178.587,108.33 177,109.5C 176.5,109.167 176,108.833 175.5,108.5C 178.229,106.633 177.896,105.633 174.5,105.5C 176.934,104.015 179.267,102.348 181.5,100.5C 185.369,99.4815 189.036,98.1482 192.5,96.5 Z"/></g>
<g><path style="opacity:0.004" fill="#fefffe" d="M 391.5,96.5 C 392.833,97.1667 392.833,97.1667 391.5,96.5 Z"/></g>
<g><path style="opacity:0.588" fill="#fdafad" d="M 84.5,97.5 C 84.0269,98.9063 83.0269,99.573 81.5,99.5C 81.9731,98.0937 82.9731,97.427 84.5,97.5 Z"/></g>
<g><path style="opacity:0.737" fill="#fd9c8d" d="M 79.5,100.5 C 79.1667,101.167 78.8333,101.833 78.5,102.5C 77.8333,102.5 77.1667,102.5 76.5,102.5C 76.9731,101.094 77.9731,100.427 79.5,100.5 Z"/></g>
<g><path style="opacity:1" fill="#e83128" d="M 90.5,94.5 C 88.3692,97.4383 85.7026,99.9383 82.5,102C 81.2068,102.49 79.8734,102.657 78.5,102.5C 78.8333,101.833 79.1667,101.167 79.5,100.5C 79.8417,99.6618 80.5084,99.3284 81.5,99.5C 83.0269,99.573 84.0269,98.9063 84.5,97.5C 86.1815,95.9925 88.1815,94.9925 90.5,94.5 Z"/></g>
<g><path style="opacity:0.004" fill="#fefffe" d="M 357.5,102.5 C 358.833,103.167 358.833,103.167 357.5,102.5 Z"/></g>
<g><path style="opacity:1" fill="#e65347" d="M 76.5,102.5 C 75.1906,105.451 72.8573,106.784 69.5,106.5C 71.3356,104.412 73.6689,103.079 76.5,102.5 Z"/></g>
<g><path style="opacity:1" fill="#c1175d" d="M 217.5,144.5 C 216.167,145.5 214.833,146.5 213.5,147.5C 210.843,147.747 208.51,148.747 206.5,150.5C 205.232,149.572 203.899,149.405 202.5,150C 201.005,151.161 199.505,152.327 198,153.5C 196.941,153.37 196.108,152.87 195.5,152C 196.5,151 197.5,150 198.5,149C 196.431,147.477 194.097,146.643 191.5,146.5C 191.657,145.127 191.49,143.793 191,142.5C 188.943,145.028 187.943,148.028 188,151.5C 184.891,141.448 179.391,132.948 171.5,126C 171.63,124.941 172.13,124.108 173,123.5C 173.667,124.833 174.333,124.833 175,123.5C 175.494,121.866 175.66,120.199 175.5,118.5C 174.167,118.5 172.833,118.5 171.5,118.5C 171.5,116.167 171.5,113.833 171.5,111.5C 168.401,111.092 166.067,112.259 164.5,115C 162.618,115.198 160.952,115.698 159.5,116.5C 156.017,118.03 152.35,119.03 148.5,119.5C 153.678,116.804 158.678,113.637 163.5,110C 167.467,109.191 171.134,107.691 174.5,105.5C 177.896,105.633 178.229,106.633 175.5,108.5C 176,108.833 176.5,109.167 177,109.5C 178.587,108.33 180.253,107.33 182,106.5C 182.507,105.004 182.007,103.837 180.5,103C 181.448,102.517 182.448,102.351 183.5,102.5C 183.5,103.5 183.5,104.5 183.5,105.5C 186.167,106.5 188.833,107.5 191.5,108.5C 191.174,112.884 191.508,117.217 192.5,121.5C 194.225,124.674 195.558,128.007 196.5,131.5C 200.41,133.407 203.744,136.073 206.5,139.5C 207.736,141.034 208.236,142.7 208,144.5C 205.334,142.013 202.834,142.013 200.5,144.5C 201.833,145.5 203.167,146.5 204.5,147.5C 205.192,146.975 205.692,146.308 206,145.5C 206.388,146.428 207.055,147.095 208,147.5C 210.909,145.685 214.076,144.685 217.5,144.5 Z"/></g>
<g><path style="opacity:1" fill="#cd134e" d="M 233.5,134.5 C 232.694,135.728 231.694,136.728 230.5,137.5C 228.565,138.15 226.565,138.483 224.5,138.5C 223.828,137.733 222.995,137.066 222,136.5C 219.517,137.244 216.851,137.244 214,136.5C 213.043,133.621 213.543,131.121 215.5,129C 213.377,127.806 211.043,127.14 208.5,127C 202.75,117.584 199.084,107.417 197.5,96.5C 195.833,96.5 194.167,96.5 192.5,96.5C 194.543,94.3147 197.043,92.6481 200,91.5C 203.55,92.7257 207.05,93.8924 210.5,95C 208.741,95.9804 207.074,96.647 205.5,97C 208.167,102 210.833,107 213.5,112C 212.253,113.458 212.253,114.958 213.5,116.5C 217.016,119.849 220.349,123.349 223.5,127C 222.216,128.297 222.383,129.464 224,130.5C 228.448,128.339 230.615,129.672 230.5,134.5C 231.5,134.5 232.5,134.5 233.5,134.5 Z"/></g>
<g><path style="opacity:1" fill="#bb1b6d" d="M 279.5,110.5 C 282.167,110.5 284.833,110.5 287.5,110.5C 287.5,110.833 287.5,111.167 287.5,111.5C 282.166,112.5 276.833,113.5 271.5,114.5C 271.5,114.167 271.5,113.833 271.5,113.5C 274.313,112.918 276.98,111.918 279.5,110.5 Z"/></g>
<g><path style="opacity:1" fill="#9d2a97" d="M 295.5,109.5 C 295.5,109.833 295.5,110.167 295.5,110.5C 293.052,111.473 290.385,111.806 287.5,111.5C 287.5,111.167 287.5,110.833 287.5,110.5C 289.948,109.527 292.615,109.194 295.5,109.5 Z"/></g>
<g><path style="opacity:1" fill="#623de4" d="M 295.5,110.5 C 297.833,110.5 300.167,110.5 302.5,110.5C 305.059,110.198 307.393,110.532 309.5,111.5C 309.611,112.117 309.944,112.617 310.5,113C 312.473,113.495 314.473,113.662 316.5,113.5C 317.791,113.263 318.791,113.596 319.5,114.5C 319.389,115.117 319.056,115.617 318.5,116C 320.813,116.662 323.146,117.162 325.5,117.5C 325.833,117.5 326.167,117.5 326.5,117.5C 326.821,119.048 327.821,119.715 329.5,119.5C 330.502,121.011 331.169,122.678 331.5,124.5C 332.675,124.281 333.675,124.614 334.5,125.5C 334.977,126.931 335.643,128.264 336.5,129.5C 337.451,128.674 338.451,128.508 339.5,129C 341.397,131.734 343.73,133.9 346.5,135.5C 347.75,138.006 348.416,140.673 348.5,143.5C 349.959,143.433 351.292,143.766 352.5,144.5C 352.369,149.375 354.036,153.375 357.5,156.5C 357.5,156.833 357.5,157.167 357.5,157.5C 357.853,162.994 358.186,168.494 358.5,174C 356.817,187.088 355.817,200.255 355.5,213.5C 355.5,213.833 355.5,214.167 355.5,214.5C 354.883,214.611 354.383,214.944 354,215.5C 353.505,217.473 353.338,219.473 353.5,221.5C 353.5,221.833 353.5,222.167 353.5,222.5C 351.72,223.99 351.054,225.99 351.5,228.5C 350.899,231.968 349.899,235.301 348.5,238.5C 347.265,238.721 346.265,239.388 345.5,240.5C 342.253,247.654 339.586,254.987 337.5,262.5C 335.583,264.296 333.75,266.296 332,268.5C 331.517,269.448 331.351,270.448 331.5,271.5C 330.5,271.5 329.5,271.5 328.5,271.5C 328.007,273.806 327.674,276.139 327.5,278.5C 326.5,278.5 325.5,278.5 324.5,278.5C 324.649,279.552 324.483,280.552 324,281.5C 323.667,281.167 323.333,280.833 323,280.5C 319.187,287.135 315.02,293.469 310.5,299.5C 309.5,299.5 308.5,299.5 307.5,299.5C 307.719,300.675 307.386,301.675 306.5,302.5C 305.604,301.494 304.938,301.494 304.5,302.5C 305.246,303.736 305.579,305.07 305.5,306.5C 305.5,307.167 305.167,307.5 304.5,307.5C 302.278,307.822 300.444,307.155 299,305.5C 299.311,306.935 299.145,308.268 298.5,309.5C 297.726,310.711 296.893,310.711 296,309.5C 295.505,311.473 295.338,313.473 295.5,315.5C 293.801,315.34 292.134,315.506 290.5,316C 291.337,317.011 291.67,318.178 291.5,319.5C 291.5,320.167 291.167,320.5 290.5,320.5C 288.5,320.833 286.5,321.167 284.5,321.5C 284.5,322.5 284.5,323.5 284.5,324.5C 283.167,324.5 281.833,324.5 280.5,324.5C 280.5,325.833 280.5,327.167 280.5,328.5C 279.71,329.401 278.71,330.068 277.5,330.5C 274.482,330.335 271.482,330.502 268.5,331C 269.973,331.71 270.64,332.876 270.5,334.5C 267.833,335.167 265.167,335.833 262.5,336.5C 262.567,337.959 262.234,339.292 261.5,340.5C 253.149,342.508 245.815,346.341 239.5,352C 238.207,352.49 236.873,352.657 235.5,352.5C 235.5,353.5 235.5,354.5 235.5,355.5C 232.309,354.556 229.309,355.222 226.5,357.5C 225.37,358.622 224.703,359.956 224.5,361.5C 224.5,362.167 224.167,362.5 223.5,362.5C 220.607,362.031 218.607,363.031 217.5,365.5C 214.932,366.45 212.432,366.45 210,365.5C 209.878,369.095 208.044,370.761 204.5,370.5C 204.5,371.5 204.5,372.5 204.5,373.5C 204.158,374.338 203.492,374.672 202.5,374.5C 199.715,373.916 198.048,374.916 197.5,377.5C 195.517,377.157 194.183,377.824 193.5,379.5C 191.801,379.34 190.134,379.506 188.5,380C 189.598,380.77 189.598,381.603 188.5,382.5C 185.316,383.643 181.983,384.309 178.5,384.5C 178.5,385.5 178.5,386.5 178.5,387.5C 176.473,387.662 174.473,387.495 172.5,387C 173.731,385.817 173.731,384.651 172.5,383.5C 171.686,385.766 171.186,388.1 171,390.5C 170.832,369.663 170.332,348.996 169.5,328.5C 169.11,325.534 169.777,322.868 171.5,320.5C 169.528,300.332 168.861,279.998 169.5,259.5C 169.333,231.165 169.5,202.831 170,174.5C 171.634,172.938 173.134,171.271 174.5,169.5C 175.492,169.672 176.158,169.338 176.5,168.5C 177.391,167.89 178.391,167.557 179.5,167.5C 187.072,165.323 193.739,161.657 199.5,156.5C 201.262,156.357 202.929,156.691 204.5,157.5C 209.174,156.007 213.174,153.507 216.5,150C 218.824,148.838 221.158,147.671 223.5,146.5C 223.291,145.914 222.957,145.414 222.5,145C 226.894,145.497 229.228,143.664 229.5,139.5C 229.833,138.833 230.167,138.167 230.5,137.5C 233.948,136.61 236.948,134.943 239.5,132.5C 239.842,131.662 240.508,131.328 241.5,131.5C 244.167,130.167 246.833,128.833 249.5,127.5C 250.873,127.657 252.207,127.49 253.5,127C 255.475,124.908 257.475,123.075 259.5,121.5C 262.984,118.364 266.984,116.031 271.5,114.5C 276.833,113.5 282.166,112.5 287.5,111.5C 290.385,111.806 293.052,111.473 295.5,110.5 Z"/></g>
<g><path style="opacity:1" fill="#9d84dc" d="M 309.5,111.5 C 312.067,111.721 314.401,112.388 316.5,113.5C 314.473,113.662 312.473,113.495 310.5,113C 309.944,112.617 309.611,112.117 309.5,111.5 Z"/></g>
<g><path style="opacity:1" fill="#e65045" d="M 69.5,106.5 C 68.0432,108.785 66.0432,110.618 63.5,112C 60.9293,112.901 58.596,114.234 56.5,116C 55.2068,116.49 53.8734,116.657 52.5,116.5C 57.6324,112.427 63.2991,109.094 69.5,106.5 Z"/></g>
<g><path style="opacity:1" fill="#bc1965" d="M 213.5,147.5 C 208.691,150.214 204.024,153.214 199.5,156.5C 198.833,156.5 198.167,156.5 197.5,156.5C 195.94,156.481 194.44,156.148 193,155.5C 191.189,156.424 191.355,157.257 193.5,158C 191.101,158.711 188.768,158.544 186.5,157.5C 183.764,152.127 181.098,146.794 178.5,141.5C 174.552,138.388 171.552,134.555 169.5,130C 170.233,128.234 170.567,126.401 170.5,124.5C 167.223,124.216 164.057,124.549 161,125.5C 158.953,121.35 160.453,119.35 165.5,119.5C 165.5,118.5 165.5,117.5 165.5,116.5C 163.5,116.5 161.5,116.5 159.5,116.5C 160.952,115.698 162.618,115.198 164.5,115C 166.067,112.259 168.401,111.092 171.5,111.5C 171.5,113.833 171.5,116.167 171.5,118.5C 172.833,118.5 174.167,118.5 175.5,118.5C 175.66,120.199 175.494,121.866 175,123.5C 174.333,124.833 173.667,124.833 173,123.5C 172.13,124.108 171.63,124.941 171.5,126C 179.391,132.948 184.891,141.448 188,151.5C 187.943,148.028 188.943,145.028 191,142.5C 191.49,143.793 191.657,145.127 191.5,146.5C 194.097,146.643 196.431,147.477 198.5,149C 197.5,150 196.5,151 195.5,152C 196.108,152.87 196.941,153.37 198,153.5C 199.505,152.327 201.005,151.161 202.5,150C 203.899,149.405 205.232,149.572 206.5,150.5C 208.51,148.747 210.843,147.747 213.5,147.5 Z"/></g>
<g><path style="opacity:0.004" fill="#fefffe" d="M 21.5,115.5 C 22.8333,116.167 22.8333,116.167 21.5,115.5 Z"/></g>
<g><path style="opacity:1" fill="#9f80e0" d="M 319.5,114.5 C 321.819,114.992 323.819,115.992 325.5,117.5C 323.146,117.162 320.813,116.662 318.5,116C 319.056,115.617 319.389,115.117 319.5,114.5 Z"/></g>
<g><path style="opacity:1" fill="#b71b6c" d="M 159.5,116.5 C 161.5,116.5 163.5,116.5 165.5,116.5C 165.5,117.5 165.5,118.5 165.5,119.5C 160.453,119.35 158.953,121.35 161,125.5C 164.057,124.549 167.223,124.216 170.5,124.5C 170.567,126.401 170.233,128.234 169.5,130C 171.552,134.555 174.552,138.388 178.5,141.5C 181.098,146.794 183.764,152.127 186.5,157.5C 188.768,158.544 191.101,158.711 193.5,158C 191.355,157.257 191.189,156.424 193,155.5C 194.44,156.148 195.94,156.481 197.5,156.5C 191.013,159.31 185.013,162.976 179.5,167.5C 178.391,167.557 177.391,167.89 176.5,168.5C 175.167,168.5 173.833,168.5 172.5,168.5C 172.833,166.5 173.167,164.5 173.5,162.5C 172.167,162.5 170.833,162.5 169.5,162.5C 168.41,155.532 165.244,149.532 160,144.5C 160.086,140.953 158.92,137.953 156.5,135.5C 155.513,132.232 155.18,128.898 155.5,125.5C 153.129,124.658 150.796,124.324 148.5,124.5C 150.162,123.673 151.495,122.507 152.5,121C 152,120.833 151.5,120.667 151,120.5C 148.042,122.233 144.875,123.233 141.5,123.5C 143.663,121.917 145.996,120.584 148.5,119.5C 152.35,119.03 156.017,118.03 159.5,116.5 Z"/></g>
<g><path style="opacity:0.945" fill="#b4a0e1" d="M 326.5,117.5 C 327.71,117.932 328.71,118.599 329.5,119.5C 327.821,119.715 326.821,119.048 326.5,117.5 Z"/></g>
<g><path style="opacity:0.812" fill="#ee9791" d="M 46.5,119.5 C 46.0269,120.906 45.0269,121.573 43.5,121.5C 43.9731,120.094 44.9731,119.427 46.5,119.5 Z"/></g>
<g><path style="opacity:1" fill="#b21d74" d="M 176.5,168.5 C 176.158,169.338 175.492,169.672 174.5,169.5C 172.147,170.34 170.147,171.674 168.5,173.5C 168.167,173.5 167.833,173.5 167.5,173.5C 166.883,173.611 166.383,173.944 166,174.5C 165.882,177.371 165.216,180.038 164,182.5C 163.505,180.527 163.338,178.527 163.5,176.5C 158.764,176.115 158.431,174.781 162.5,172.5C 161.687,171.186 160.687,170.019 159.5,169C 162.516,166.316 165.516,163.649 168.5,161C 167.975,160.308 167.308,159.808 166.5,159.5C 164.092,161.698 161.425,163.364 158.5,164.5C 158.5,165.5 158.5,166.5 158.5,167.5C 156.857,167.52 155.524,166.853 154.5,165.5C 152.151,158.145 149.818,150.811 147.5,143.5C 144.404,144.093 142.071,143.093 140.5,140.5C 144.833,139.171 145.5,136.837 142.5,133.5C 140.639,134.528 139.305,136.028 138.5,138C 136.191,138.756 134.191,138.256 132.5,136.5C 135.342,135.996 136.675,134.329 136.5,131.5C 131.771,131.067 128.104,132.734 125.5,136.5C 123.097,136.448 120.764,136.781 118.5,137.5C 122.174,134.022 126.507,131.522 131.5,130C 134.195,126.796 137.528,124.63 141.5,123.5C 144.875,123.233 148.042,122.233 151,120.5C 151.5,120.667 152,120.833 152.5,121C 151.495,122.507 150.162,123.673 148.5,124.5C 150.796,124.324 153.129,124.658 155.5,125.5C 155.18,128.898 155.513,132.232 156.5,135.5C 158.92,137.953 160.086,140.953 160,144.5C 165.244,149.532 168.41,155.532 169.5,162.5C 170.833,162.5 172.167,162.5 173.5,162.5C 173.167,164.5 172.833,166.5 172.5,168.5C 173.833,168.5 175.167,168.5 176.5,168.5 Z"/></g>
<g><path style="opacity:1" fill="#b71b6e" d="M 253.5,124.5 C 251.924,125.143 250.59,126.143 249.5,127.5C 246.833,128.833 244.167,130.167 241.5,131.5C 241.5,131.167 241.5,130.833 241.5,130.5C 244.997,127.418 248.997,125.418 253.5,124.5 Z"/></g>
<g><path style="opacity:1" fill="#8b30b7" d="M 259.5,121.5 C 257.475,123.075 255.475,124.908 253.5,127C 252.207,127.49 250.873,127.657 249.5,127.5C 250.59,126.143 251.924,125.143 253.5,124.5C 255.216,122.975 257.216,121.975 259.5,121.5 Z"/></g>
<g><path style="opacity:1" fill="#7c5dd7" d="M 329.5,119.5 C 336.474,123.474 342.14,128.808 346.5,135.5C 343.73,133.9 341.397,131.734 339.5,129C 338.451,128.508 337.451,128.674 336.5,129.5C 335.643,128.264 334.977,126.931 334.5,125.5C 333.675,124.614 332.675,124.281 331.5,124.5C 331.169,122.678 330.502,121.011 329.5,119.5 Z"/></g>
<g><path style="opacity:0.451" fill="#fe878a" d="M 43.5,121.5 C 42.1706,161.931 42.1706,202.264 43.5,242.5C 42.5029,243.713 41.5029,243.546 40.5,242C 40.8302,201.559 41.8302,161.392 43.5,121.5 Z"/></g>
<g><path style="opacity:1" fill="#db1d1c" d="M 52.5,116.5 C 49.5565,118.94 46.7232,121.607 44,124.5C 43.5,162.832 43.3333,201.165 43.5,239.5C 44.8333,239.5 46.1667,239.5 47.5,239.5C 47.5,239.833 47.5,240.167 47.5,240.5C 46.4863,241.674 45.153,242.34 43.5,242.5C 42.1706,202.264 42.1706,161.931 43.5,121.5C 45.0269,121.573 46.0269,120.906 46.5,119.5C 48.1815,117.992 50.1815,116.992 52.5,116.5 Z"/></g>
<g><path style="opacity:1" fill="#ab217f" d="M 239.5,132.5 C 236.948,134.943 233.948,136.61 230.5,137.5C 231.694,136.728 232.694,135.728 233.5,134.5C 235.315,133.37 237.315,132.704 239.5,132.5 Z"/></g>
<g><path style="opacity:1" fill="#a62285" d="M 125.5,136.5 C 133.108,137.602 133.442,139.768 126.5,143C 129.021,146.106 131.021,149.606 132.5,153.5C 135.726,163.919 140.06,173.585 145.5,182.5C 150.126,184.708 153.126,188.375 154.5,193.5C 156.906,195.983 159.073,198.65 161,201.5C 161.249,200.376 161.749,199.376 162.5,198.5C 164.404,205.115 165.738,205.115 166.5,198.5C 166.916,204.952 166.416,211.285 165,217.5C 164.167,216.5 163.333,215.5 162.5,214.5C 161.833,215.167 161.167,215.833 160.5,216.5C 159.123,214.711 158.123,212.711 157.5,210.5C 156.012,208.423 154.012,207.423 151.5,207.5C 150.694,203.185 148.194,200.185 144,198.5C 143.63,194.625 141.797,191.625 138.5,189.5C 136.221,182.276 132.888,175.609 128.5,169.5C 125.223,161.945 122.223,154.278 119.5,146.5C 119.57,145.228 119.903,144.062 120.5,143C 117.978,143.499 115.478,143.332 113,142.5C 111.699,142.639 110.866,143.305 110.5,144.5C 109.167,144.5 107.833,144.5 106.5,144.5C 106.5,149.5 106.5,154.5 106.5,159.5C 106.5,170.167 106.5,180.833 106.5,191.5C 106.786,197.259 106.452,202.925 105.5,208.5C 104.833,208.5 104.167,208.5 103.5,208.5C 103.833,207.833 104.167,207.167 104.5,206.5C 105.167,185.663 105.833,164.663 106.5,143.5C 110.286,140.941 114.286,138.941 118.5,137.5C 120.764,136.781 123.097,136.448 125.5,136.5 Z"/></g>
<g><path style="opacity:1" fill="#aa207f" d="M 167.5,173.5 C 167.5,181.5 167.5,189.5 167.5,197.5C 166.833,197.5 166.5,197.833 166.5,198.5C 165.738,205.115 164.404,205.115 162.5,198.5C 161.749,199.376 161.249,200.376 161,201.5C 159.073,198.65 156.906,195.983 154.5,193.5C 153.126,188.375 150.126,184.708 145.5,182.5C 140.06,173.585 135.726,163.919 132.5,153.5C 131.021,149.606 129.021,146.106 126.5,143C 133.442,139.768 133.108,137.602 125.5,136.5C 128.104,132.734 131.771,131.067 136.5,131.5C 136.675,134.329 135.342,135.996 132.5,136.5C 134.191,138.256 136.191,138.756 138.5,138C 139.305,136.028 140.639,134.528 142.5,133.5C 145.5,136.837 144.833,139.171 140.5,140.5C 142.071,143.093 144.404,144.093 147.5,143.5C 149.818,150.811 152.151,158.145 154.5,165.5C 155.524,166.853 156.857,167.52 158.5,167.5C 158.5,166.5 158.5,165.5 158.5,164.5C 161.425,163.364 164.092,161.698 166.5,159.5C 167.308,159.808 167.975,160.308 168.5,161C 165.516,163.649 162.516,166.316 159.5,169C 160.687,170.019 161.687,171.186 162.5,172.5C 158.431,174.781 158.764,176.115 163.5,176.5C 163.338,178.527 163.505,180.527 164,182.5C 165.216,180.038 165.882,177.371 166,174.5C 166.383,173.944 166.883,173.611 167.5,173.5 Z"/></g>
<g><path style="opacity:1" fill="#ba1a69" d="M 230.5,137.5 C 230.167,138.167 229.833,138.833 229.5,139.5C 225.929,141.321 222.262,142.988 218.5,144.5C 219.171,143.153 219.171,141.986 218.5,141C 220.488,140.062 222.488,139.228 224.5,138.5C 226.565,138.483 228.565,138.15 230.5,137.5 Z"/></g>
<g><path style="opacity:1" fill="#a0248c" d="M 166.5,198.5 C 166.5,197.833 166.833,197.5 167.5,197.5C 167.545,209.854 167.045,222.187 166,234.5C 165.82,231.044 165.153,227.711 164,224.5C 163.667,226.833 163.333,229.167 163,231.5C 162.586,231.957 162.086,232.291 161.5,232.5C 157.625,228.457 153.625,224.623 149.5,221C 153.592,218.762 153.425,216.929 149,215.5C 147.674,215.755 146.674,216.422 146,217.5C 143.373,215.037 140.873,212.37 138.5,209.5C 137.964,207.031 136.964,204.864 135.5,203C 136.357,202.311 137.023,201.478 137.5,200.5C 136.273,199.41 135.44,198.076 135,196.5C 134.632,197.91 133.799,198.91 132.5,199.5C 131.476,198.147 130.143,197.48 128.5,197.5C 128.448,193.539 128.448,189.539 128.5,185.5C 126.665,182.599 124.331,181.933 121.5,183.5C 121.643,181.738 121.309,180.071 120.5,178.5C 120.977,177.522 121.643,176.689 122.5,176C 121.416,173.175 120.249,173.008 119,175.5C 117.902,170.764 116.069,166.264 113.5,162C 113.667,161.5 113.833,161 114,160.5C 115.249,162.992 116.416,162.825 117.5,160C 116.207,159.51 114.873,159.343 113.5,159.5C 113.878,154.15 112.878,149.15 110.5,144.5C 110.866,143.305 111.699,142.639 113,142.5C 115.478,143.332 117.978,143.499 120.5,143C 119.903,144.062 119.57,145.228 119.5,146.5C 122.223,154.278 125.223,161.945 128.5,169.5C 132.888,175.609 136.221,182.276 138.5,189.5C 141.797,191.625 143.63,194.625 144,198.5C 148.194,200.185 150.694,203.185 151.5,207.5C 154.012,207.423 156.012,208.423 157.5,210.5C 158.123,212.711 159.123,214.711 160.5,216.5C 161.167,215.833 161.833,215.167 162.5,214.5C 163.333,215.5 164.167,216.5 165,217.5C 166.416,211.285 166.916,204.952 166.5,198.5 Z"/></g>
<g><path style="opacity:1" fill="#8566d8" d="M 346.5,135.5 C 349.241,137.975 351.241,140.975 352.5,144.5C 351.292,143.766 349.959,143.433 348.5,143.5C 348.416,140.673 347.75,138.006 346.5,135.5 Z"/></g>
<g><path style="opacity:1" fill="#886cd7" d="M 352.5,144.5 C 354.928,148.099 356.594,152.099 357.5,156.5C 354.036,153.375 352.369,149.375 352.5,144.5 Z"/></g>
<g><path style="opacity:1" fill="#7338d4" d="M 229.5,139.5 C 229.228,143.664 226.894,145.497 222.5,145C 222.957,145.414 223.291,145.914 223.5,146.5C 221.158,147.671 218.824,148.838 216.5,150C 213.174,153.507 209.174,156.007 204.5,157.5C 202.929,156.691 201.262,156.357 199.5,156.5C 204.024,153.214 208.691,150.214 213.5,147.5C 214.833,146.5 216.167,145.5 217.5,144.5C 217.833,144.5 218.167,144.5 218.5,144.5C 222.262,142.988 225.929,141.321 229.5,139.5 Z"/></g>
<g><path style="opacity:0.004" fill="#fefffe" d="M 38.5,155.5 C 39.8333,156.167 39.8333,156.167 38.5,155.5 Z"/></g>
<g><path style="opacity:1" fill="#982798" d="M 106.5,159.5 C 107.5,159.5 108.5,159.5 109.5,159.5C 108.823,164.874 108.823,170.208 109.5,175.5C 110.192,176.025 110.692,176.692 111,177.5C 112.079,175.606 113.413,175.273 115,176.5C 116.574,185.761 120.574,193.761 127,200.5C 128.021,203.105 128.855,205.772 129.5,208.5C 139.182,219.016 149.349,229.016 160,238.5C 160.833,241.5 161.667,244.5 162.5,247.5C 163.328,243.204 163.828,238.871 164,234.5C 164.24,236.852 165.073,238.852 166.5,240.5C 166.666,245.844 166.499,251.177 166,256.5C 165.692,255.692 165.192,255.025 164.5,254.5C 163.833,256.833 163.167,259.167 162.5,261.5C 161.667,257.5 160.833,253.5 160,249.5C 159.798,251.256 159.298,252.922 158.5,254.5C 157.833,254.167 157.167,253.833 156.5,253.5C 149.899,246.729 143.232,240.229 136.5,234C 135.552,233.517 134.552,233.351 133.5,233.5C 133.649,232.448 133.483,231.448 133,230.5C 128.664,228.65 126.497,225.316 126.5,220.5C 125.052,219.646 123.719,218.646 122.5,217.5C 119.949,213.065 117.949,208.399 116.5,203.5C 115.167,202.167 113.833,200.833 112.5,199.5C 111.808,200.025 111.308,200.692 111,201.5C 109.014,195.683 108.014,189.683 108,183.5C 107.817,186.365 107.317,189.031 106.5,191.5C 106.5,180.833 106.5,170.167 106.5,159.5 Z"/></g>
<g><path style="opacity:0.004" fill="#fefffe" d="M 378.5,162.5 C 379.833,163.167 379.833,163.167 378.5,162.5 Z"/></g>
<g><path style="opacity:0.004" fill="#fefffe" d="M 6.5,164.5 C 7.83333,165.167 7.83333,165.167 6.5,164.5 Z"/></g>
<g><path style="opacity:1" fill="#882fb5" d="M 197.5,156.5 C 198.167,156.5 198.833,156.5 199.5,156.5C 193.739,161.657 187.072,165.323 179.5,167.5C 185.013,162.976 191.013,159.31 197.5,156.5 Z"/></g>
<g><path style="opacity:0.004" fill="#fefffe" d="M 362.5,176.5 C 363.833,177.167 363.833,177.167 362.5,176.5 Z"/></g>
<g><path style="opacity:1" fill="#8769d6" d="M 357.5,157.5 C 358.29,158.609 358.79,159.942 359,161.5C 360.445,179.172 359.279,196.505 355.5,213.5C 355.817,200.255 356.817,187.088 358.5,174C 358.186,168.494 357.853,162.994 357.5,157.5 Z"/></g>
<g><path style="opacity:0.004" fill="#fefffe" d="M 10.5,203.5 C 11.8333,204.167 11.8333,204.167 10.5,203.5 Z"/></g>
<g><path style="opacity:1" fill="#9c40a7" d="M 166.5,240.5 C 166.5,239.833 166.833,239.5 167.5,239.5C 167.5,245.5 167.5,251.5 167.5,257.5C 166.674,262.316 166.174,267.316 166,272.5C 165.667,270.5 165.333,268.5 165,266.5C 163.924,269.36 163.091,272.36 162.5,275.5C 161.886,270.758 161.053,266.091 160,261.5C 159.71,263.044 159.044,264.377 158,265.5C 156.136,264.036 153.969,263.036 151.5,262.5C 137.182,250.182 123.515,237.182 110.5,223.5C 109.775,218.706 108.609,214.04 107,209.5C 106.501,213.486 106.334,217.486 106.5,221.5C 106.5,229.167 106.5,236.833 106.5,244.5C 105.684,273.826 105.35,303.159 105.5,332.5C 104.181,291.306 104.181,249.973 105.5,208.5C 106.452,202.925 106.786,197.259 106.5,191.5C 107.317,189.031 107.817,186.365 108,183.5C 108.014,189.683 109.014,195.683 111,201.5C 111.308,200.692 111.808,200.025 112.5,199.5C 113.833,200.833 115.167,202.167 116.5,203.5C 117.949,208.399 119.949,213.065 122.5,217.5C 123.719,218.646 125.052,219.646 126.5,220.5C 126.497,225.316 128.664,228.65 133,230.5C 133.483,231.448 133.649,232.448 133.5,233.5C 134.552,233.351 135.552,233.517 136.5,234C 143.232,240.229 149.899,246.729 156.5,253.5C 157.167,253.833 157.833,254.167 158.5,254.5C 159.298,252.922 159.798,251.256 160,249.5C 160.833,253.5 161.667,257.5 162.5,261.5C 163.167,259.167 163.833,256.833 164.5,254.5C 165.192,255.025 165.692,255.692 166,256.5C 166.499,251.177 166.666,245.844 166.5,240.5 Z"/></g>
<g><path style="opacity:1" fill="#ed3b2e" d="M 104.5,206.5 C 104.167,207.167 103.833,207.833 103.5,208.5C 101.117,210.358 98.4502,211.692 95.5,212.5C 93.8212,212.285 92.8212,212.952 92.5,214.5C 91.0351,215.737 89.3684,216.737 87.5,217.5C 86.5,217.5 85.5,217.5 84.5,217.5C 83.7084,216.033 83.7084,214.7 84.5,213.5C 86.4086,214.348 88.4086,214.682 90.5,214.5C 90.5,213.167 90.5,211.833 90.5,210.5C 95.5217,210.317 100.188,208.984 104.5,206.5 Z"/></g>
<g><path style="opacity:0.004" fill="#fefffe" d="M 31.5,212.5 C 32.8333,213.167 32.8333,213.167 31.5,212.5 Z"/></g>
<g><path style="opacity:0.847" fill="#f1807b" d="M 95.5,212.5 C 95.0269,213.906 94.0269,214.573 92.5,214.5C 92.8212,212.952 93.8212,212.285 95.5,212.5 Z"/></g>
<g><path style="opacity:0.914" fill="#aa91dd" d="M 355.5,214.5 C 355.279,217.067 354.612,219.401 353.5,221.5C 353.338,219.473 353.505,217.473 354,215.5C 354.383,214.944 354.883,214.611 355.5,214.5 Z"/></g>
<g><path style="opacity:1" fill="#ef6351" d="M 84.5,217.5 C 85.5,217.5 86.5,217.5 87.5,217.5C 84.322,220.258 80.6553,222.258 76.5,223.5C 76.1961,222.85 75.8627,222.183 75.5,221.5C 78.6385,220.38 81.6385,219.046 84.5,217.5 Z"/></g>
<g><path style="opacity:1" fill="#ed7665" d="M 75.5,224.5 C 74.0351,225.737 72.3684,226.737 70.5,227.5C 70.5,226.5 70.5,225.5 70.5,224.5C 72.1667,224.5 73.8333,224.5 75.5,224.5 Z"/></g>
<g><path style="opacity:1" fill="#9c2592" d="M 110.5,144.5 C 112.878,149.15 113.878,154.15 113.5,159.5C 114.873,159.343 116.207,159.51 117.5,160C 116.416,162.825 115.249,162.992 114,160.5C 113.833,161 113.667,161.5 113.5,162C 116.069,166.264 117.902,170.764 119,175.5C 120.249,173.008 121.416,173.175 122.5,176C 121.643,176.689 120.977,177.522 120.5,178.5C 121.309,180.071 121.643,181.738 121.5,183.5C 124.331,181.933 126.665,182.599 128.5,185.5C 128.448,189.539 128.448,193.539 128.5,197.5C 130.143,197.48 131.476,198.147 132.5,199.5C 133.799,198.91 134.632,197.91 135,196.5C 135.44,198.076 136.273,199.41 137.5,200.5C 137.023,201.478 136.357,202.311 135.5,203C 136.964,204.864 137.964,207.031 138.5,209.5C 140.873,212.37 143.373,215.037 146,217.5C 146.674,216.422 147.674,215.755 149,215.5C 153.425,216.929 153.592,218.762 149.5,221C 153.625,224.623 157.625,228.457 161.5,232.5C 162.086,232.291 162.586,231.957 163,231.5C 163.333,229.167 163.667,226.833 164,224.5C 165.153,227.711 165.82,231.044 166,234.5C 167.045,222.187 167.545,209.854 167.5,197.5C 167.5,189.5 167.5,181.5 167.5,173.5C 167.833,173.5 168.167,173.5 168.5,173.5C 168.62,195.509 168.286,217.509 167.5,239.5C 166.833,239.5 166.5,239.833 166.5,240.5C 165.073,238.852 164.24,236.852 164,234.5C 163.828,238.871 163.328,243.204 162.5,247.5C 161.667,244.5 160.833,241.5 160,238.5C 149.349,229.016 139.182,219.016 129.5,208.5C 128.855,205.772 128.021,203.105 127,200.5C 120.574,193.761 116.574,185.761 115,176.5C 113.413,175.273 112.079,175.606 111,177.5C 110.692,176.692 110.192,176.025 109.5,175.5C 108.823,170.208 108.823,164.874 109.5,159.5C 108.5,159.5 107.5,159.5 106.5,159.5C 106.5,154.5 106.5,149.5 106.5,144.5C 107.833,144.5 109.167,144.5 110.5,144.5 Z"/></g>
<g><path style="opacity:0.973" fill="#a997d7" d="M 353.5,222.5 C 353.405,224.786 352.738,226.786 351.5,228.5C 351.054,225.99 351.72,223.99 353.5,222.5 Z"/></g>
<g><path style="opacity:1" fill="#8e2aa4" d="M 167.5,257.5 C 167.5,263.167 167.5,268.833 167.5,274.5C 166.676,278.312 166.176,282.312 166,286.5C 165.149,274.553 163.982,274.553 162.5,286.5C 161.558,281.521 160.724,276.521 160,271.5C 156.915,272.446 153.748,272.28 150.5,271C 146.343,267.088 141.676,263.921 136.5,261.5C 134.664,257.499 131.664,254.666 127.5,253C 126.167,252.333 126.167,251.667 127.5,251C 121.634,246.628 116.301,241.795 111.5,236.5C 109.001,232.596 107.834,228.263 108,223.5C 107.722,222.584 107.222,221.918 106.5,221.5C 106.334,217.486 106.501,213.486 107,209.5C 108.609,214.04 109.775,218.706 110.5,223.5C 123.515,237.182 137.182,250.182 151.5,262.5C 153.969,263.036 156.136,264.036 158,265.5C 159.044,264.377 159.71,263.044 160,261.5C 161.053,266.091 161.886,270.758 162.5,275.5C 163.091,272.36 163.924,269.36 165,266.5C 165.333,268.5 165.667,270.5 166,272.5C 166.174,267.316 166.674,262.316 167.5,257.5 Z"/></g>
<g><path style="opacity:1" fill="#f06a58" d="M 64.5,230.5 C 59.3351,234.586 53.6685,237.92 47.5,240.5C 47.5,240.167 47.5,239.833 47.5,239.5C 48.404,238.791 48.7373,237.791 48.5,236.5C 53.8764,234.456 59.2097,232.456 64.5,230.5 Z"/></g>
<g><path style="opacity:1" fill="#8a2caa" d="M 106.5,221.5 C 107.222,221.918 107.722,222.584 108,223.5C 107.834,228.263 109.001,232.596 111.5,236.5C 116.301,241.795 121.634,246.628 127.5,251C 126.167,251.667 126.167,252.333 127.5,253C 131.664,254.666 134.664,257.499 136.5,261.5C 141.676,263.921 146.343,267.088 150.5,271C 153.748,272.28 156.915,272.446 160,271.5C 160.724,276.521 161.558,281.521 162.5,286.5C 163.982,274.553 165.149,274.553 166,286.5C 166.176,282.312 166.676,278.312 167.5,274.5C 167.663,281.547 167.163,288.547 166,295.5C 165.814,293.1 165.314,290.766 164.5,288.5C 162.471,297.609 160.804,297.276 159.5,287.5C 155.788,287.342 152.288,287.342 149,287.5C 145.994,285.48 144.161,282.813 143.5,279.5C 137.5,280.167 134.833,277.5 135.5,271.5C 133.143,271.663 130.81,271.497 128.5,271C 127.663,269.989 127.33,268.822 127.5,267.5C 126.167,267.5 124.833,267.5 123.5,267.5C 123.5,266.167 123.5,264.833 123.5,263.5C 119.185,262.694 116.185,260.194 114.5,256C 113.552,255.517 112.552,255.351 111.5,255.5C 110.426,252.355 109.093,249.355 107.5,246.5C 107.672,245.508 107.338,244.842 106.5,244.5C 106.5,236.833 106.5,229.167 106.5,221.5 Z"/></g>
<g><path style="opacity:0.004" fill="#fefffe" d="M 101.5,237.5 C 102.833,238.167 102.833,238.167 101.5,237.5 Z"/></g>
<g><path style="opacity:1" fill="#8568d4" d="M 348.5,238.5 C 345.891,247.047 342.225,255.047 337.5,262.5C 339.586,254.987 342.253,247.654 345.5,240.5C 346.265,239.388 347.265,238.721 348.5,238.5 Z"/></g>
<g><path style="opacity:0.004" fill="#fefffe" d="M 54.5,245.5 C 55.8333,246.167 55.8333,246.167 54.5,245.5 Z"/></g>
<g><path style="opacity:1" fill="#862eb2" d="M 174.5,169.5 C 173.134,171.271 171.634,172.938 170,174.5C 169.5,202.831 169.333,231.165 169.5,259.5C 168.727,273.677 168.06,288.01 167.5,302.5C 166.883,302.611 166.383,302.944 166,303.5C 165.667,301.5 165.333,299.5 165,297.5C 163.902,300.651 162.402,303.651 160.5,306.5C 159.565,303.898 157.898,301.898 155.5,300.5C 150.167,297.833 144.833,295.167 139.5,292.5C 138.184,291.193 137.184,289.693 136.5,288C 133.099,288.266 131.433,286.766 131.5,283.5C 130.167,283.5 128.833,283.5 127.5,283.5C 127.675,280.671 126.342,279.004 123.5,278.5C 121.251,276.755 119.584,274.588 118.5,272C 115.854,271.503 113.187,271.336 110.5,271.5C 109.412,266.39 108.412,261.39 107.5,256.5C 107.5,253.167 107.5,249.833 107.5,246.5C 109.093,249.355 110.426,252.355 111.5,255.5C 112.552,255.351 113.552,255.517 114.5,256C 116.185,260.194 119.185,262.694 123.5,263.5C 123.5,264.833 123.5,266.167 123.5,267.5C 124.833,267.5 126.167,267.5 127.5,267.5C 127.33,268.822 127.663,269.989 128.5,271C 130.81,271.497 133.143,271.663 135.5,271.5C 134.833,277.5 137.5,280.167 143.5,279.5C 144.161,282.813 145.994,285.48 149,287.5C 152.288,287.342 155.788,287.342 159.5,287.5C 160.804,297.276 162.471,297.609 164.5,288.5C 165.314,290.766 165.814,293.1 166,295.5C 167.163,288.547 167.663,281.547 167.5,274.5C 167.5,268.833 167.5,263.167 167.5,257.5C 167.5,251.5 167.5,245.5 167.5,239.5C 168.286,217.509 168.62,195.509 168.5,173.5C 170.147,171.674 172.147,170.34 174.5,169.5 Z"/></g>
<g><path style="opacity:0.004" fill="#fefffe" d="M 6.5,247.5 C 7.83333,248.167 7.83333,248.167 6.5,247.5 Z"/></g>
<g><path style="opacity:0.004" fill="#fefffe" d="M 378.5,250.5 C 379.833,251.167 379.833,251.167 378.5,250.5 Z"/></g>
<g><path style="opacity:0.004" fill="#fefffe" d="M 372.5,251.5 C 373.833,252.167 373.833,252.167 372.5,251.5 Z"/></g>
<g><path style="opacity:0.004" fill="#fefffe" d="M 10.5,257.5 C 11.8333,258.167 11.8333,258.167 10.5,257.5 Z"/></g>
<g><path style="opacity:0.004" fill="#fefffe" d="M 352.5,258.5 C 353.833,259.167 353.833,259.167 352.5,258.5 Z"/></g>
<g><path style="opacity:0.004" fill="#fefffe" d="M 399.5,258.5 C 399.5,258.833 399.5,259.167 399.5,259.5C 398.83,259.019 398.83,258.685 399.5,258.5 Z"/></g>
<g><path style="opacity:0.004" fill="#fefffe" d="M 30.5,259.5 C 31.8333,260.167 31.8333,260.167 30.5,259.5 Z"/></g>
<g><path style="opacity:0.004" fill="#fefffe" d="M 42.5,263.5 C 43.8333,264.167 43.8333,264.167 42.5,263.5 Z"/></g>
<g><path style="opacity:1" fill="#8130b8" d="M 107.5,256.5 C 108.412,261.39 109.412,266.39 110.5,271.5C 113.187,271.336 115.854,271.503 118.5,272C 119.584,274.588 121.251,276.755 123.5,278.5C 126.342,279.004 127.675,280.671 127.5,283.5C 128.833,283.5 130.167,283.5 131.5,283.5C 131.433,286.766 133.099,288.266 136.5,288C 137.184,289.693 138.184,291.193 139.5,292.5C 144.833,295.167 150.167,297.833 155.5,300.5C 157.898,301.898 159.565,303.898 160.5,306.5C 162.402,303.651 163.902,300.651 165,297.5C 165.333,299.5 165.667,301.5 166,303.5C 166.383,302.944 166.883,302.611 167.5,302.5C 167.477,307.874 166.977,313.207 166,318.5C 164.647,317.315 163.48,315.981 162.5,314.5C 161.152,316.611 161.485,318.445 163.5,320C 162.646,321.022 161.646,321.855 160.5,322.5C 159.792,319.634 159.125,316.8 158.5,314C 154.339,312.422 150.006,311.255 145.5,310.5C 144.167,308.5 142.833,306.5 141.5,304.5C 139.93,304.306 138.43,304.306 137,304.5C 134.226,302.86 131.726,300.86 129.5,298.5C 123.54,297.043 119.207,293.543 116.5,288C 114.5,287.667 112.5,287.333 110.5,287C 110.957,286.586 111.291,286.086 111.5,285.5C 109.279,282.209 108.113,278.543 108,274.5C 107.501,268.509 107.334,262.509 107.5,256.5 Z"/></g>
<g><path style="opacity:0.004" fill="#fefffe" d="M 340.5,269.5 C 341.833,270.167 341.833,270.167 340.5,269.5 Z"/></g>
<g><path style="opacity:1" fill="#8667da" d="M 337.5,262.5 C 329.534,279.132 318.867,293.799 305.5,306.5C 305.579,305.07 305.246,303.736 304.5,302.5C 304.938,301.494 305.604,301.494 306.5,302.5C 307.386,301.675 307.719,300.675 307.5,299.5C 308.5,299.5 309.5,299.5 310.5,299.5C 315.02,293.469 319.187,287.135 323,280.5C 323.333,280.833 323.667,281.167 324,281.5C 324.483,280.552 324.649,279.552 324.5,278.5C 325.5,278.5 326.5,278.5 327.5,278.5C 327.674,276.139 328.007,273.806 328.5,271.5C 329.5,271.5 330.5,271.5 331.5,271.5C 331.351,270.448 331.517,269.448 332,268.5C 333.75,266.296 335.583,264.296 337.5,262.5 Z"/></g>
<g><path style="opacity:1" fill="#7933c0" d="M 106.5,244.5 C 107.338,244.842 107.672,245.508 107.5,246.5C 107.5,249.833 107.5,253.167 107.5,256.5C 107.334,262.509 107.501,268.509 108,274.5C 108.113,278.543 109.279,282.209 111.5,285.5C 111.291,286.086 110.957,286.586 110.5,287C 112.5,287.333 114.5,287.667 116.5,288C 119.207,293.543 123.54,297.043 129.5,298.5C 131.726,300.86 134.226,302.86 137,304.5C 138.43,304.306 139.93,304.306 141.5,304.5C 142.833,306.5 144.167,308.5 145.5,310.5C 150.006,311.255 154.339,312.422 158.5,314C 159.125,316.8 159.792,319.634 160.5,322.5C 161.646,321.855 162.646,321.022 163.5,320C 161.485,318.445 161.152,316.611 162.5,314.5C 163.48,315.981 164.647,317.315 166,318.5C 166.977,313.207 167.477,307.874 167.5,302.5C 168.06,288.01 168.727,273.677 169.5,259.5C 168.861,279.998 169.528,300.332 171.5,320.5C 169.777,322.868 169.11,325.534 169.5,328.5C 169.167,328.5 168.833,328.5 168.5,328.5C 165.807,329.847 163.14,331.18 160.5,332.5C 159.167,332.5 157.833,332.5 156.5,332.5C 157.091,331.849 157.757,331.182 158.5,330.5C 158.167,330.167 157.833,329.833 157.5,329.5C 155.123,330.585 152.789,331.752 150.5,333C 149.056,333.781 147.723,333.614 146.5,332.5C 147.945,330.937 149.611,329.604 151.5,328.5C 152.386,327.675 152.719,326.675 152.5,325.5C 149.243,325.668 146.243,326.668 143.5,328.5C 135.376,325.603 127.709,321.937 120.5,317.5C 119.296,314.06 116.962,311.726 113.5,310.5C 112.205,308.672 111.205,306.672 110.5,304.5C 109.702,306.078 109.202,307.744 109,309.5C 108.798,307.744 108.298,306.078 107.5,304.5C 106.503,311.803 106.169,319.137 106.5,326.5C 106.5,337.167 106.5,347.833 106.5,358.5C 106.167,358.5 105.833,358.5 105.5,358.5C 105.5,349.833 105.5,341.167 105.5,332.5C 105.35,303.159 105.684,273.826 106.5,244.5 Z"/></g>
<g><path style="opacity:1" fill="#7335cc" d="M 156.5,332.5 C 153.858,335.317 150.525,336.817 146.5,337C 147.684,338.145 147.684,339.312 146.5,340.5C 144.143,340.337 141.81,340.503 139.5,341C 138.027,341.71 137.36,342.876 137.5,344.5C 136.178,344.67 135.011,344.337 134,343.5C 131.904,344.715 132.071,345.549 134.5,346C 131.053,346.269 128.386,347.769 126.5,350.5C 126.5,349.5 126.5,348.5 126.5,347.5C 121.243,344.745 117.076,340.745 114,335.5C 112.667,336.833 111.333,336.833 110,335.5C 109.139,332.269 107.972,329.269 106.5,326.5C 106.169,319.137 106.503,311.803 107.5,304.5C 108.298,306.078 108.798,307.744 109,309.5C 109.202,307.744 109.702,306.078 110.5,304.5C 111.205,306.672 112.205,308.672 113.5,310.5C 116.962,311.726 119.296,314.06 120.5,317.5C 127.709,321.937 135.376,325.603 143.5,328.5C 146.243,326.668 149.243,325.668 152.5,325.5C 152.719,326.675 152.386,327.675 151.5,328.5C 149.611,329.604 147.945,330.937 146.5,332.5C 147.723,333.614 149.056,333.781 150.5,333C 152.789,331.752 155.123,330.585 157.5,329.5C 157.833,329.833 158.167,330.167 158.5,330.5C 157.757,331.182 157.091,331.849 156.5,332.5 Z"/></g>
<g><path style="opacity:1" fill="#7e5dde" d="M 304.5,307.5 C 300.773,312.23 296.44,316.23 291.5,319.5C 291.67,318.178 291.337,317.011 290.5,316C 292.134,315.506 293.801,315.34 295.5,315.5C 295.338,313.473 295.505,311.473 296,309.5C 296.893,310.711 297.726,310.711 298.5,309.5C 299.145,308.268 299.311,306.935 299,305.5C 300.444,307.155 302.278,307.822 304.5,307.5 Z"/></g>
<g><path style="opacity:0.004" fill="#fefffe" d="M 77.5,311.5 C 78.8333,312.167 78.8333,312.167 77.5,311.5 Z"/></g>
<g><path style="opacity:0.004" fill="#fefffe" d="M 369.5,315.5 C 370.833,316.167 370.833,316.167 369.5,315.5 Z"/></g>
<g><path style="opacity:1" fill="#896bd8" d="M 290.5,320.5 C 287.48,323.516 284.146,326.183 280.5,328.5C 280.5,327.167 280.5,325.833 280.5,324.5C 281.833,324.5 283.167,324.5 284.5,324.5C 284.5,323.5 284.5,322.5 284.5,321.5C 286.5,321.167 288.5,320.833 290.5,320.5 Z"/></g>
<g><path style="opacity:1" fill="#8868db" d="M 277.5,330.5 C 272.511,334.331 267.178,337.664 261.5,340.5C 262.234,339.292 262.567,337.959 262.5,336.5C 265.167,335.833 267.833,335.167 270.5,334.5C 270.64,332.876 269.973,331.71 268.5,331C 271.482,330.502 274.482,330.335 277.5,330.5 Z"/></g>
<g><path style="opacity:0.004" fill="#fefffe" d="M 296.5,332.5 C 297.833,333.167 297.833,333.167 296.5,332.5 Z"/></g>
<g><path style="opacity:0.489" fill="#b2a5eb" d="M 168.5,328.5 C 168.833,328.5 169.167,328.5 169.5,328.5C 169.169,350.007 169.503,371.34 170.5,392.5C 170.44,393.043 170.107,393.376 169.5,393.5C 168.5,371.844 168.167,350.177 168.5,328.5 Z"/></g>
<g><path style="opacity:1" fill="#9163c9" d="M 156.5,332.5 C 157.833,332.5 159.167,332.5 160.5,332.5C 156.167,335.669 151.5,338.336 146.5,340.5C 147.684,339.312 147.684,338.145 146.5,337C 150.525,336.817 153.858,335.317 156.5,332.5 Z"/></g>
<g><path style="opacity:0.004" fill="#fefffe" d="M 161.5,338.5 C 162.833,339.167 162.833,339.167 161.5,338.5 Z"/></g>
<g><path style="opacity:1" fill="#6a38d9" d="M 106.5,326.5 C 107.972,329.269 109.139,332.269 110,335.5C 111.333,336.833 112.667,336.833 114,335.5C 117.076,340.745 121.243,344.745 126.5,347.5C 126.5,348.5 126.5,349.5 126.5,350.5C 122.759,349.599 120.759,350.932 120.5,354.5C 119.07,354.579 117.736,354.246 116.5,353.5C 115.289,354.274 115.289,355.107 116.5,356C 114.866,356.494 113.199,356.66 111.5,356.5C 111.5,357.833 111.5,359.167 111.5,360.5C 109.856,360.286 108.356,360.62 107,361.5C 106.517,360.552 106.351,359.552 106.5,358.5C 106.5,347.833 106.5,337.167 106.5,326.5 Z"/></g>
<g><path style="opacity:1" fill="#8a6cd8" d="M 261.5,340.5 C 253.196,345.99 244.529,350.99 235.5,355.5C 235.5,354.5 235.5,353.5 235.5,352.5C 236.873,352.657 238.207,352.49 239.5,352C 245.815,346.341 253.149,342.508 261.5,340.5 Z"/></g>
<g><path style="opacity:0.004" fill="#fefffe" d="M 2.5,351.5 C 3.83333,352.167 3.83333,352.167 2.5,351.5 Z"/></g>
<g><path style="opacity:0.004" fill="#fefffe" d="M 307.5,351.5 C 308.833,352.167 308.833,352.167 307.5,351.5 Z"/></g>
<g><path style="opacity:0.929" fill="#9980cb" d="M 127.5,351.5 C 126.341,353.25 124.674,354.25 122.5,354.5C 123.3,352.259 124.966,351.259 127.5,351.5 Z"/></g>
<g><path style="opacity:1" fill="#865ed2" d="M 146.5,340.5 C 140.666,344.921 134.332,348.588 127.5,351.5C 124.966,351.259 123.3,352.259 122.5,354.5C 117.473,358.168 112.139,361.501 106.5,364.5C 105.692,364.192 105.025,363.692 104.5,363C 105.38,361.644 105.714,360.144 105.5,358.5C 105.833,358.5 106.167,358.5 106.5,358.5C 106.351,359.552 106.517,360.552 107,361.5C 108.356,360.62 109.856,360.286 111.5,360.5C 111.5,359.167 111.5,357.833 111.5,356.5C 113.199,356.66 114.866,356.494 116.5,356C 115.289,355.107 115.289,354.274 116.5,353.5C 117.736,354.246 119.07,354.579 120.5,354.5C 120.759,350.932 122.759,349.599 126.5,350.5C 128.386,347.769 131.053,346.269 134.5,346C 132.071,345.549 131.904,344.715 134,343.5C 135.011,344.337 136.178,344.67 137.5,344.5C 137.36,342.876 138.027,341.71 139.5,341C 141.81,340.503 144.143,340.337 146.5,340.5 Z"/></g>
<g><path style="opacity:0.004" fill="#fefffe" d="M 324.5,353.5 C 325.833,354.167 325.833,354.167 324.5,353.5 Z"/></g>
<g><path style="opacity:1" fill="#8463db" d="M 235.5,355.5 C 232.322,358.258 228.655,360.258 224.5,361.5C 224.703,359.956 225.37,358.622 226.5,357.5C 229.309,355.222 232.309,354.556 235.5,355.5 Z"/></g>
<g><path style="opacity:0.973" fill="#9276d8" d="M 223.5,362.5 C 221.819,364.008 219.819,365.008 217.5,365.5C 218.607,363.031 220.607,362.031 223.5,362.5 Z"/></g>
<g><path style="opacity:1" fill="#8566d7" d="M 217.5,365.5 C 213.37,368.403 209.037,371.07 204.5,373.5C 204.5,372.5 204.5,371.5 204.5,370.5C 208.044,370.761 209.878,369.095 210,365.5C 212.432,366.45 214.932,366.45 217.5,365.5 Z"/></g>
<g><path style="opacity:0.004" fill="#fefffe" d="M 121.5,374.5 C 122.833,375.167 122.833,375.167 121.5,374.5 Z"/></g>
<g><path style="opacity:0.992" fill="#997fdd" d="M 202.5,374.5 C 201.035,375.737 199.368,376.737 197.5,377.5C 198.048,374.916 199.715,373.916 202.5,374.5 Z"/></g>
<g><path style="opacity:0.004" fill="#fefffe" d="M 344.5,375.5 C 345.833,376.167 345.833,376.167 344.5,375.5 Z"/></g>
<g><path style="opacity:0.965" fill="#a58de0" d="M 197.5,377.5 C 196.486,378.674 195.153,379.34 193.5,379.5C 194.183,377.824 195.517,377.157 197.5,377.5 Z"/></g>
<g><path style="opacity:0.004" fill="#fefffe" d="M 307.5,378.5 C 308.833,379.167 308.833,379.167 307.5,378.5 Z"/></g>
<g><path style="opacity:1" fill="#9b7be1" d="M 193.5,379.5 C 192.101,380.89 190.434,381.89 188.5,382.5C 189.598,381.603 189.598,380.77 188.5,380C 190.134,379.506 191.801,379.34 193.5,379.5 Z"/></g>
<g><path style="opacity:1" fill="#7353d4" d="M 169.5,328.5 C 170.332,348.996 170.832,369.663 171,390.5C 171.186,388.1 171.686,385.766 172.5,383.5C 173.731,384.651 173.731,385.817 172.5,387C 174.473,387.495 176.473,387.662 178.5,387.5C 178.5,386.5 178.5,385.5 178.5,384.5C 181.983,384.309 185.316,383.643 188.5,382.5C 182.83,386.337 176.83,389.67 170.5,392.5C 169.503,371.34 169.169,350.007 169.5,328.5 Z"/></g>
<g><path style="opacity:0.004" fill="#fefffe" d="M 33.5,399.5 C 32.8333,398.167 32.8333,398.167 33.5,399.5 Z"/></g>
</svg>
