<?xml version="1.0" encoding="UTF-8"?>
<!DOCTYPE svg PUBLIC "-//W3C//DTD SVG 1.1//EN" "http://www.w3.org/Graphics/SVG/1.1/DTD/svg11.dtd">
<svg xmlns="http://www.w3.org/2000/svg" version="1.1" width="256px" height="256px" style="shape-rendering:geometricPrecision; text-rendering:geometricPrecision; image-rendering:optimizeQuality; fill-rule:evenodd; clip-rule:evenodd" xmlns:xlink="http://www.w3.org/1999/xlink">
<g><path style="opacity:0.976" fill="#8bc349" d="M 124.5,25.5 C 164.597,24.299 196.097,39.9656 219,72.5C 238.109,106.119 239.442,140.452 223,175.5C 198.801,215.515 163.301,233.015 116.5,228C 74.8591,219.529 47.5258,195.029 34.5,154.5C 42.4723,153.502 50.4723,153.169 58.5,153.5C 71.7748,187.239 96.6082,205.239 133,207.5C 162.274,205.867 184.941,192.867 201,168.5C 220.065,130.615 214.565,96.7812 184.5,67C 151.195,42.4134 117.529,41.7467 83.5,65C 74.1237,72.6158 66.7903,81.7824 61.5,92.5C 70.9857,102.486 80.6523,112.319 90.5,122C 67.169,122.5 43.8357,122.667 20.5,122.5C 20.3334,99.1643 20.5,75.831 21,52.5C 28.681,60.3479 36.5143,68.0146 44.5,75.5C 63.2322,46.1341 89.8989,29.4674 124.5,25.5 Z"/></g>
<g><path style="opacity:0.97" fill="#8bc349" d="M 116.5,79.5 C 122.167,79.5 127.833,79.5 133.5,79.5C 133.333,94.5037 133.5,109.504 134,124.5C 147.667,132.833 161.333,141.167 175,149.5C 173.706,155.081 171.039,160.081 167,164.5C 150.168,154.752 133.501,144.752 117,134.5C 116.5,116.17 116.333,97.8364 116.5,79.5 Z"/></g>
</svg>
