<?xml version="1.0" encoding="UTF-8"?>
<!DOCTYPE svg PUBLIC "-//W3C//DTD SVG 1.1//EN" "http://www.w3.org/Graphics/SVG/1.1/DTD/svg11.dtd">
<svg xmlns="http://www.w3.org/2000/svg" version="1.1" width="400px" height="400px" style="shape-rendering:geometricPrecision; text-rendering:geometricPrecision; image-rendering:optimizeQuality; fill-rule:evenodd; clip-rule:evenodd" xmlns:xlink="http://www.w3.org/1999/xlink">
<g><path style="opacity:1" fill="#30173d" d="M 16.5,-0.5 C 138.5,-0.5 260.5,-0.5 382.5,-0.5C 390.5,2.83333 396.167,8.5 399.5,16.5C 399.5,138.5 399.5,260.5 399.5,382.5C 396.167,390.5 390.5,396.167 382.5,399.5C 260.5,399.5 138.5,399.5 16.5,399.5C 8.5,396.167 2.83333,390.5 -0.5,382.5C -0.5,260.5 -0.5,138.5 -0.5,16.5C 2.83333,8.5 8.5,2.83333 16.5,-0.5 Z"/></g>
<g><path style="opacity:1" fill="#d6fe63" d="M 79.5,79.5 C 155.834,79.3333 232.167,79.5 308.5,80C 313.333,82.1667 316.833,85.6667 319,90.5C 319.667,126.167 319.667,161.833 319,197.5C 317.567,202.598 314.4,206.098 309.5,208C 296.894,209.42 284.228,209.92 271.5,209.5C 271.5,215.833 271.5,222.167 271.5,228.5C 287.5,228.5 303.5,228.5 319.5,228.5C 319.5,258.833 319.5,289.167 319.5,319.5C 282.833,319.5 246.167,319.5 209.5,319.5C 209.5,295.5 209.5,271.5 209.5,247.5C 202.833,247.5 196.167,247.5 189.5,247.5C 189.5,271.5 189.5,295.5 189.5,319.5C 152.833,319.5 116.167,319.5 79.5,319.5C 79.5,239.5 79.5,159.5 79.5,79.5 Z"/></g>
<g><path style="opacity:1" fill="#5a5146" d="M 227.5,189.5 C 227.5,183.5 227.5,177.5 227.5,171.5C 208.833,171.5 190.167,171.5 171.5,171.5C 171.5,177.5 171.5,183.5 171.5,189.5C 170.51,183.355 170.177,177.022 170.5,170.5C 189.833,170.5 209.167,170.5 228.5,170.5C 228.823,177.022 228.49,183.355 227.5,189.5 Z"/></g>
<g><path style="opacity:1" fill="#2f173d" d="M 227.5,189.5 C 208.833,189.5 190.167,189.5 171.5,189.5C 171.5,183.5 171.5,177.5 171.5,171.5C 190.167,171.5 208.833,171.5 227.5,171.5C 227.5,177.5 227.5,183.5 227.5,189.5 Z"/></g>
</svg>
