<?xml version="1.0" encoding="UTF-8"?>
<!DOCTYPE svg PUBLIC "-//W3C//DTD SVG 1.1//EN" "http://www.w3.org/Graphics/SVG/1.1/DTD/svg11.dtd">
<svg xmlns="http://www.w3.org/2000/svg" version="1.1" width="1000px" height="1000px" style="shape-rendering:geometricPrecision; text-rendering:geometricPrecision; image-rendering:optimizeQuality; fill-rule:evenodd; clip-rule:evenodd" xmlns:xlink="http://www.w3.org/1999/xlink">
<g><path style="opacity:0.998" fill="#17afc2" d="M 468.5,-0.5 C 489.167,-0.5 509.833,-0.5 530.5,-0.5C 682.424,12.1998 805.257,78.1998 899,197.5C 958.851,277.867 992.351,368.201 999.5,468.5C 999.5,489.167 999.5,509.833 999.5,530.5C 988.911,665.538 934.244,779.038 835.5,871C 823.58,881.427 811.247,891.261 798.5,900.5C 802.231,869.806 803.897,838.973 803.5,808C 802.893,779.155 801.893,750.322 800.5,721.5C 807.02,724.254 813.686,726.754 820.5,729C 836.193,731.569 845.693,725.069 849,709.5C 856.857,700.765 857.524,691.431 851,681.5C 844.174,671.341 835.008,664.175 823.5,660C 814.437,656.621 805.104,654.454 795.5,653.5C 794.859,602.836 794.359,552.169 794,501.5C 792.99,457.236 787.49,413.57 777.5,370.5C 777.608,369.558 777.941,368.725 778.5,368C 814.875,350.076 827.375,321.576 816,282.5C 797.02,241.926 765.854,227.092 722.5,238C 716.554,240.306 710.888,243.139 705.5,246.5C 677.91,225.042 646.91,210.542 612.5,203C 530.181,185.725 448.848,189.391 368.5,214C 339.359,223.734 312.692,237.901 288.5,256.5C 252.478,237.542 220.312,242.542 192,271.5C 171.184,296.006 167.85,322.673 182,351.5C 190.807,363.966 202.307,373.133 216.5,379C 217.059,379.725 217.392,380.558 217.5,381.5C 209.746,414.706 206.413,448.373 207.5,482.5C 177.049,490.269 146.049,493.603 114.5,492.5C 114.333,591.834 114.5,691.167 115,790.5C 146.664,817.066 178.164,843.733 209.5,870.5C 209.675,882.839 210.008,895.172 210.5,907.5C 119.592,842.712 56.7589,757.045 22,650.5C 9.90791,611.215 2.40791,571.215 -0.5,530.5C -0.5,509.833 -0.5,489.167 -0.5,468.5C 12.1998,316.576 78.1998,193.743 197.5,100C 277.867,40.1492 368.201,6.64918 468.5,-0.5 Z"/></g>
<g><path style="opacity:1" fill="#188492" d="M 798.5,900.5 C 793.368,905.235 787.701,909.235 781.5,912.5C 788.136,866.738 790.303,820.738 788,774.5C 781.025,677.629 777.692,580.629 778,483.5C 776.211,427.689 765.544,373.689 746,321.5C 719.581,270.099 678.414,236.599 622.5,221C 543.914,202.06 465.581,203.06 387.5,224C 301.602,246.231 249.435,300.731 231,387.5C 224.733,417.365 222.233,447.365 223.5,477.5C 218.384,479.537 213.051,481.203 207.5,482.5C 206.413,448.373 209.746,414.706 217.5,381.5C 217.392,380.558 217.059,379.725 216.5,379C 202.307,373.133 190.807,363.966 182,351.5C 167.85,322.673 171.184,296.006 192,271.5C 220.312,242.542 252.478,237.542 288.5,256.5C 312.692,237.901 339.359,223.734 368.5,214C 448.848,189.391 530.181,185.725 612.5,203C 646.91,210.542 677.91,225.042 705.5,246.5C 710.888,243.139 716.554,240.306 722.5,238C 765.854,227.092 797.02,241.926 816,282.5C 827.375,321.576 814.875,350.076 778.5,368C 777.941,368.725 777.608,369.558 777.5,370.5C 787.49,413.57 792.99,457.236 794,501.5C 794.359,552.169 794.859,602.836 795.5,653.5C 805.104,654.454 814.437,656.621 823.5,660C 835.008,664.175 844.174,671.341 851,681.5C 857.524,691.431 856.857,700.765 849,709.5C 845.693,725.069 836.193,731.569 820.5,729C 813.686,726.754 807.02,724.254 800.5,721.5C 801.893,750.322 802.893,779.155 803.5,808C 803.897,838.973 802.231,869.806 798.5,900.5 Z"/></g>
<g><path style="opacity:1" fill="#96eaf5" d="M 781.5,912.5 C 705.958,964.35 622.291,993.35 530.5,999.5C 509.833,999.5 489.167,999.5 468.5,999.5C 380.597,993.644 299.931,966.644 226.5,918.5C 226.073,907.986 225.407,897.486 224.5,887C 224.514,885.615 224.848,884.449 225.5,883.5C 237.642,894.135 249.975,904.635 262.5,915C 263.5,915.667 264.5,915.667 265.5,915C 315,873.5 364.5,832 414,790.5C 414.5,691.167 414.667,591.834 414.5,492.5C 376.518,494.003 339.518,488.837 303.5,477C 288.922,471.468 276.089,463.301 265,452.5C 253.154,464.012 239.321,472.345 223.5,477.5C 222.233,447.365 224.733,417.365 231,387.5C 249.435,300.731 301.602,246.231 387.5,224C 465.581,203.06 543.914,202.06 622.5,221C 678.414,236.599 719.581,270.099 746,321.5C 765.544,373.689 776.211,427.689 778,483.5C 777.692,580.629 781.025,677.629 788,774.5C 790.303,820.738 788.136,866.738 781.5,912.5 Z"/></g>
<g><path style="opacity:1" fill="#95eaf4" d="M 740.5,248.5 C 771.152,247.999 791.986,261.999 803,290.5C 810.355,319.618 800.522,340.618 773.5,353.5C 769.919,342.507 765.919,331.673 761.5,321C 773.72,313.01 776.553,302.51 770,289.5C 767.28,284.449 763.113,281.282 757.5,280C 751.055,279.4 744.722,279.733 738.5,281C 731.873,272.704 724.873,264.704 717.5,257C 724.887,253.042 732.554,250.208 740.5,248.5 Z"/></g>
<g><path style="opacity:1" fill="#95e9f3" d="M 238.5,260.5 C 251.924,258.986 264.591,261.319 276.5,267.5C 267.746,276.747 259.58,286.414 252,296.5C 233.097,289.198 221.597,295.365 217.5,315C 217.544,320.018 219.044,324.518 222,328.5C 225.114,331.296 228.281,333.962 231.5,336.5C 227.824,345.867 224.157,355.2 220.5,364.5C 188.705,348.283 180.538,323.95 196,291.5C 206.025,275.412 220.192,265.078 238.5,260.5 Z"/></g>
<g><path style="opacity:1" fill="#1e8693" d="M 595.5,264.5 C 619.588,262.785 641.588,268.618 661.5,282C 691.202,308.274 701.036,340.774 691,379.5C 682.741,402.76 667.241,419.26 644.5,429C 615.627,441.227 586.627,441.561 557.5,430C 522.571,412.323 506.071,383.823 508,344.5C 516.253,304.577 540.086,279.077 579.5,268C 585.014,267.055 590.348,265.889 595.5,264.5 Z"/></g>
<g><path style="opacity:1" fill="#1e8693" d="M 369.5,274.5 C 401.103,270.747 428.603,279.413 452,300.5C 475.199,328.665 480.533,359.998 468,394.5C 451.862,425.255 426.362,442.755 391.5,447C 359.106,451.204 331.606,441.704 309,418.5C 291.274,396.486 284.941,371.486 290,343.5C 297.849,314.317 315.682,293.817 343.5,282C 352.117,278.851 360.783,276.351 369.5,274.5 Z"/></g>
<g><path style="opacity:1" fill="#fefefe" d="M 596.5,274.5 C 627.085,272.29 651.918,282.957 671,306.5C 685.492,329.722 688.492,354.389 680,380.5C 669.567,402.93 652.401,417.43 628.5,424C 596.655,433.401 567.655,428.068 541.5,408C 511.199,374.753 509.699,340.253 537,304.5C 553.58,287.96 573.413,277.96 596.5,274.5 Z"/></g>
<g><path style="opacity:1" fill="#fefefe" d="M 374.5,284.5 C 397.526,282.672 418.526,288.172 437.5,301C 461.1,322.606 469.266,349.106 462,380.5C 453.107,407.06 435.273,424.56 408.5,433C 379.662,442.069 352.662,438.402 327.5,422C 305.706,403.648 296.206,380.148 299,351.5C 305.002,320.158 323.169,299.325 353.5,289C 360.525,287.057 367.525,285.557 374.5,284.5 Z"/></g>
<g><path style="opacity:1" fill="#1d8592" d="M 558.5,329.5 C 580.018,331.193 589.852,342.859 588,364.5C 581.662,384.252 568.829,390.419 549.5,383C 535.992,371.794 533.158,358.294 541,342.5C 545.392,336.071 551.225,331.738 558.5,329.5 Z"/></g>
<g><path style="opacity:1" fill="#1b8492" d="M 334.5,337.5 C 358.218,336.385 369.385,347.719 368,371.5C 362.697,389.57 350.863,396.403 332.5,392C 318.256,383.283 313.422,370.783 318,354.5C 321.689,346.979 327.189,341.312 334.5,337.5 Z"/></g>
<g><path style="opacity:1" fill="#f6fafa" d="M 571.5,357.5 C 580.892,358.647 582.892,363.147 577.5,371C 570.167,371.997 567.334,368.83 569,361.5C 569.662,360.016 570.496,358.683 571.5,357.5 Z"/></g>
<g><path style="opacity:1" fill="#f8fbfb" d="M 352.5,364.5 C 361.011,366.328 362.677,370.828 357.5,378C 350.167,378.997 347.334,375.83 349,368.5C 349.69,366.65 350.856,365.316 352.5,364.5 Z"/></g>
<g><path style="opacity:1" fill="#1a8492" d="M 493.5,419.5 C 507.977,417.913 520.977,421.413 532.5,430C 536.467,434.39 538.8,439.557 539.5,445.5C 551.507,451.089 562.007,458.755 571,468.5C 583.295,486.992 580.128,502.492 561.5,515C 555.129,518.382 548.462,519.215 541.5,517.5C 541.93,530.165 541.43,542.832 540,555.5C 535.121,562.033 528.621,566.199 520.5,568C 517.072,568.701 513.738,568.368 510.5,567C 505.126,564.462 500.46,560.962 496.5,556.5C 491.762,561.534 486.095,565.034 479.5,567C 469.674,567.525 462.507,563.358 458,554.5C 452.629,542.405 450.462,529.739 451.5,516.5C 438.01,513.612 429.843,505.279 427,491.5C 426.243,471.184 435.076,456.684 453.5,448C 456.063,446.921 458.729,446.421 461.5,446.5C 464,434.824 471,426.991 482.5,423C 486.254,421.691 489.921,420.525 493.5,419.5 Z"/></g>
<g><path style="opacity:1" fill="#046e7b" d="M 225.5,883.5 C 220.191,879.197 214.858,874.863 209.5,870.5C 178.164,843.733 146.664,817.066 115,790.5C 114.5,691.167 114.333,591.834 114.5,492.5C 146.049,493.603 177.049,490.269 207.5,482.5C 213.051,481.203 218.384,479.537 223.5,477.5C 239.321,472.345 253.154,464.012 265,452.5C 276.089,463.301 288.922,471.468 303.5,477C 339.518,488.837 376.518,494.003 414.5,492.5C 414.667,591.834 414.5,691.167 414,790.5C 364.5,832 315,873.5 265.5,915C 264.5,915.667 263.5,915.667 262.5,915C 249.975,904.635 237.642,894.135 225.5,883.5 Z"/></g>
<g><path style="opacity:1" fill="#95e9f3" d="M 532.5,456.5 C 547.177,461.095 558.343,470.095 566,483.5C 566.887,488.072 566.22,492.405 564,496.5C 561.131,499.704 557.965,502.537 554.5,505C 550.928,506.405 547.261,506.738 543.5,506C 534.833,502.667 526.167,499.333 517.5,496C 509.328,493.601 500.994,492.934 492.5,494C 483.363,496.601 474.363,499.601 465.5,503C 446.924,507.799 438.09,500.632 439,481.5C 442.446,467.37 451.279,459.87 465.5,459C 473.489,465.439 482.655,468.273 493,467.5C 503.879,467.803 514.379,465.97 524.5,462C 527.621,460.694 530.287,458.86 532.5,456.5 Z"/></g>
<g><path style="opacity:1" fill="#58c0ce" d="M 263.5,467.5 C 264.721,466.535 266.054,466.702 267.5,468C 285.881,481.245 306.214,490.245 328.5,495C 353.556,500.232 378.889,502.732 404.5,502.5C 404.667,596.834 404.5,691.167 404,785.5C 357.627,824.711 311.127,863.711 264.5,902.5C 265.481,853.19 265.815,803.857 265.5,754.5C 275.191,752.981 283.024,748.314 289,740.5C 294.033,733.094 298.533,725.428 302.5,717.5C 308.467,720.969 314.3,724.636 320,728.5C 322.484,737.786 325.65,746.786 329.5,755.5C 332.057,754.593 334.557,753.593 337,752.5C 334.843,742.019 331.843,731.685 328,721.5C 320.251,716.375 312.418,711.375 304.5,706.5C 311.097,681.63 311.097,656.797 304.5,632C 315.021,628.701 325.688,625.701 336.5,623C 341.833,615.667 347.167,608.333 352.5,601C 350.007,598.92 347.341,597.086 344.5,595.5C 339.865,601.81 335.198,608.143 330.5,614.5C 321.323,616.753 312.156,619.086 303,621.5C 302.228,621.355 301.561,621.022 301,620.5C 296.417,605.463 287.251,594.297 273.5,587C 270.904,585.864 268.237,585.031 265.5,584.5C 265.667,546.499 265.5,508.499 265,470.5C 264.768,469.263 264.268,468.263 263.5,467.5 Z"/></g>
<g><path style="opacity:1" fill="#96eaf5" d="M 259.5,470.5 C 260.117,470.611 260.617,470.944 261,471.5C 261.5,509.165 261.667,546.832 261.5,584.5C 253.19,585.655 245.856,588.988 239.5,594.5C 232.908,602.272 227.742,610.938 224,620.5C 223.439,621.022 222.772,621.355 222,621.5C 213.151,619.413 204.317,617.246 195.5,615C 190.368,608.552 185.368,602.052 180.5,595.5C 177.659,597.086 174.993,598.92 172.5,601C 177.833,608.333 183.167,615.667 188.5,623C 198.983,625.962 209.483,628.796 220,631.5C 217.189,644.259 215.689,657.259 215.5,670.5C 208.159,670.334 200.826,670.5 193.5,671C 186.579,680.845 179.913,690.845 173.5,701C 175.342,703.33 177.676,705.163 180.5,706.5C 186.856,698.301 192.856,689.801 198.5,681C 204.491,680.501 210.491,680.334 216.5,680.5C 216.812,689.16 218.145,697.66 220.5,706C 212.782,711.28 204.949,716.447 197,721.5C 193.116,731.983 189.949,742.65 187.5,753.5C 190.067,753.855 192.567,754.521 195,755.5C 195.5,755.167 196,754.833 196.5,754.5C 199.568,745.462 202.735,736.462 206,727.5C 211.583,724.292 217.083,720.959 222.5,717.5C 226.052,724.262 229.885,730.929 234,737.5C 240.611,747.385 249.778,753.051 261.5,754.5C 261.832,803.003 261.499,851.336 260.5,899.5C 214.913,862.087 169.747,824.087 125,785.5C 124.5,691.167 124.333,596.834 124.5,502.5C 162.38,503.222 199.047,497.056 234.5,484C 243.461,480.51 251.794,476.01 259.5,470.5 Z"/></g>
<g><path style="opacity:1" fill="#fbfdfd" d="M 504.5,505.5 C 513.212,506.959 521.545,509.626 529.5,513.5C 531.832,526.477 531.999,539.477 530,552.5C 519.297,561.484 510.63,559.817 504,547.5C 503.257,533.479 503.424,519.479 504.5,505.5 Z"/></g>
<g><path style="opacity:1" fill="#fcfdfd" d="M 487.5,507.5 C 489.167,507.5 490.833,507.5 492.5,507.5C 491.834,520.821 491.334,534.154 491,547.5C 487.277,552.854 482.277,556.187 476,557.5C 470.535,555.3 466.869,551.3 465,545.5C 461.889,536.066 460.889,526.399 462,516.5C 470.776,514.023 479.276,511.023 487.5,507.5 Z"/></g>
<g><path style="opacity:1" fill="#87e0ec" d="M 262.5,468.5 C 263.499,506.996 263.832,545.663 263.5,584.5C 262.833,584.5 262.167,584.5 261.5,584.5C 261.667,546.832 261.5,509.165 261,471.5C 260.617,470.944 260.117,470.611 259.5,470.5C 260.29,469.599 261.29,468.932 262.5,468.5 Z"/></g>
<g><path style="opacity:1" fill="#73d2df" d="M 262.5,468.5 C 262.5,467.833 262.833,467.5 263.5,467.5C 264.268,468.263 264.768,469.263 265,470.5C 265.5,508.499 265.667,546.499 265.5,584.5C 264.833,584.5 264.167,584.5 263.5,584.5C 263.832,545.663 263.499,506.996 262.5,468.5 Z"/></g>
<g><path style="opacity:1" fill="#066f7c" d="M 261.5,584.5 C 262.167,584.5 262.833,584.5 263.5,584.5C 264.167,584.5 264.833,584.5 265.5,584.5C 268.237,585.031 270.904,585.864 273.5,587C 287.251,594.297 296.417,605.463 301,620.5C 301.561,621.022 302.228,621.355 303,621.5C 312.156,619.086 321.323,616.753 330.5,614.5C 335.198,608.143 339.865,601.81 344.5,595.5C 347.341,597.086 350.007,598.92 352.5,601C 347.167,608.333 341.833,615.667 336.5,623C 325.688,625.701 315.021,628.701 304.5,632C 311.097,656.797 311.097,681.63 304.5,706.5C 312.418,711.375 320.251,716.375 328,721.5C 331.843,731.685 334.843,742.019 337,752.5C 334.557,753.593 332.057,754.593 329.5,755.5C 325.65,746.786 322.484,737.786 320,728.5C 314.3,724.636 308.467,720.969 302.5,717.5C 298.533,725.428 294.033,733.094 289,740.5C 283.024,748.314 275.191,752.981 265.5,754.5C 264.833,754.5 264.167,754.5 263.5,754.5C 262.833,754.5 262.167,754.5 261.5,754.5C 249.778,753.051 240.611,747.385 234,737.5C 229.885,730.929 226.052,724.262 222.5,717.5C 217.083,720.959 211.583,724.292 206,727.5C 202.735,736.462 199.568,745.462 196.5,754.5C 196,754.833 195.5,755.167 195,755.5C 192.567,754.521 190.067,753.855 187.5,753.5C 189.949,742.65 193.116,731.983 197,721.5C 204.949,716.447 212.782,711.28 220.5,706C 218.145,697.66 216.812,689.16 216.5,680.5C 210.491,680.334 204.491,680.501 198.5,681C 192.856,689.801 186.856,698.301 180.5,706.5C 177.676,705.163 175.342,703.33 173.5,701C 179.913,690.845 186.579,680.845 193.5,671C 200.826,670.5 208.159,670.334 215.5,670.5C 215.689,657.259 217.189,644.259 220,631.5C 209.483,628.796 198.983,625.962 188.5,623C 183.167,615.667 177.833,608.333 172.5,601C 174.993,598.92 177.659,597.086 180.5,595.5C 185.368,602.052 190.368,608.552 195.5,615C 204.317,617.246 213.151,619.413 222,621.5C 222.772,621.355 223.439,621.022 224,620.5C 227.742,610.938 232.908,602.272 239.5,594.5C 245.856,588.988 253.19,585.655 261.5,584.5 Z"/></g>
<g><path style="opacity:1" fill="#8be1ec" d="M 264.5,594.5 C 265.403,597.391 265.736,600.391 265.5,603.5C 261.486,603.666 257.486,603.499 253.5,603C 251.579,602.64 249.912,601.806 248.5,600.5C 253,596.249 258.333,594.249 264.5,594.5 Z"/></g>
<g><path style="opacity:1" fill="#57becc" d="M 264.5,594.5 C 269.036,595.435 273.036,597.435 276.5,600.5C 273.054,602.278 269.387,603.278 265.5,603.5C 265.736,600.391 265.403,597.391 264.5,594.5 Z"/></g>
<g><path style="opacity:1" fill="#96eaf5" d="M 241.5,608.5 C 246.301,611.667 251.635,613.333 257.5,613.5C 257.667,656.835 257.5,700.168 257,743.5C 250.431,740.266 245.098,735.599 241,729.5C 226.5,701.313 222.5,671.647 229,640.5C 231.316,629.043 235.482,618.377 241.5,608.5 Z"/></g>
<g><path style="opacity:1" fill="#58bfcd" d="M 280.5,609.5 C 282.144,609.286 283.644,609.62 285,610.5C 296.774,634.141 301.107,659.141 298,685.5C 296.628,699.949 292.628,713.615 286,726.5C 281.642,733.691 275.809,739.358 268.5,743.5C 267.5,700.172 267.167,656.838 267.5,613.5C 272.246,613.161 276.58,611.828 280.5,609.5 Z"/></g>
<g><path style="opacity:1" fill="#94e8f2" d="M 796.5,668.5 C 812.376,669.95 825.876,676.283 837,687.5C 838.696,689.56 839.863,691.893 840.5,694.5C 840.297,696.208 839.464,697.541 838,698.5C 833.861,696.764 829.861,694.764 826,692.5C 823.073,693.717 820.573,695.55 818.5,698C 822.624,702.395 827.624,705.228 833.5,706.5C 833.047,713.409 829.38,715.909 822.5,714C 813.857,711.263 806.024,707.096 799,701.5C 797.724,690.537 796.891,679.537 796.5,668.5 Z"/></g>
<g><path style="opacity:1" fill="#056f7c" d="M 312.5,670.5 C 323.505,670.333 334.505,670.5 345.5,671C 352.421,680.845 359.087,690.845 365.5,701C 363.568,703.949 360.901,705.615 357.5,706C 351.833,697.667 346.167,689.333 340.5,681C 331.173,680.5 321.839,680.334 312.5,680.5C 312.5,677.167 312.5,673.833 312.5,670.5 Z"/></g>
<g><path style="opacity:1" fill="#87e0ec" d="M 261.5,754.5 C 262.167,754.5 262.833,754.5 263.5,754.5C 263.832,803.67 263.499,852.67 262.5,901.5C 261.5,901.167 260.833,900.5 260.5,899.5C 261.499,851.336 261.832,803.003 261.5,754.5 Z"/></g>
<g><path style="opacity:1" fill="#73d2df" d="M 263.5,754.5 C 264.167,754.5 264.833,754.5 265.5,754.5C 265.815,803.857 265.481,853.19 264.5,902.5C 263.508,902.672 262.842,902.338 262.5,901.5C 263.499,852.67 263.832,803.67 263.5,754.5 Z"/></g>
<g><path style="opacity:1" fill="#198492" d="M 209.5,870.5 C 214.858,874.863 220.191,879.197 225.5,883.5C 224.848,884.449 224.514,885.615 224.5,887C 225.407,897.486 226.073,907.986 226.5,918.5C 220.612,915.607 215.278,911.94 210.5,907.5C 210.008,895.172 209.675,882.839 209.5,870.5 Z"/></g>
</svg>
