<?xml version="1.0" encoding="UTF-8"?>
<!DOCTYPE svg PUBLIC "-//W3C//DTD SVG 1.1//EN" "http://www.w3.org/Graphics/SVG/1.1/DTD/svg11.dtd">
<svg xmlns="http://www.w3.org/2000/svg" version="1.1" width="128px" height="128px" style="shape-rendering:geometricPrecision; text-rendering:geometricPrecision; image-rendering:optimizeQuality; fill-rule:evenodd; clip-rule:evenodd" xmlns:xlink="http://www.w3.org/1999/xlink">
<g><path style="opacity:0.996" fill="#280459" d="M 16.5,-0.5 C 47.8333,-0.5 79.1667,-0.5 110.5,-0.5C 118.5,2.83333 124.167,8.5 127.5,16.5C 127.5,47.8333 127.5,79.1667 127.5,110.5C 124.167,118.5 118.5,124.167 110.5,127.5C 79.1667,127.5 47.8333,127.5 16.5,127.5C 8.5,124.167 2.83333,118.5 -0.5,110.5C -0.5,79.1667 -0.5,47.8333 -0.5,16.5C 2.83333,8.5 8.5,2.83333 16.5,-0.5 Z"/></g>
<g><path style="opacity:1" fill="#f5f4f7" d="M 65.5,27.5 C 69.0424,28.6746 72.7091,29.3413 76.5,29.5C 72.3074,52.6024 67.6408,75.6024 62.5,98.5C 58.4809,98.3542 54.4809,98.0209 50.5,97.5C 54.5623,73.9232 59.5623,50.5899 65.5,27.5 Z"/></g>
<g><path style="opacity:1" fill="#f7f5f8" d="M 40.5,41.5 C 43.9193,43.4124 46.9193,45.9124 49.5,49C 45.1667,54 40.8333,59 36.5,64C 40.787,69.2893 45.4537,74.2893 50.5,79C 47.354,81.3116 44.354,83.8116 41.5,86.5C 33.6377,79.4716 26.3044,71.9716 19.5,64C 26.3256,56.341 33.3256,48.841 40.5,41.5 Z"/></g>
<g><path style="opacity:1" fill="#f7f6f9" d="M 84.5,41.5 C 92.9525,48.1183 100.619,55.6183 107.5,64C 100.696,71.9716 93.3623,79.4716 85.5,86.5C 82.6614,84.1607 79.9948,81.6607 77.5,79C 81.8333,74 86.1667,69 90.5,64C 86.213,58.7107 81.5463,53.7107 76.5,49C 79.6657,46.9999 82.3324,44.4999 84.5,41.5 Z"/></g>
</svg>
