<svg width="128pt" height="128pt" version="1.0" viewBox="0 0 128 128" xmlns="http://www.w3.org/2000/svg"><g transform="translate(0 128) scale(.1 -.1)" fill="#e13eaf"><path d="m626 1271c-5-8-46-33-141-87-40-22-91-52-141-81-27-17-70-41-95-55-88-50-117-66-138-79-21-14-21-18-21-329 0-354-9-313 76-361 19-10 49-27 67-38 17-10 61-35 97-56s80-46 97-56c18-11 48-27 65-38 97-55 115-66 131-80 12-10 21-12 25-5 4 6 27 22 52 35 25 14 62 35 83 47 20 12 52 30 70 41 17 10 55 32 83 48 27 17 70 41 95 55 88 50 117 66 138 79 21 14 21 18 21 329s0 315-21 329c-21 13-50 29-138 79-25 14-68 38-95 55-28 16-66 38-83 48-18 11-50 29-70 41-21 12-58 33-83 47s-46 29-48 33c-5 11-19 10-26-1zm64-137c89-52 116-67 160-92 25-14 74-42 109-64 34-21 65-38 68-38s18-9 34-21l29-20v-259-259l-29-20c-16-12-31-21-34-21s-34-17-68-38c-35-22-84-50-109-64s-63-36-85-48c-22-13-59-34-82-48l-43-24-42 24c-24 14-61 35-83 48s-65 37-95 53c-30 17-79 45-108 64-29 18-55 33-58 33s-19 9-35 21l-29 20v259 259l29 20c16 12 31 21 34 21s34 17 68 38c35 22 84 50 109 64 44 25 71 40 160 92 25 14 47 26 50 26s25-12 50-26z" fill="#e13eaf"/></g></svg>
