<?xml version="1.0" encoding="UTF-8"?>
<!DOCTYPE svg PUBLIC "-//W3C//DTD SVG 1.1//EN" "http://www.w3.org/Graphics/SVG/1.1/DTD/svg11.dtd">
<svg xmlns="http://www.w3.org/2000/svg" version="1.1" width="208px" height="210px" style="shape-rendering:geometricPrecision; text-rendering:geometricPrecision; image-rendering:optimizeQuality; fill-rule:evenodd; clip-rule:evenodd" xmlns:xlink="http://www.w3.org/1999/xlink">
<g><path style="opacity:0.004" fill="#fefffe" d="M 126.5,-0.5 C 126.833,-0.5 127.167,-0.5 127.5,-0.5C 127.315,0.170143 126.981,0.170143 126.5,-0.5 Z"/></g>
<g><path style="opacity:0.004" fill="#fefffe" d="M 147.5,-0.5 C 147.833,-0.5 148.167,-0.5 148.5,-0.5C 148.315,0.170143 147.981,0.170143 147.5,-0.5 Z"/></g>
<g><path style="opacity:0.886" fill="#3788e0" d="M 64.5,1.5 C 64.3893,2.11742 64.056,2.61742 63.5,3C 58.1327,3.40337 52.7993,4.07004 47.5,5C 44.0431,7.06338 40.3764,8.56338 36.5,9.5C 44.7275,3.44765 54.0608,0.780987 64.5,1.5 Z"/></g>
<g><path style="opacity:1" fill="#2487f8" d="M 64.5,1.5 C 65.1667,1.5 65.5,1.83333 65.5,2.5C 66.7035,4.63449 68.5368,5.96782 71,6.5C 71.2896,8.04406 71.9563,9.37739 73,10.5C 74.8159,8.55855 76.8159,7.89189 79,8.5C 79.6838,9.78387 79.5171,10.9505 78.5,12C 76.3225,13.2022 73.9892,13.7022 71.5,13.5C 64.8772,12.6204 58.2105,12.287 51.5,12.5C 47.0514,13.3234 42.7181,14.3234 38.5,15.5C 38.5,16.5 38.5,17.5 38.5,18.5C 36.4727,18.6621 34.4727,18.4955 32.5,18C 32.8333,17.6667 33.1667,17.3333 33.5,17C 32.6433,16.3109 31.9767,15.4776 31.5,14.5C 33.5212,13.1455 35.1879,11.4788 36.5,9.5C 40.3764,8.56338 44.0431,7.06338 47.5,5C 52.7993,4.07004 58.1327,3.40337 63.5,3C 64.056,2.61742 64.3893,2.11742 64.5,1.5 Z"/></g>
<g><path style="opacity:1" fill="#2f88f0" d="M 65.5,2.5 C 85.9596,5.62734 98.2929,17.294 102.5,37.5C 100.775,34.3755 99.2755,31.0421 98,27.5C 96.9916,27.9817 95.825,28.1484 94.5,28C 95.1667,28.6667 95.8333,29.3333 96.5,30C 94.6874,29.9536 93.0207,30.1203 91.5,30.5C 92.8064,31.9122 93.6397,33.5789 94,35.5C 95.812,46.3923 93.812,56.3923 88,65.5C 87.1841,66.8228 86.0174,67.4894 84.5,67.5C 97.3319,49.6307 95.6652,33.1307 79.5,18C 76.6462,16.6035 73.9795,15.1035 71.5,13.5C 73.9892,13.7022 76.3225,13.2022 78.5,12C 79.5171,10.9505 79.6838,9.78387 79,8.5C 76.8159,7.89189 74.8159,8.55855 73,10.5C 71.9563,9.37739 71.2896,8.04406 71,6.5C 68.5368,5.96782 66.7035,4.63449 65.5,2.5 Z"/></g>
<g><path style="opacity:0.004" fill="#fefffe" d="M 180.5,20.5 C 181.833,21.1667 181.833,21.1667 180.5,20.5 Z"/></g>
<g><path style="opacity:1" fill="#2d88f1" d="M 36.5,9.5 C 35.1879,11.4788 33.5212,13.1455 31.5,14.5C 31.9767,15.4776 32.6433,16.3109 33.5,17C 33.1667,17.3333 32.8333,17.6667 32.5,18C 34.4727,18.4955 36.4727,18.6621 38.5,18.5C 38.5,17.5 38.5,16.5 38.5,15.5C 42.7181,14.3234 47.0514,13.3234 51.5,12.5C 30.8134,21.2118 23.4801,36.5451 29.5,58.5C 27.9328,57.3192 27.0995,55.6526 27,53.5C 26.6667,46.8333 26.3333,40.1667 26,33.5C 25,32.5 24,31.5 23,30.5C 22.3058,31.8176 21.4725,32.6509 20.5,33C 20.6667,33.5 20.8333,34 21,34.5C 22.0495,33.4829 23.2161,33.3162 24.5,34C 21.8333,34.6667 21.8333,35.3333 24.5,36C 23.3764,38.4817 21.7097,38.9817 19.5,37.5C 18.3626,44.8323 18.3626,52.1656 19.5,59.5C 14.2397,43.4137 17.073,28.747 28,15.5C 30.6287,13.1118 33.462,11.1118 36.5,9.5 Z"/></g>
<g><path style="opacity:1" fill="#2187f8" d="M 102.5,37.5 C 105.116,51.6559 101.449,63.9892 91.5,74.5C 85.8495,74.8575 83.5161,72.5242 84.5,67.5C 86.0174,67.4894 87.1841,66.8228 88,65.5C 93.812,56.3923 95.812,46.3923 94,35.5C 93.6397,33.5789 92.8064,31.9122 91.5,30.5C 93.0207,30.1203 94.6874,29.9536 96.5,30C 95.8333,29.3333 95.1667,28.6667 94.5,28C 95.825,28.1484 96.9916,27.9817 98,27.5C 99.2755,31.0421 100.775,34.3755 102.5,37.5 Z"/></g>
<g><path style="opacity:1" fill="#2e89f0" d="M 57.5,24.5 C 65.4497,29.2763 73.2831,34.2763 81,39.5C 84.1688,47.4955 81.6688,52.8288 73.5,55.5C 73.5,53.8333 73.5,52.1667 73.5,50.5C 75.5,50.1667 77.5,49.8333 79.5,49.5C 79.2606,47.5328 79.5939,45.6995 80.5,44C 79.2341,43.6905 78.0674,43.1905 77,42.5C 74.1451,45.3503 70.9785,47.8503 67.5,50C 66.2068,50.49 64.8734,50.6567 63.5,50.5C 66.263,48.9202 68.9297,47.0869 71.5,45C 65.9304,41.7249 60.5971,38.2249 55.5,34.5C 57.3904,34.7035 58.8904,34.0368 60,32.5C 61.8507,34.9391 63.8507,37.2724 66,39.5C 67.7685,37.4603 69.9352,35.9603 72.5,35C 68.2406,33.0657 64.2406,30.7323 60.5,28C 58.9371,27.2411 57.9371,26.0744 57.5,24.5 Z"/></g>
<g><path style="opacity:1" fill="#1c87fc" d="M 57.5,24.5 C 57.9371,26.0744 58.9371,27.2411 60.5,28C 64.2406,30.7323 68.2406,33.0657 72.5,35C 69.9352,35.9603 67.7685,37.4603 66,39.5C 63.8507,37.2724 61.8507,34.9391 60,32.5C 58.8904,34.0368 57.3904,34.7035 55.5,34.5C 54.8953,32.9743 53.7286,31.9743 52,31.5C 51.6667,31.8333 51.3333,32.1667 51,32.5C 50.8317,40.8532 50.3317,49.1866 49.5,57.5C 46.7633,56.9306 45.2633,55.264 45,52.5C 44.8014,44.7845 44.3014,37.1178 43.5,29.5C 44.6477,27.8513 45.981,26.3513 47.5,25C 50.8168,24.5017 54.1501,24.335 57.5,24.5 Z"/></g>
<g><path style="opacity:0.004" fill="#fefffe" d="M 201.5,46.5 C 202.833,47.1667 202.833,47.1667 201.5,46.5 Z"/></g>
<g><path style="opacity:1" fill="#2288f9" d="M 73.5,55.5 C 72.1007,56.8897 70.4341,57.8897 68.5,58.5C 65.5182,58.8273 62.6849,58.8273 60,58.5C 58.7135,61.1446 56.5468,62.1446 53.5,61.5C 53.5271,59.8007 54.1938,58.4674 55.5,57.5C 57.5984,55.9449 59.9317,54.6116 62.5,53.5C 63.1272,52.5832 63.4606,51.5832 63.5,50.5C 64.8734,50.6567 66.2068,50.49 67.5,50C 70.9785,47.8503 74.1451,45.3503 77,42.5C 78.0674,43.1905 79.2341,43.6905 80.5,44C 79.5939,45.6995 79.2606,47.5328 79.5,49.5C 77.5,49.8333 75.5,50.1667 73.5,50.5C 73.5,52.1667 73.5,53.8333 73.5,55.5 Z"/></g>
<g><path style="opacity:0.004" fill="#fefffe" d="M 165.5,51.5 C 166.833,52.1667 166.833,52.1667 165.5,51.5 Z"/></g>
<g><path style="opacity:0.004" fill="#fefffe" d="M 186.5,53.5 C 187.833,54.1667 187.833,54.1667 186.5,53.5 Z"/></g>
<g><path style="opacity:1" fill="#4288da" d="M 52.5,33.5 C 52.1692,41.1955 52.5025,48.8622 53.5,56.5C 56.8611,54.4887 60.1944,52.4887 63.5,50.5C 63.4606,51.5832 63.1272,52.5832 62.5,53.5C 59.9317,54.6116 57.5984,55.9449 55.5,57.5C 54.1779,57.33 53.0113,57.6634 52,58.5C 51.1768,49.9896 51.3434,41.6563 52.5,33.5 Z"/></g>
<g><path style="opacity:1" fill="#2788f0" d="M 57.5,24.5 C 54.1501,24.335 50.8168,24.5017 47.5,25C 45.981,26.3513 44.6477,27.8513 43.5,29.5C 44.3014,37.1178 44.8014,44.7845 45,52.5C 45.2633,55.264 46.7633,56.9306 49.5,57.5C 50.3317,49.1866 50.8317,40.8532 51,32.5C 51.3333,32.1667 51.6667,31.8333 52,31.5C 53.7286,31.9743 54.8953,32.9743 55.5,34.5C 54.391,34.4431 53.391,34.1098 52.5,33.5C 51.3434,41.6563 51.1768,49.9896 52,58.5C 53.0113,57.6634 54.1779,57.33 55.5,57.5C 54.1938,58.4674 53.5271,59.8007 53.5,61.5C 56.5468,62.1446 58.7135,61.1446 60,58.5C 62.6849,58.8273 65.5182,58.8273 68.5,58.5C 63.3199,62.818 57.4865,66.1514 51,68.5C 47.3778,67.6973 44.7112,65.6973 43,62.5C 42.3333,50.8333 42.3333,39.1667 43,27.5C 46.9873,22.1504 51.8206,21.1504 57.5,24.5 Z"/></g>
<g><path style="opacity:1" fill="#1e86fa" d="M 29.5,58.5 C 31.0709,60.6351 32.4043,62.9684 33.5,65.5C 33.3832,67.4835 34.0499,69.1502 35.5,70.5C 34.1095,70.1086 33.1095,70.9419 32.5,73C 36.5,73.6667 36.5,74.3333 32.5,75C 34.8808,76.2465 34.5475,76.5798 31.5,76C 27.1506,71.4849 23.8173,66.3183 21.5,60.5C 21.0431,59.7025 20.3764,59.3691 19.5,59.5C 18.3626,52.1656 18.3626,44.8323 19.5,37.5C 21.7097,38.9817 23.3764,38.4817 24.5,36C 21.8333,35.3333 21.8333,34.6667 24.5,34C 23.2161,33.3162 22.0495,33.4829 21,34.5C 20.8333,34 20.6667,33.5 20.5,33C 21.4725,32.6509 22.3058,31.8176 23,30.5C 24,31.5 25,32.5 26,33.5C 26.3333,40.1667 26.6667,46.8333 27,53.5C 27.0995,55.6526 27.9328,57.3192 29.5,58.5 Z"/></g>
<g><path style="opacity:0.004" fill="#fefffe" d="M 159.5,64.5 C 160.833,65.1667 160.833,65.1667 159.5,64.5 Z"/></g>
<g><path style="opacity:1" fill="#2588f6" d="M 84.5,67.5 C 83.5161,72.5242 85.8495,74.8575 91.5,74.5C 88.0897,78.2379 84.0897,81.2379 79.5,83.5C 76.6592,83.5597 73.9925,84.2264 71.5,85.5C 71.7512,83.8297 72.4178,82.3297 73.5,81C 71.2996,81.5844 69.133,81.4177 67,80.5C 61.9555,83.2852 60.7889,82.2852 63.5,77.5C 71.9501,77.1074 78.9501,73.7741 84.5,67.5 Z"/></g>
<g><path style="opacity:0.004" fill="#fefffe" d="M 9.5,80.5 C 10.8333,81.1667 10.8333,81.1667 9.5,80.5 Z"/></g>
<g><path style="opacity:0.004" fill="#fefffe" d="M 123.5,81.5 C 124.833,82.1667 124.833,82.1667 123.5,81.5 Z"/></g>
<g><path style="opacity:0.004" fill="#fefffe" d="M 3.5,82.5 C 4.83333,83.1667 4.83333,83.1667 3.5,82.5 Z"/></g>
<g><path style="opacity:1" fill="#1e87fc" d="M 63.5,77.5 C 60.7889,82.2852 61.9555,83.2852 67,80.5C 69.133,81.4177 71.2996,81.5844 73.5,81C 72.4178,82.3297 71.7512,83.8297 71.5,85.5C 67.9956,86.1303 64.4956,86.797 61,87.5C 60.162,90.4807 60.9953,92.8141 63.5,94.5C 64.0147,96.8945 64.6814,99.2278 65.5,101.5C 62.1206,102.606 58.7873,103.773 55.5,105C 55.8333,105.333 56.1667,105.667 56.5,106C 55.8971,107.825 55.2304,109.659 54.5,111.5C 53.1667,122.167 53.1667,132.833 54.5,143.5C 56.6568,144.966 56.9901,146.8 55.5,149C 54.4232,149.47 53.4232,149.303 52.5,148.5C 52.1673,133.152 52.5006,117.819 53.5,102.5C 55.1462,100.608 55.4795,98.608 54.5,96.5C 55.09,95.2011 56.09,94.3678 57.5,94C 56.8333,93.6667 56.1667,93.3333 55.5,93C 59.375,91.6532 59.375,90.4865 55.5,89.5C 53.8802,85.9181 51.5469,82.9181 48.5,80.5C 48.8333,79.5 49.5,78.8333 50.5,78.5C 54.6315,79.7963 58.6315,79.7963 62.5,78.5C 62.5,77.8333 62.8333,77.5 63.5,77.5 Z"/></g>
<g><path style="opacity:1" fill="#3288ee" d="M 19.5,59.5 C 20.3764,59.3691 21.0431,59.7025 21.5,60.5C 23.8173,66.3183 27.1506,71.4849 31.5,76C 34.5475,76.5798 34.8808,76.2465 32.5,75C 36.5,74.3333 36.5,73.6667 32.5,73C 33.1095,70.9419 34.1095,70.1086 35.5,70.5C 34.0499,69.1502 33.3832,67.4835 33.5,65.5C 41.2569,73.8747 50.9236,78.208 62.5,78.5C 58.6315,79.7963 54.6315,79.7963 50.5,78.5C 49.5,78.8333 48.8333,79.5 48.5,80.5C 51.5469,82.9181 53.8802,85.9181 55.5,89.5C 59.375,90.4865 59.375,91.6532 55.5,93C 56.1667,93.3333 56.8333,93.6667 57.5,94C 56.09,94.3678 55.09,95.2011 54.5,96.5C 55.4795,98.608 55.1462,100.608 53.5,102.5C 52.5006,117.819 52.1673,133.152 52.5,148.5C 52.3379,150.527 52.5045,152.527 53,154.5C 54.7814,158.371 56.2814,162.371 57.5,166.5C 53.7375,162.297 51.5709,157.297 51,151.5C 50.6667,130.167 50.3333,108.833 50,87.5C 34.8593,83.5238 24.6926,74.1905 19.5,59.5 Z"/></g>
<g><path style="opacity:0.745" fill="#4191e0" d="M 79.5,83.5 C 73.9817,86.5152 67.9817,88.3485 61.5,89C 62.464,90.7255 63.1307,92.5588 63.5,94.5C 60.9953,92.8141 60.162,90.4807 61,87.5C 64.4956,86.797 67.9956,86.1303 71.5,85.5C 73.9925,84.2264 76.6592,83.5597 79.5,83.5 Z"/></g>
<g><path style="opacity:1" fill="#3288eb" d="M 184.5,95.5 C 183.106,93.4083 181.272,91.7416 179,90.5C 174.467,91.2587 173.801,92.9254 177,95.5C 178.297,94.2164 179.464,94.3831 180.5,96C 180,96.5 179.5,97 179,97.5C 178.502,100.482 178.335,103.482 178.5,106.5C 176.835,100.805 173.835,95.8048 169.5,91.5C 156.381,85.4328 146.047,88.4328 138.5,100.5C 138.859,98.2341 138.192,96.4007 136.5,95C 137.854,93.7063 139.188,93.5396 140.5,94.5C 140.998,91.4074 141.998,88.5741 143.5,86C 142.167,85.3333 140.833,85.3333 139.5,86C 137.297,88.3722 134.963,90.5389 132.5,92.5C 137.955,82.9337 146.289,78.267 157.5,78.5C 170.238,78.3626 179.238,84.0293 184.5,95.5 Z"/></g>
<g><path style="opacity:1" fill="#1e87fc" d="M 169.5,91.5 C 169.586,90.5041 169.252,89.6708 168.5,89C 167.062,88.7811 165.729,88.2811 164.5,87.5C 158.627,86.4782 152.961,86.4782 147.5,87.5C 146.738,86.3717 146.071,85.2051 145.5,84C 146.833,83.6667 148.167,83.3333 149.5,83C 149.043,82.586 148.709,82.086 148.5,81.5C 154.807,80.3361 161.141,80.1694 167.5,81C 170.751,82.5774 173.751,84.5774 176.5,87C 174.796,89.5471 172.463,91.0471 169.5,91.5 Z"/></g>
<g><path style="opacity:0.004" fill="#fefffe" d="M 93.5,89.5 C 94.8333,90.1667 94.8333,90.1667 93.5,89.5 Z"/></g>
<g><path style="opacity:1" fill="#1e86fb" d="M 138.5,100.5 C 138.5,100.833 138.5,101.167 138.5,101.5C 137.351,101.791 136.684,102.624 136.5,104C 135.946,106.824 135.446,109.657 135,112.5C 134.25,113.126 133.416,113.626 132.5,114C 133.126,114.75 133.626,115.584 134,116.5C 134.423,115.044 135.256,114.544 136.5,115C 137.308,117.088 138.308,119.088 139.5,121C 137.656,123.011 135.656,124.845 133.5,126.5C 132.594,122.852 131.261,119.352 129.5,116C 130.101,114.395 131.101,113.062 132.5,112C 129.766,111.002 128.099,109.168 127.5,106.5C 111.325,106.83 95.3246,106.496 79.5,105.5C 96.1667,105.5 112.833,105.5 129.5,105.5C 130.295,101.524 130.962,97.5236 131.5,93.5C 131.5,92.8333 131.833,92.5 132.5,92.5C 134.963,90.5389 137.297,88.3722 139.5,86C 140.833,85.3333 142.167,85.3333 143.5,86C 141.998,88.5741 140.998,91.4074 140.5,94.5C 139.188,93.5396 137.854,93.7063 136.5,95C 138.192,96.4007 138.859,98.2341 138.5,100.5 Z"/></g>
<g><path style="opacity:1" fill="#2587f8" d="M 184.5,95.5 C 190.033,105.329 189.699,114.995 183.5,124.5C 181.362,124.703 179.695,125.703 178.5,127.5C 177.262,123.689 176.596,123.689 176.5,127.5C 173.402,127.413 173.068,127.913 175.5,129C 174.874,129.75 174.374,130.584 174,131.5C 172.719,131.619 171.552,131.119 170.5,130C 172.797,128.84 172.464,127.84 169.5,127C 172.079,125.924 173.746,124.091 174.5,121.5C 176.843,116.796 178.176,111.796 178.5,106.5C 178.335,103.482 178.502,100.482 179,97.5C 179.5,97 180,96.5 180.5,96C 179.464,94.3831 178.297,94.2164 177,95.5C 173.801,92.9254 174.467,91.2587 179,90.5C 181.272,91.7416 183.106,93.4083 184.5,95.5 Z"/></g>
<g><path style="opacity:0.715" fill="#3d90ef" d="M 131.5,93.5 C 130.962,97.5236 130.295,101.524 129.5,105.5C 112.833,105.5 96.1667,105.5 79.5,105.5C 75.5431,104.658 71.5431,103.491 67.5,102C 68.6956,101.346 68.6956,100.846 67.5,100.5C 66.8165,100.863 66.1499,101.196 65.5,101.5C 64.6814,99.2278 64.0147,96.8945 63.5,94.5C 66.809,98.309 70.809,101.142 75.5,103C 92.4968,103.457 109.33,103.623 126,103.5C 128.118,100.301 129.952,96.9674 131.5,93.5 Z"/></g>
<g><path style="opacity:1" fill="#1e8afc" d="M 79.5,105.5 C 95.3246,106.496 111.325,106.83 127.5,106.5C 128.099,109.168 129.766,111.002 132.5,112C 131.101,113.062 130.101,114.395 129.5,116C 131.261,119.352 132.594,122.852 133.5,126.5C 130.74,123.317 128.74,119.651 127.5,115.5C 128.625,114.652 128.625,113.652 127.5,112.5C 128.738,112.19 128.738,111.69 127.5,111C 110.57,108.973 93.5695,107.973 76.5,108C 74.6161,107.784 72.9494,107.117 71.5,106C 74.146,105.503 76.8127,105.336 79.5,105.5 Z"/></g>
<g><path style="opacity:1" fill="#1c85fb" d="M 79.5,105.5 C 76.8127,105.336 74.146,105.503 71.5,106C 72.9494,107.117 74.6161,107.784 76.5,108C 93.5695,107.973 110.57,108.973 127.5,111C 128.738,111.69 128.738,112.19 127.5,112.5C 109.83,112.667 92.1635,112.5 74.5,112C 72.0912,110.293 69.4245,109.46 66.5,109.5C 64.9731,109.573 63.9731,108.906 63.5,107.5C 64.7196,105.718 65.3862,103.718 65.5,101.5C 66.1499,101.196 66.8165,100.863 67.5,100.5C 68.6956,100.846 68.6956,101.346 67.5,102C 71.5431,103.491 75.5431,104.658 79.5,105.5 Z"/></g>
<g><path style="opacity:1" fill="#2888f4" d="M 65.5,101.5 C 65.3862,103.718 64.7196,105.718 63.5,107.5C 62.5041,107.586 61.6708,107.252 61,106.5C 61.2866,122.113 61.6199,137.78 62,153.5C 63.4021,157.975 65.5688,161.975 68.5,165.5C 68.5394,166.583 68.8728,167.583 69.5,168.5C 69.2623,170.478 67.9289,172.145 65.5,173.5C 63.079,171.066 60.4123,169.066 57.5,167.5C 57.5,167.167 57.5,166.833 57.5,166.5C 56.2814,162.371 54.7814,158.371 53,154.5C 52.5045,152.527 52.3379,150.527 52.5,148.5C 53.4232,149.303 54.4232,149.47 55.5,149C 56.9901,146.8 56.6568,144.966 54.5,143.5C 53.1667,132.833 53.1667,122.167 54.5,111.5C 55.2304,109.659 55.8971,107.825 56.5,106C 56.1667,105.667 55.8333,105.333 55.5,105C 58.7873,103.773 62.1206,102.606 65.5,101.5 Z"/></g>
<g><path style="opacity:0.439" fill="#3285dd" d="M 66.5,109.5 C 69.4245,109.46 72.0912,110.293 74.5,112C 92.1635,112.5 109.83,112.667 127.5,112.5C 128.625,113.652 128.625,114.652 127.5,115.5C 127.389,114.883 127.056,114.383 126.5,114C 108.833,113.667 91.1667,113.333 73.5,113C 70.8261,112.33 68.4927,111.163 66.5,109.5 Z"/></g>
<g><path style="opacity:1" fill="#2f89f1" d="M 165.5,97.5 C 170.755,98.6766 172.255,101.677 170,106.5C 165.5,111 161,115.5 156.5,120C 154.5,120.667 152.5,120.667 150.5,120C 146.938,116.942 143.938,113.442 141.5,109.5C 144.706,103.231 148.54,102.897 153,108.5C 157.386,104.939 161.552,101.273 165.5,97.5 Z"/></g>
<g><path style="opacity:0.004" fill="#fefffe" d="M 192.5,112.5 C 193.833,113.167 193.833,113.167 192.5,112.5 Z"/></g>
<g><path style="opacity:0.004" fill="#fefffe" d="M 9.5,119.5 C 10.8333,120.167 10.8333,120.167 9.5,119.5 Z"/></g>
<g><path style="opacity:1" fill="#2f89ed" d="M 138.5,101.5 C 135.377,117.542 141.877,126.876 158,129.5C 164.392,128.553 169.892,125.886 174.5,121.5C 173.746,124.091 172.079,125.924 169.5,127C 172.464,127.84 172.797,128.84 170.5,130C 171.552,131.119 172.719,131.619 174,131.5C 174.374,130.584 174.874,129.75 175.5,129C 173.068,127.913 173.402,127.413 176.5,127.5C 176.596,123.689 177.262,123.689 178.5,127.5C 179.695,125.703 181.362,124.703 183.5,124.5C 176.529,135.319 166.529,140.319 153.5,139.5C 155.969,138.683 158.635,138.183 161.5,138C 163.049,136.786 164.215,135.286 165,133.5C 165.308,134.308 165.808,134.975 166.5,135.5C 167.719,134.354 169.052,133.354 170.5,132.5C 170.333,132.167 170.167,131.833 170,131.5C 168.132,130.335 166.298,130.668 164.5,132.5C 162.844,130.978 161.677,131.311 161,133.5C 156.493,130.041 151.326,128.707 145.5,129.5C 145.646,127.058 144.813,126.391 143,127.5C 142.517,126.552 142.351,125.552 142.5,124.5C 140.027,124.736 138.36,126.069 137.5,128.5C 139.997,129.578 141.663,131.411 142.5,134C 146.2,134.912 149.533,136.412 152.5,138.5C 144.038,137.677 137.705,133.677 133.5,126.5C 135.656,124.845 137.656,123.011 139.5,121C 138.308,119.088 137.308,117.088 136.5,115C 135.256,114.544 134.423,115.044 134,116.5C 133.626,115.584 133.126,114.75 132.5,114C 133.416,113.626 134.25,113.126 135,112.5C 135.446,109.657 135.946,106.824 136.5,104C 136.684,102.624 137.351,101.791 138.5,101.5 Z"/></g>
<g><path style="opacity:0.004" fill="#fefffe" d="M 189.5,127.5 C 190.833,128.167 190.833,128.167 189.5,127.5 Z"/></g>
<g><path style="opacity:0.004" fill="#fefffe" d="M 15.5,128.5 C 16.8333,129.167 16.8333,129.167 15.5,128.5 Z"/></g>
<g><path style="opacity:1" fill="#1e87fb" d="M 153.5,139.5 C 152.833,139.5 152.5,139.167 152.5,138.5C 149.533,136.412 146.2,134.912 142.5,134C 141.663,131.411 139.997,129.578 137.5,128.5C 138.36,126.069 140.027,124.736 142.5,124.5C 142.351,125.552 142.517,126.552 143,127.5C 144.813,126.391 145.646,127.058 145.5,129.5C 151.326,128.707 156.493,130.041 161,133.5C 161.677,131.311 162.844,130.978 164.5,132.5C 166.298,130.668 168.132,130.335 170,131.5C 170.167,131.833 170.333,132.167 170.5,132.5C 169.052,133.354 167.719,134.354 166.5,135.5C 165.808,134.975 165.308,134.308 165,133.5C 164.215,135.286 163.049,136.786 161.5,138C 158.635,138.183 155.969,138.683 153.5,139.5 Z"/></g>
<g><path style="opacity:0.004" fill="#fefffe" d="M 27.5,132.5 C 28.8333,133.167 28.8333,133.167 27.5,132.5 Z"/></g>
<g><path style="opacity:0.004" fill="#fefffe" d="M 204.5,133.5 C 205.833,134.167 205.833,134.167 204.5,133.5 Z"/></g>
<g><path style="opacity:0.004" fill="#fefffe" d="M 87.5,135.5 C 88.8333,136.167 88.8333,136.167 87.5,135.5 Z"/></g>
<g><path style="opacity:0.004" fill="#fefffe" d="M 111.5,139.5 C 112.833,140.167 112.833,140.167 111.5,139.5 Z"/></g>
<g><path style="opacity:0.004" fill="#fefffe" d="M 33.5,140.5 C 34.8333,141.167 34.8333,141.167 33.5,140.5 Z"/></g>
<g><path style="opacity:0.004" fill="#fefffe" d="M 12.5,141.5 C 13.8333,142.167 13.8333,142.167 12.5,141.5 Z"/></g>
<g><path style="opacity:0.004" fill="#fefffe" d="M 15.5,141.5 C 16.8333,142.167 16.8333,142.167 15.5,141.5 Z"/></g>
<g><path style="opacity:0.004" fill="#fefffe" d="M 138.5,142.5 C 139.833,143.167 139.833,143.167 138.5,142.5 Z"/></g>
<g><path style="opacity:0.004" fill="#fefffe" d="M 117.5,150.5 C 118.833,151.167 118.833,151.167 117.5,150.5 Z"/></g>
<g><path style="opacity:0.996" fill="#79b7fc" d="M 151.5,146.5 C 157.354,147.772 163.354,148.938 169.5,150C 169.833,150.333 170.167,150.667 170.5,151C 169.167,151.333 167.833,151.667 166.5,152C 168.833,152.333 171.167,152.667 173.5,153C 172.62,154.356 172.286,155.856 172.5,157.5C 173.675,157.281 174.675,157.614 175.5,158.5C 173.773,160.706 171.773,161.039 169.5,159.5C 166.743,158.488 164.076,157.488 161.5,156.5C 159.114,155.08 156.447,154.08 153.5,153.5C 152.965,151.729 152.131,151.396 151,152.5C 149.212,150.977 149.045,149.31 150.5,147.5C 150.5,146.833 150.833,146.5 151.5,146.5 Z"/></g>
<g><path style="opacity:0.004" fill="#fefffe" d="M 12.5,156.5 C 13.8333,157.167 13.8333,157.167 12.5,156.5 Z"/></g>
<g><path style="opacity:1" fill="#7cb6f7" d="M 151.5,146.5 C 173.007,145.397 185.341,155.397 188.5,176.5C 188.102,187.978 183.102,196.645 173.5,202.5C 172.069,201.918 170.736,201.085 169.5,200C 170.833,199.667 172.167,199.333 173.5,199C 172.044,198.577 171.544,197.744 172,196.5C 173.135,196.273 174.302,195.94 175.5,195.5C 174.91,194.201 173.91,193.368 172.5,193C 173.823,192.184 174.489,191.017 174.5,189.5C 180.512,178.217 178.846,168.217 169.5,159.5C 171.773,161.039 173.773,160.706 175.5,158.5C 174.675,157.614 173.675,157.281 172.5,157.5C 172.286,155.856 172.62,154.356 173.5,153C 171.167,152.667 168.833,152.333 166.5,152C 167.833,151.667 169.167,151.333 170.5,151C 170.167,150.667 169.833,150.333 169.5,150C 163.354,148.938 157.354,147.772 151.5,146.5 Z"/></g>
<g><path style="opacity:0.004" fill="#fefffe" d="M 30.5,172.5 C 31.8333,173.167 31.8333,173.167 30.5,172.5 Z"/></g>
<g><path style="opacity:0.991" fill="#7bb6f8" d="M 150.5,147.5 C 149.045,149.31 149.212,150.977 151,152.5C 152.131,151.396 152.965,151.729 153.5,153.5C 156.447,154.08 159.114,155.08 161.5,156.5C 142.291,157.273 134.958,166.94 139.5,185.5C 138.504,185.414 137.671,185.748 137,186.5C 136.187,188.436 135.687,190.436 135.5,192.5C 134.5,192.5 133.5,192.5 132.5,192.5C 132.759,190.011 131.759,188.344 129.5,187.5C 128.766,186.122 128.099,184.622 127.5,183C 120.726,182.922 114.059,182.255 107.5,181C 105.15,178.627 104.983,176.127 107,173.5C 113.688,171.973 120.521,170.973 127.5,170.5C 130.888,158.446 138.554,150.779 150.5,147.5 Z"/></g>
<g><path style="opacity:1" fill="#2d88f1" d="M 68.5,165.5 C 75.7187,170.307 83.7187,172.64 92.5,172.5C 95.5998,176.502 94.9331,179.669 90.5,182C 76.8055,183.15 65.8055,178.317 57.5,167.5C 60.4123,169.066 63.079,171.066 65.5,173.5C 67.9289,172.145 69.2623,170.478 69.5,168.5C 68.8728,167.583 68.5394,166.583 68.5,165.5 Z"/></g>
<g><path style="opacity:0.997" fill="#82b3ed" d="M 147.5,171.5 C 153.456,172.087 155.289,175.087 153,180.5C 148.487,183.164 145.654,181.831 144.5,176.5C 144.323,174.032 145.323,172.365 147.5,171.5 Z"/></g>
<g><path style="opacity:1" fill="#7db3f1" d="M 164.5,171.5 C 170.833,172.335 172.5,175.501 169.5,181C 164.153,182.616 161.32,180.783 161,175.5C 161.69,173.65 162.856,172.316 164.5,171.5 Z"/></g>
<g><path style="opacity:0.004" fill="#fefffe" d="M 204.5,176.5 C 205.833,177.167 205.833,177.167 204.5,176.5 Z"/></g>
<g><path style="opacity:0.004" fill="#fefffe" d="M 78.5,191.5 C 79.8333,192.167 79.8333,192.167 78.5,191.5 Z"/></g>
<g><path style="opacity:1" fill="#7cb7f8" d="M 139.5,185.5 C 143.967,194.232 150.967,197.898 160.5,196.5C 162.803,197.231 165.136,197.564 167.5,197.5C 164.44,199.272 161.94,201.605 160,204.5C 159.085,203.672 158.419,202.672 158,201.5C 156.37,203.483 154.37,204.816 152,205.5C 149.296,204.278 146.462,203.278 143.5,202.5C 142.496,199.175 141.162,198.841 139.5,201.5C 134.697,197.899 131.364,193.232 129.5,187.5C 131.759,188.344 132.759,190.011 132.5,192.5C 133.5,192.5 134.5,192.5 135.5,192.5C 135.687,190.436 136.187,188.436 137,186.5C 137.671,185.748 138.504,185.414 139.5,185.5 Z"/></g>
<g><path style="opacity:0.004" fill="#fefffe" d="M 27.5,195.5 C 28.8333,196.167 28.8333,196.167 27.5,195.5 Z"/></g>
<g><path style="opacity:1" fill="#7db7f5" d="M 174.5,189.5 C 174.489,191.017 173.823,192.184 172.5,193C 173.91,193.368 174.91,194.201 175.5,195.5C 174.302,195.94 173.135,196.273 172,196.5C 171.544,197.744 172.044,198.577 173.5,199C 172.167,199.333 170.833,199.667 169.5,200C 170.736,201.085 172.069,201.918 173.5,202.5C 162.03,209.357 150.697,209.024 139.5,201.5C 141.162,198.841 142.496,199.175 143.5,202.5C 146.462,203.278 149.296,204.278 152,205.5C 154.37,204.816 156.37,203.483 158,201.5C 158.419,202.672 159.085,203.672 160,204.5C 161.94,201.605 164.44,199.272 167.5,197.5C 165.136,197.564 162.803,197.231 160.5,196.5C 165.981,195.76 170.648,193.426 174.5,189.5 Z"/></g>
<g><path style="opacity:0.004" fill="#fefffe" d="M 198.5,197.5 C 199.833,198.167 199.833,198.167 198.5,197.5 Z"/></g>
</svg>
