<?xml version="1.0" encoding="UTF-8" standalone="no"?>
<svg
   viewBox="0 0 24 24"
   id="readme"
   version="1.1"
   sodipodi:docname="file_type_readme.svg"
   inkscape:version="1.4 (e7c3feb100, 2024-10-09)"
   xmlns:inkscape="http://www.inkscape.org/namespaces/inkscape"
   xmlns:sodipodi="http://sodipodi.sourceforge.net/DTD/sodipodi-0.dtd"
   xmlns="http://www.w3.org/2000/svg"
   xmlns:svg="http://www.w3.org/2000/svg">
  <defs
     id="defs1" />
  <sodipodi:namedview
     id="namedview1"
     pagecolor="#505050"
     bordercolor="#eeeeee"
     borderopacity="1"
     inkscape:showpageshadow="0"
     inkscape:pageopacity="0"
     inkscape:pagecheckerboard="0"
     inkscape:deskcolor="#505050"
     inkscape:zoom="2.9941553"
     inkscape:cx="114.55652"
     inkscape:cy="114.72351"
     inkscape:window-width="1920"
     inkscape:window-height="1020"
     inkscape:window-x="0"
     inkscape:window-y="28"
     inkscape:window-maximized="1"
     inkscape:current-layer="readme" />
  <path
     fill="#197FC4"
     d="M24 15.524V5.26a2.007 2.007 0 0 0-1.987-2.01h-5.827a4.286 4.286 0 0 0-4.183 3.354A4.29 4.29 0 0 0 7.82 3.25H2c-1.104 0-2 .898-2 2.005v10.269c0 1.107.896 2.005 2 2.005h3.738c4.258 0 5.529 1.02 6.137 3.133.029.117.217.117.25 0 .613-2.114 1.884-3.133 6.138-3.133H22c1.104 0 2-.898 2-2.005zm-13.913-1.187h-.004a.145.145 0 0 1-.146.146H3.258a.145.145 0 0 1-.146-.146v-.957c0-.079.062-.146.146-.146h6.683c.079 0 .146.062.146.146v.957zm0-2.544h-.004a.145.145 0 0 1-.146.146H3.258a.145.145 0 0 1-.146-.146v-.956c0-.079.062-.146.146-.146h6.683c.079 0 .146.062.146.146v.956zm0-2.544h-.004a.145.145 0 0 1-.146.146H3.258a.145.145 0 0 1-.146-.146v-.957c0-.079.062-.146.146-.146h6.683c.079 0 .146.062.146.146v.957zm10.803 5.084h-.004a.145.145 0 0 1-.146.146h-6.679a.145.145 0 0 1-.146-.146v-.956c0-.079.062-.146.146-.146h6.683c.079 0 .146.062.146.146v.956zm0-2.544h-.004a.145.145 0 0 1-.146.146h-6.679a.145.145 0 0 1-.146-.146v-.956c0-.079.062-.146.146-.146h6.683c.079 0 .146.062.146.146v.956zm0-2.545h-.004a.145.145 0 0 1-.146.146h-6.679a.145.145 0 0 1-.146-.146v-.952c0-.079.062-.146.146-.146h6.683c.079 0 .146.062.146.146v.952z"
     id="path1" />
</svg>
