<?xml version="1.0" encoding="UTF-8"?>
<!DOCTYPE svg PUBLIC "-//W3C//DTD SVG 1.1//EN" "http://www.w3.org/Graphics/SVG/1.1/DTD/svg11.dtd">
<svg xmlns="http://www.w3.org/2000/svg" version="1.1" width="1738px" height="886px" style="shape-rendering:geometricPrecision; text-rendering:geometricPrecision; image-rendering:optimizeQuality; fill-rule:evenodd; clip-rule:evenodd" xmlns:xlink="http://www.w3.org/1999/xlink">
<g><path style="opacity:0.99" fill="#16d9df" d="M 1059.5,-0.5 C 1064.83,-0.5 1070.17,-0.5 1075.5,-0.5C 1116.83,6.00362 1148,27.337 1169,63.5C 1175.54,76.1078 1179.87,89.4411 1182,103.5C 1183.49,300.815 1183.99,498.149 1183.5,695.5C 1126.53,693.451 1087.37,666.117 1066,613.5C 1064.02,606.913 1062.35,600.246 1061,593.5C 1059.51,395.522 1059.01,197.522 1059.5,-0.5 Z"/></g>
<g><path style="opacity:0.993" fill="#17d9df" d="M -0.5,596.5 C -0.5,595.833 -0.5,595.167 -0.5,594.5C 34.9777,574.259 70.6444,554.259 106.5,534.5C 123.094,577.035 154.428,597.701 200.5,596.5C 212.338,596.288 224.005,594.788 235.5,592C 259.242,585.005 268.409,569.505 263,545.5C 259.167,537.667 253.333,531.833 245.5,528C 232.842,521.838 219.842,516.504 206.5,512C 172.249,503.138 138.582,492.472 105.5,480C 35.1795,447.86 8.0128,393.693 24,317.5C 34.9353,279.233 57.7686,250.399 92.5,231C 136.893,208.038 183.893,200.038 233.5,207C 299.441,216.271 349.108,249.438 382.5,306.5C 347.731,325.634 312.898,344.634 278,363.5C 277.228,363.355 276.561,363.022 276,362.5C 257.653,326.293 228.153,310.96 187.5,316.5C 172.434,318.112 160.268,324.778 151,336.5C 142.355,353.752 145.855,367.919 161.5,379C 176.782,387.305 192.782,393.972 209.5,399C 242.792,406.986 275.459,416.986 307.5,429C 341.135,443.634 365.968,467.468 382,500.5C 391.904,529.187 394.237,558.52 389,588.5C 380.259,629.571 357.425,660.071 320.5,680C 282.905,700.187 242.739,709.687 200,708.5C 151.676,710.211 106.842,698.711 65.5,674C 47.7504,662.251 32.5837,647.751 20,630.5C 12.5083,619.521 5.67501,608.187 -0.5,596.5 Z"/></g>
<g><path style="opacity:0.992" fill="#17d9df" d="M 953.5,885.5 C 948.167,885.5 942.833,885.5 937.5,885.5C 885.031,876.872 850.531,847.206 834,796.5C 832.018,788.609 830.685,780.609 830,772.5C 829.667,662.833 829.333,553.167 829,443.5C 821.72,393.742 795.22,358.576 749.5,338C 700.725,320.518 656.391,328.184 616.5,361C 578.462,397.797 565.962,441.964 579,493.5C 595.966,542.466 629.799,572.299 680.5,583C 712.198,587.969 741.698,582.135 769,565.5C 769.833,610.17 769.667,654.837 768.5,699.5C 669.401,723.07 584.567,698.403 514,625.5C 458.246,560.157 438.912,485.157 456,400.5C 477.701,315.56 528.868,256.06 609.5,222C 693.788,191.994 773.121,201.66 847.5,251C 911.093,297.992 946.26,361.159 953,440.5C 953.5,588.833 953.667,737.166 953.5,885.5 Z"/></g>
<g><path style="opacity:0.994" fill="#17d9df" d="M 1737.5,583.5 C 1737.5,584.167 1737.5,584.833 1737.5,585.5C 1693.08,658.922 1627.74,699.755 1541.5,708C 1447.9,714.103 1372.74,680.269 1316,606.5C 1279.43,553.555 1264.43,494.888 1271,430.5C 1280.15,345.661 1320.98,281.161 1393.5,237C 1444.55,209.656 1498.89,199.656 1556.5,207C 1629.13,217.206 1685.97,252.372 1727,312.5C 1729.97,317.602 1732.8,322.769 1735.5,328C 1700.58,349.403 1665.24,370.236 1629.5,390.5C 1603.82,346.152 1565.16,324.985 1513.5,327C 1468.79,329.597 1434.62,349.763 1411,387.5C 1390.96,426.651 1388.29,466.985 1403,508.5C 1429.56,564.624 1474.06,590.124 1536.5,585C 1569.54,581.732 1596.71,567.565 1618,542.5C 1622.5,536.165 1626.5,529.498 1630,522.5C 1665.81,542.984 1701.64,563.317 1737.5,583.5 Z"/></g>
</svg>
