<?xml version="1.0" encoding="UTF-8"?>
<!DOCTYPE svg PUBLIC "-//W3C//DTD SVG 1.1//EN" "http://www.w3.org/Graphics/SVG/1.1/DTD/svg11.dtd">
<svg xmlns="http://www.w3.org/2000/svg" version="1.1" width="577px" height="433px" style="shape-rendering:geometricPrecision; text-rendering:geometricPrecision; image-rendering:optimizeQuality; fill-rule:evenodd; clip-rule:evenodd" xmlns:xlink="http://www.w3.org/1999/xlink">
<g><path style="opacity:0.004" fill="#fefffe" d="M 89.5,-0.5 C 89.8333,-0.5 90.1667,-0.5 90.5,-0.5C 90.3147,0.170143 89.9813,0.170143 89.5,-0.5 Z"/></g>
<g><path style="opacity:0.004" fill="#fefffe" d="M 279.5,2.5 C 280.833,3.16667 280.833,3.16667 279.5,2.5 Z"/></g>
<g><path style="opacity:0.004" fill="#fefffe" d="M 117.5,6.5 C 118.833,7.16667 118.833,7.16667 117.5,6.5 Z"/></g>
<g><path style="opacity:0.004" fill="#fefffe" d="M 386.5,6.5 C 387.833,7.16667 387.833,7.16667 386.5,6.5 Z"/></g>
<g><path style="opacity:0.004" fill="#fefffe" d="M 26.5,7.5 C 27.8333,8.16667 27.8333,8.16667 26.5,7.5 Z"/></g>
<g><path style="opacity:0.004" fill="#fefffe" d="M 60.5,9.5 C 61.8333,10.1667 61.8333,10.1667 60.5,9.5 Z"/></g>
<g><path style="opacity:0.004" fill="#fefffe" d="M 400.5,9.5 C 401.833,10.1667 401.833,10.1667 400.5,9.5 Z"/></g>
<g><path style="opacity:0.004" fill="#fefffe" d="M 574.5,9.5 C 575.833,10.1667 575.833,10.1667 574.5,9.5 Z"/></g>
<g><path style="opacity:0.004" fill="#fefffe" d="M 387.5,11.5 C 388.833,12.1667 388.833,12.1667 387.5,11.5 Z"/></g>
<g><path style="opacity:0.004" fill="#fefffe" d="M 37.5,12.5 C 38.8333,13.1667 38.8333,13.1667 37.5,12.5 Z"/></g>
<g><path style="opacity:0.004" fill="#fefffe" d="M 433.5,13.5 C 434.833,14.1667 434.833,14.1667 433.5,13.5 Z"/></g>
<g><path style="opacity:0.004" fill="#fefffe" d="M 322.5,14.5 C 323.833,15.1667 323.833,15.1667 322.5,14.5 Z"/></g>
<g><path style="opacity:0.004" fill="#fefffe" d="M 198.5,24.5 C 199.833,25.1667 199.833,25.1667 198.5,24.5 Z"/></g>
<g><path style="opacity:0.004" fill="#fefffe" d="M 84.5,27.5 C 85.8333,28.1667 85.8333,28.1667 84.5,27.5 Z"/></g>
<g><path style="opacity:0.004" fill="#fefffe" d="M 196.5,30.5 C 197.833,31.1667 197.833,31.1667 196.5,30.5 Z"/></g>
<g><path style="opacity:0.004" fill="#fefffe" d="M 455.5,34.5 C 456.833,35.1667 456.833,35.1667 455.5,34.5 Z"/></g>
<g><path style="opacity:0.953" fill="#eef1f3" d="M 330.5,34.5 C 323.431,38.2272 315.764,40.0605 307.5,40C 297.378,42.729 287.712,46.5623 278.5,51.5C 277.416,52.6651 276.583,53.9984 276,55.5C 274.989,54.6634 273.822,54.33 272.5,54.5C 284.726,45.6893 298.393,39.8559 313.5,37C 319.111,35.7313 324.778,34.898 330.5,34.5 Z"/></g>
<g><path style="opacity:1" fill="#e5eaee" d="M 330.5,34.5 C 375.767,30.5071 414.601,44.1737 447,75.5C 466.564,99.1719 476.897,126.505 478,157.5C 478.5,168.495 478.667,179.495 478.5,190.5C 477.85,190.804 477.183,191.137 476.5,191.5C 475.503,199.138 475.169,206.804 475.5,214.5C 480.847,215.073 486.18,215.74 491.5,216.5C 509.217,220.673 523.051,230.34 533,245.5C 541.24,259.219 546.073,274.052 547.5,290C 547.384,296.238 546.051,302.072 543.5,307.5C 544.766,302.071 545.766,296.571 546.5,291C 546.167,289.833 545.833,288.667 545.5,287.5C 522.644,302.212 497.977,306.379 471.5,300C 468.28,298.223 464.947,296.723 461.5,295.5C 453.833,300.337 446.5,305.671 439.5,311.5C 425.835,319.647 411.168,325.48 395.5,329C 373.771,330.974 352.438,329.141 331.5,323.5C 324.23,320.78 317.396,317.113 311,312.5C 296.9,322.791 281.067,328.457 263.5,329.5C 254.148,329.566 244.815,329.232 235.5,328.5C 213.562,325.943 194.562,317.276 178.5,302.5C 178.586,301.504 178.252,300.671 177.5,300C 163.504,299.5 149.504,299.333 135.5,299.5C 117.725,299.248 100.059,297.748 82.5,295C 69.7362,291.615 57.4028,287.115 45.5,281.5C 41.4105,278.917 37.7438,275.75 34.5,272C 33.552,271.517 32.552,271.351 31.5,271.5C 31.7373,272.791 31.404,273.791 30.5,274.5C 35.1384,248.861 49.8051,231.861 74.5,223.5C 78.0927,223.359 81.5927,222.692 85,221.5C 89.6903,223.365 94.5237,223.865 99.5,223C 94.2704,221.898 94.2704,221.065 99.5,220.5C 105.474,219.692 111.474,219.359 117.5,219.5C 117.67,220.822 117.337,221.989 116.5,223C 118.641,222.914 120.974,223.081 123.5,223.5C 123.5,222.167 123.5,220.833 123.5,219.5C 120.348,220.041 117.848,219.041 116,216.5C 115.172,212.129 115.339,207.795 116.5,203.5C 119.927,199.243 120.261,194.743 117.5,190C 118.078,188.189 118.578,186.355 119,184.5C 120.734,183.751 122.567,183.251 124.5,183C 123.643,182.311 122.977,181.478 122.5,180.5C 124.372,174.686 128.039,170.686 133.5,168.5C 134.098,167.205 134.598,165.872 135,164.5C 135.414,164.957 135.914,165.291 136.5,165.5C 137.466,163.604 137.799,161.604 137.5,159.5C 139.484,159.617 141.15,158.95 142.5,157.5C 141.284,156.904 139.951,156.737 138.5,157C 139.629,154.832 141.129,154.332 143,155.5C 145.952,154.118 148.785,152.451 151.5,150.5C 149.989,148.162 150.323,147.496 152.5,148.5C 153.5,148.167 154.167,147.5 154.5,146.5C 149.361,145.803 149.195,144.47 154,142.5C 154.388,143.428 155.055,144.095 156,144.5C 158.478,143.755 160.978,143.089 163.5,142.5C 165.87,140.473 168.537,138.806 171.5,137.5C 172.672,137.919 173.672,138.585 174.5,139.5C 175.739,137.993 175.405,136.826 173.5,136C 175.383,134.22 177.383,134.053 179.5,135.5C 184.671,133.569 190.005,133.069 195.5,134C 192.833,134.333 190.167,134.667 187.5,135C 195.689,135.013 203.689,135.847 211.5,137.5C 212.833,137.167 214.167,136.833 215.5,136.5C 215.291,135.914 214.957,135.414 214.5,135C 218.185,128.128 221.185,120.961 223.5,113.5C 231.824,94.6697 243.491,78.1697 258.5,64C 262.705,60.0708 267.372,56.9041 272.5,54.5C 273.822,54.33 274.989,54.6634 276,55.5C 276.583,53.9984 277.416,52.6651 278.5,51.5C 287.712,46.5623 297.378,42.729 307.5,40C 315.764,40.0605 323.431,38.2272 330.5,34.5 Z"/></g>
<g><path style="opacity:0.004" fill="#fefffe" d="M 521.5,46.5 C 522.833,47.1667 522.833,47.1667 521.5,46.5 Z"/></g>
<g><path style="opacity:0.004" fill="#fefffe" d="M 177.5,49.5 C 178.833,50.1667 178.833,50.1667 177.5,49.5 Z"/></g>
<g><path style="opacity:0.004" fill="#fefffe" d="M 199.5,62.5 C 200.833,63.1667 200.833,63.1667 199.5,62.5 Z"/></g>
<g><path style="opacity:0.004" fill="#fefffe" d="M 438.5,62.5 C 439.833,63.1667 439.833,63.1667 438.5,62.5 Z"/></g>
<g><path style="opacity:0.004" fill="#fefffe" d="M 471.5,74.5 C 472.833,75.1667 472.833,75.1667 471.5,74.5 Z"/></g>
<g><path style="opacity:0.004" fill="#fefffe" d="M 535.5,79.5 C 536.833,80.1667 536.833,80.1667 535.5,79.5 Z"/></g>
<g><path style="opacity:0.004" fill="#fefffe" d="M 463.5,91.5 C 464.833,92.1667 464.833,92.1667 463.5,91.5 Z"/></g>
<g><path style="opacity:0.004" fill="#fefffe" d="M 466.5,94.5 C 467.833,95.1667 467.833,95.1667 466.5,94.5 Z"/></g>
<g><path style="opacity:0.004" fill="#fefffe" d="M 180.5,96.5 C 181.833,97.1667 181.833,97.1667 180.5,96.5 Z"/></g>
<g><path style="opacity:0.004" fill="#fefffe" d="M 114.5,105.5 C 115.833,106.167 115.833,106.167 114.5,105.5 Z"/></g>
<g><path style="opacity:0.004" fill="#fefffe" d="M 19.5,111.5 C 20.8333,112.167 20.8333,112.167 19.5,111.5 Z"/></g>
<g><path style="opacity:0.004" fill="#fefffe" d="M 49.5,123.5 C 50.8333,124.167 50.8333,124.167 49.5,123.5 Z"/></g>
<g><path style="opacity:0.004" fill="#fefffe" d="M 482.5,126.5 C 483.833,127.167 483.833,127.167 482.5,126.5 Z"/></g>
<g><path style="opacity:0.004" fill="#fefffe" d="M 562.5,141.5 C 563.833,142.167 563.833,142.167 562.5,141.5 Z"/></g>
<g><path style="opacity:0.986" fill="#e9ecef" d="M 223.5,113.5 C 221.185,120.961 218.185,128.128 214.5,135C 214.957,135.414 215.291,135.914 215.5,136.5C 214.167,136.833 212.833,137.167 211.5,137.5C 203.689,135.847 195.689,135.013 187.5,135C 190.167,134.667 192.833,134.333 195.5,134C 190.005,133.069 184.671,133.569 179.5,135.5C 177.383,134.053 175.383,134.22 173.5,136C 175.405,136.826 175.739,137.993 174.5,139.5C 173.672,138.585 172.672,137.919 171.5,137.5C 168.537,138.806 165.87,140.473 163.5,142.5C 160.978,143.089 158.478,143.755 156,144.5C 155.055,144.095 154.388,143.428 154,142.5C 149.195,144.47 149.361,145.803 154.5,146.5C 154.167,147.5 153.5,148.167 152.5,148.5C 150.323,147.496 149.989,148.162 151.5,150.5C 148.785,152.451 145.952,154.118 143,155.5C 141.129,154.332 139.629,154.832 138.5,157C 139.951,156.737 141.284,156.904 142.5,157.5C 141.15,158.95 139.484,159.617 137.5,159.5C 137.799,161.604 137.466,163.604 136.5,165.5C 135.914,165.291 135.414,164.957 135,164.5C 134.598,165.872 134.098,167.205 133.5,168.5C 128.039,170.686 124.372,174.686 122.5,180.5C 122.977,181.478 123.643,182.311 124.5,183C 122.567,183.251 120.734,183.751 119,184.5C 118.578,186.355 118.078,188.189 117.5,190C 120.261,194.743 119.927,199.243 116.5,203.5C 115.339,207.795 115.172,212.129 116,216.5C 117.848,219.041 120.348,220.041 123.5,219.5C 123.5,220.833 123.5,222.167 123.5,223.5C 120.974,223.081 118.641,222.914 116.5,223C 117.337,221.989 117.67,220.822 117.5,219.5C 111.474,219.359 105.474,219.692 99.5,220.5C 94.2704,221.065 94.2704,221.898 99.5,223C 94.5237,223.865 89.6903,223.365 85,221.5C 81.5927,222.692 78.0927,223.359 74.5,223.5C 76.2774,222.4 78.2774,221.566 80.5,221C 88.799,219.761 97.1323,218.761 105.5,218C 108.119,217.849 110.453,217.015 112.5,215.5C 113.103,178.412 130.103,151.912 163.5,136C 179.672,129.383 196.005,128.883 212.5,134.5C 216.449,127.599 220.116,120.599 223.5,113.5 Z"/></g>
<g><path style="opacity:0.004" fill="#fefffe" d="M 41.5,173.5 C 42.8333,174.167 42.8333,174.167 41.5,173.5 Z"/></g>
<g><path style="opacity:0.004" fill="#fefffe" d="M 23.5,186.5 C 24.8333,187.167 24.8333,187.167 23.5,186.5 Z"/></g>
<g><path style="opacity:0.851" fill="#f0f2f4" d="M 478.5,190.5 C 477.739,197.817 477.072,205.15 476.5,212.5C 481.809,213.076 486.809,214.409 491.5,216.5C 486.18,215.74 480.847,215.073 475.5,214.5C 475.169,206.804 475.503,199.138 476.5,191.5C 477.183,191.137 477.85,190.804 478.5,190.5 Z"/></g>
<g><path style="opacity:0.004" fill="#fefffe" d="M 17.5,264.5 C 18.8333,265.167 18.8333,265.167 17.5,264.5 Z"/></g>
<g><path style="opacity:1" fill="#bacdd2" d="M 45.5,281.5 C 57.4028,287.115 69.7362,291.615 82.5,295C 100.059,297.748 117.725,299.248 135.5,299.5C 148.994,300.331 162.661,300.831 176.5,301C 177.044,301.717 177.711,302.217 178.5,302.5C 194.562,317.276 213.562,325.943 235.5,328.5C 240.748,330.022 246.248,330.689 252,330.5C 256.015,330.499 259.849,330.165 263.5,329.5C 281.067,328.457 296.9,322.791 311,312.5C 317.396,317.113 324.23,320.78 331.5,323.5C 334.402,326.61 338.068,328.11 342.5,328C 343.328,328.915 344.328,329.581 345.5,330C 343.405,330.556 343.238,331.056 345,331.5C 346.889,330.07 349.055,329.403 351.5,329.5C 359.879,330.304 368.212,331.304 376.5,332.5C 381.925,331.259 387.425,331.259 393,332.5C 393.945,332.095 394.612,331.428 395,330.5C 395.725,331.059 396.558,331.392 397.5,331.5C 405.828,329.17 413.828,326.003 421.5,322C 423.764,321.764 425.931,321.264 428,320.5C 428.333,320.833 428.667,321.167 429,321.5C 431.462,317.547 434.962,314.214 439.5,311.5C 446.5,305.671 453.833,300.337 461.5,295.5C 464.947,296.723 468.28,298.223 471.5,300C 497.977,306.379 522.644,302.212 545.5,287.5C 545.833,288.667 546.167,289.833 546.5,291C 545.766,296.571 544.766,302.071 543.5,307.5C 543.5,307.833 543.5,308.167 543.5,308.5C 542.542,308.953 541.708,309.619 541,310.5C 540.667,309.167 540.333,307.833 540,306.5C 539.727,308.101 539.227,309.601 538.5,311C 539.526,313.464 538.692,315.298 536,316.5C 535.517,317.448 535.351,318.448 535.5,319.5C 534.178,319.33 533.011,319.663 532,320.5C 531.505,322.473 531.338,324.473 531.5,326.5C 528.959,330.707 525.292,333.373 520.5,334.5C 516.526,335.805 512.526,337.139 508.5,338.5C 507.167,338.167 505.833,337.833 504.5,337.5C 502.458,339.713 500.125,340.38 497.5,339.5C 494.555,341.698 491.388,342.365 488,341.5C 485.101,343.367 481.935,344.867 478.5,346C 476.765,346.651 475.098,346.485 473.5,345.5C 471.115,346.661 468.781,347.661 466.5,348.5C 465.013,352.145 463.513,355.812 462,359.5C 460.951,361.618 459.451,363.284 457.5,364.5C 456.778,364.082 456.278,363.416 456,362.5C 454.693,363.772 453.193,364.772 451.5,365.5C 450.948,367.003 450.948,368.669 451.5,370.5C 448.234,370.433 446.734,372.099 447,375.5C 445.187,374.391 444.354,375.058 444.5,377.5C 441.5,377.833 439.833,379.5 439.5,382.5C 437.795,384.192 435.795,385.525 433.5,386.5C 430.881,386.768 428.381,386.435 426,385.5C 424.448,386.966 422.614,387.966 420.5,388.5C 419.289,389.274 419.289,390.107 420.5,391C 419.256,391.456 418.423,390.956 418,389.5C 415.786,391.31 413.452,392.977 411,394.5C 408.576,392.839 406.742,393.339 405.5,396C 402.743,396.782 400.243,396.282 398,394.5C 396.933,395.191 395.766,395.691 394.5,396C 395.756,396.417 396.423,397.25 396.5,398.5C 395.5,398.5 394.5,398.5 393.5,398.5C 383.494,398.666 373.494,398.5 363.5,398C 360.893,397.363 358.56,396.196 356.5,394.5C 355.158,395.902 354.324,395.569 354,393.5C 349.556,394.373 345.223,393.706 341,391.5C 338.901,392.287 336.734,392.62 334.5,392.5C 333.272,390.99 333.272,389.49 334.5,388C 331.823,387.751 329.49,386.751 327.5,385C 328.167,384.667 328.833,384.333 329.5,384C 326.747,384.4 324.08,384.567 321.5,384.5C 318.978,383.238 316.311,382.571 313.5,382.5C 313.047,381.542 312.381,380.708 311.5,380C 312.308,379.692 312.975,379.192 313.5,378.5C 311.776,377.967 310.109,376.801 308.5,375C 308.833,374.667 309.167,374.333 309.5,374C 306.719,373.86 304.553,372.694 303,370.5C 300.443,371.646 299.11,370.646 299,367.5C 298.617,368.056 298.117,368.389 297.5,368.5C 295.104,368.025 292.604,367.692 290,367.5C 289.408,369.039 287.908,370.372 285.5,371.5C 280.886,370.99 276.219,371.49 271.5,373C 273.437,373.122 274.77,373.955 275.5,375.5C 260.605,377.913 245.605,378.913 230.5,378.5C 224.25,378.246 218.25,377.246 212.5,375.5C 210.03,374.751 208.03,373.251 206.5,371C 202.83,370.452 199.163,369.952 195.5,369.5C 195.167,369.5 194.833,369.5 194.5,369.5C 192.792,367.784 191.458,365.784 190.5,363.5C 189.833,363.833 189.167,364.167 188.5,364.5C 183.81,361.318 178.976,358.318 174,355.5C 172.389,353.79 170.889,351.957 169.5,350C 169.833,349.667 170.167,349.333 170.5,349C 168.29,347.261 165.79,346.094 163,345.5C 160.795,345.912 158.462,345.912 156,345.5C 152.82,347.836 149.32,348.502 145.5,347.5C 138.988,349.829 132.488,349.829 126,347.5C 121.915,347.699 117.415,348.032 112.5,348.5C 104.729,346.398 96.7294,344.898 88.5,344C 87.1828,342.233 85.5161,340.899 83.5,340C 79.486,339.163 75.486,338.329 71.5,337.5C 67.9727,337.047 64.9727,335.547 62.5,333C 62.8333,332.667 63.1667,332.333 63.5,332C 61.3716,331.345 59.3716,330.511 57.5,329.5C 57.0919,328.357 56.4252,327.357 55.5,326.5C 53.1092,324.457 50.6092,323.457 48,323.5C 45.9063,321.079 44.2396,318.412 43,315.5C 39.936,314.101 37.936,311.768 37,308.5C 36.6667,308.833 36.3333,309.167 36,309.5C 32.3295,298.463 31.1628,287.13 32.5,275.5C 33.1973,277.385 34.1973,277.718 35.5,276.5C 36.1667,277.5 36.8333,278.5 37.5,279.5C 38.086,279.291 38.586,278.957 39,278.5C 40.5964,281.364 42.7631,282.364 45.5,281.5 Z"/></g>
<g><path style="opacity:1" fill="#cfdbe0" d="M 135.5,299.5 C 149.504,299.333 163.504,299.5 177.5,300C 178.252,300.671 178.586,301.504 178.5,302.5C 177.711,302.217 177.044,301.717 176.5,301C 162.661,300.831 148.994,300.331 135.5,299.5 Z"/></g>
<g><path style="opacity:0.922" fill="#c7d3d7" d="M 45.5,281.5 C 42.7631,282.364 40.5964,281.364 39,278.5C 38.586,278.957 38.086,279.291 37.5,279.5C 36.8333,278.5 36.1667,277.5 35.5,276.5C 34.1973,277.718 33.1973,277.385 32.5,275.5C 31.1628,287.13 32.3295,298.463 36,309.5C 36.3333,309.167 36.6667,308.833 37,308.5C 37.936,311.768 39.936,314.101 43,315.5C 44.2396,318.412 45.9063,321.079 48,323.5C 50.6092,323.457 53.1092,324.457 55.5,326.5C 56.4252,327.357 57.0919,328.357 57.5,329.5C 57.2648,330.097 56.7648,330.43 56,330.5C 54.5936,329.586 53.0936,328.92 51.5,328.5C 49.8784,327.878 48.5451,326.878 47.5,325.5C 46.4154,323.413 44.7488,322.08 42.5,321.5C 30.8819,307.732 26.8819,292.065 30.5,274.5C 31.404,273.791 31.7373,272.791 31.5,271.5C 32.552,271.351 33.552,271.517 34.5,272C 37.7438,275.75 41.4105,278.917 45.5,281.5 Z"/></g>
<g><path style="opacity:0.903" fill="#c8d6d7" d="M 543.5,308.5 C 541.484,315.845 537.484,321.845 531.5,326.5C 531.338,324.473 531.505,322.473 532,320.5C 533.011,319.663 534.178,319.33 535.5,319.5C 535.351,318.448 535.517,317.448 536,316.5C 538.692,315.298 539.526,313.464 538.5,311C 539.227,309.601 539.727,308.101 540,306.5C 540.333,307.833 540.667,309.167 541,310.5C 541.708,309.619 542.542,308.953 543.5,308.5 Z"/></g>
<g><path style="opacity:0.137" fill="#ebf1f3" d="M 42.5,321.5 C 44.7488,322.08 46.4154,323.413 47.5,325.5C 45.2512,324.92 43.5846,323.587 42.5,321.5 Z"/></g>
<g><path style="opacity:0.99" fill="#cdd9db" d="M 51.5,328.5 C 53.0936,328.92 54.5936,329.586 56,330.5C 56.7648,330.43 57.2648,330.097 57.5,329.5C 59.3716,330.511 61.3716,331.345 63.5,332C 63.1667,332.333 62.8333,332.667 62.5,333C 64.9727,335.547 67.9727,337.047 71.5,337.5C 71.3893,338.117 71.056,338.617 70.5,339C 71.7375,339.232 72.7375,339.732 73.5,340.5C 69.8945,340.201 66.5612,339.035 63.5,337C 58.9059,334.882 54.9059,332.048 51.5,328.5 Z"/></g>
<g><path style="opacity:1" fill="#d1dde3" d="M 235.5,328.5 C 244.815,329.232 254.148,329.566 263.5,329.5C 259.849,330.165 256.015,330.499 252,330.5C 246.248,330.689 240.748,330.022 235.5,328.5 Z"/></g>
<g><path style="opacity:1" fill="#bfced3" d="M 439.5,311.5 C 434.962,314.214 431.462,317.547 429,321.5C 428.667,321.167 428.333,320.833 428,320.5C 425.931,321.264 423.764,321.764 421.5,322C 413.828,326.003 405.828,329.17 397.5,331.5C 396.558,331.392 395.725,331.059 395,330.5C 394.612,331.428 393.945,332.095 393,332.5C 387.425,331.259 381.925,331.259 376.5,332.5C 368.212,331.304 359.879,330.304 351.5,329.5C 349.055,329.403 346.889,330.07 345,331.5C 343.238,331.056 343.405,330.556 345.5,330C 344.328,329.581 343.328,328.915 342.5,328C 338.068,328.11 334.402,326.61 331.5,323.5C 352.438,329.141 373.771,330.974 395.5,329C 411.168,325.48 425.835,319.647 439.5,311.5 Z"/></g>
<g><path style="opacity:0.985" fill="#c3d0d4" d="M 520.5,334.5 C 515.945,338.441 510.611,340.774 504.5,341.5C 501.084,341.528 498.084,342.528 495.5,344.5C 495.167,344.5 494.833,344.5 494.5,344.5C 489.23,344.763 484.23,345.763 479.5,347.5C 475.143,347.586 470.81,347.92 466.5,348.5C 468.781,347.661 471.115,346.661 473.5,345.5C 475.098,346.485 476.765,346.651 478.5,346C 481.935,344.867 485.101,343.367 488,341.5C 491.388,342.365 494.555,341.698 497.5,339.5C 500.125,340.38 502.458,339.713 504.5,337.5C 505.833,337.833 507.167,338.167 508.5,338.5C 512.526,337.139 516.526,335.805 520.5,334.5 Z"/></g>
<g><path style="opacity:0.247" fill="#dfe5e7" d="M 504.5,341.5 C 501.785,343.072 498.785,344.072 495.5,344.5C 498.084,342.528 501.084,341.528 504.5,341.5 Z"/></g>
<g><path style="opacity:0.004" fill="#fefffe" d="M 42.5,344.5 C 43.8333,345.167 43.8333,345.167 42.5,344.5 Z"/></g>
<g><path style="opacity:0.949" fill="#c4d0d4" d="M 71.5,337.5 C 75.486,338.329 79.486,339.163 83.5,340C 85.5161,340.899 87.1828,342.233 88.5,344C 96.7294,344.898 104.729,346.398 112.5,348.5C 117.415,348.032 121.915,347.699 126,347.5C 132.488,349.829 138.988,349.829 145.5,347.5C 149.32,348.502 152.82,347.836 156,345.5C 158.462,345.912 160.795,345.912 163,345.5C 165.79,346.094 168.29,347.261 170.5,349C 170.167,349.333 169.833,349.667 169.5,350C 170.889,351.957 172.389,353.79 174,355.5C 178.976,358.318 183.81,361.318 188.5,364.5C 189.167,364.167 189.833,363.833 190.5,363.5C 191.458,365.784 192.792,367.784 194.5,369.5C 183.511,364.675 173.511,358.342 164.5,350.5C 163.947,348.448 162.947,348.115 161.5,349.5C 156.518,350.053 151.518,350.387 146.5,350.5C 133.488,350.537 120.488,350.203 107.5,349.5C 95.3985,348.976 84.0652,345.976 73.5,340.5C 72.7375,339.732 71.7375,339.232 70.5,339C 71.056,338.617 71.3893,338.117 71.5,337.5 Z"/></g>
<g><path style="opacity:0.188" fill="#e7eff2" d="M 494.5,344.5 C 489.77,346.237 484.77,347.237 479.5,347.5C 484.23,345.763 489.23,344.763 494.5,344.5 Z"/></g>
<g><path style="opacity:0.004" fill="#fefffe" d="M 8.5,348.5 C 9.83333,349.167 9.83333,349.167 8.5,348.5 Z"/></g>
<g><path style="opacity:0.004" fill="#f9fbfb" d="M 161.5,349.5 C 162.947,348.115 163.947,348.448 164.5,350.5C 163.609,349.89 162.609,349.557 161.5,349.5 Z"/></g>
<g><path style="opacity:0.092" fill="#dde5e8" d="M 107.5,349.5 C 120.488,350.203 133.488,350.537 146.5,350.5C 141.678,351.166 136.678,351.499 131.5,351.5C 123.282,351.634 115.282,350.967 107.5,349.5 Z"/></g>
<g><path style="opacity:0.004" fill="#fefffe" d="M 489.5,353.5 C 490.833,354.167 490.833,354.167 489.5,353.5 Z"/></g>
<g><path style="opacity:0.004" fill="#fefffe" d="M 11.5,355.5 C 12.8333,356.167 12.8333,356.167 11.5,355.5 Z"/></g>
<g><path style="opacity:0.97" fill="#c9d4d6" d="M 195.5,369.5 C 199.163,369.952 202.83,370.452 206.5,371C 208.03,373.251 210.03,374.751 212.5,375.5C 206.334,374.668 200.667,372.668 195.5,369.5 Z"/></g>
<g><path style="opacity:0.981" fill="#c8d5d7" d="M 297.5,368.5 C 290.439,371.631 283.106,373.964 275.5,375.5C 274.77,373.955 273.437,373.122 271.5,373C 276.219,371.49 280.886,370.99 285.5,371.5C 287.908,370.372 289.408,369.039 290,367.5C 292.604,367.692 295.104,368.025 297.5,368.5 Z"/></g>
<g><path style="opacity:0.96" fill="#c7d3d7" d="M 313.5,382.5 C 309.458,380.638 305.792,378.138 302.5,375C 300.235,373.242 298.568,371.075 297.5,368.5C 298.117,368.389 298.617,368.056 299,367.5C 299.11,370.646 300.443,371.646 303,370.5C 304.553,372.694 306.719,373.86 309.5,374C 309.167,374.333 308.833,374.667 308.5,375C 310.109,376.801 311.776,377.967 313.5,378.5C 312.975,379.192 312.308,379.692 311.5,380C 312.381,380.708 313.047,381.542 313.5,382.5 Z"/></g>
<g><path style="opacity:0.976" fill="#cbd5d9" d="M 457.5,364.5 C 453.188,372.145 447.188,378.145 439.5,382.5C 439.833,379.5 441.5,377.833 444.5,377.5C 444.354,375.058 445.187,374.391 447,375.5C 446.734,372.099 448.234,370.433 451.5,370.5C 450.948,368.669 450.948,367.003 451.5,365.5C 453.193,364.772 454.693,363.772 456,362.5C 456.278,363.416 456.778,364.082 457.5,364.5 Z"/></g>
<g><path style="opacity:0.153" fill="#dae0e5" d="M 275.5,375.5 C 260.669,379.339 245.669,380.339 230.5,378.5C 245.605,378.913 260.605,377.913 275.5,375.5 Z"/></g>
<g><path style="opacity:0.985" fill="#c4d1d5" d="M 313.5,382.5 C 316.311,382.571 318.978,383.238 321.5,384.5C 324.08,384.567 326.747,384.4 329.5,384C 328.833,384.333 328.167,384.667 327.5,385C 329.49,386.751 331.823,387.751 334.5,388C 333.272,389.49 333.272,390.99 334.5,392.5C 326.793,390.478 319.793,387.145 313.5,382.5 Z"/></g>
<g><path style="opacity:0.004" fill="#fefffe" d="M 190.5,388.5 C 191.833,389.167 191.833,389.167 190.5,388.5 Z"/></g>
<g><path style="opacity:0.955" fill="#c9d5d8" d="M 393.5,398.5 C 377.918,400.958 362.251,400.458 346.5,397C 342.285,395.766 338.285,394.266 334.5,392.5C 336.734,392.62 338.901,392.287 341,391.5C 345.223,393.706 349.556,394.373 354,393.5C 354.324,395.569 355.158,395.902 356.5,394.5C 358.56,396.196 360.893,397.363 363.5,398C 373.494,398.5 383.494,398.666 393.5,398.5 Z"/></g>
<g><path style="opacity:0.978" fill="#c9d6d8" d="M 433.5,386.5 C 422.03,392.878 409.696,396.878 396.5,398.5C 396.423,397.25 395.756,396.417 394.5,396C 395.766,395.691 396.933,395.191 398,394.5C 400.243,396.282 402.743,396.782 405.5,396C 406.742,393.339 408.576,392.839 411,394.5C 413.452,392.977 415.786,391.31 418,389.5C 418.423,390.956 419.256,391.456 420.5,391C 419.289,390.107 419.289,389.274 420.5,388.5C 422.614,387.966 424.448,386.966 426,385.5C 428.381,386.435 430.881,386.768 433.5,386.5 Z"/></g>
<g><path style="opacity:0.004" fill="#fefffe" d="M 265.5,412.5 C 266.833,413.167 266.833,413.167 265.5,412.5 Z"/></g>
<g><path style="opacity:0.004" fill="#fefffe" d="M 569.5,417.5 C 570.833,418.167 570.833,418.167 569.5,417.5 Z"/></g>
<g><path style="opacity:0.004" fill="#fefffe" d="M 340.5,418.5 C 341.833,419.167 341.833,419.167 340.5,418.5 Z"/></g>
<g><path style="opacity:0.004" fill="#fefffe" d="M 522.5,422.5 C 523.833,423.167 523.833,423.167 522.5,422.5 Z"/></g>
</svg>
