<?xml version="1.0" encoding="UTF-8"?>
<!DOCTYPE svg PUBLIC "-//W3C//DTD SVG 1.1//EN" "http://www.w3.org/Graphics/SVG/1.1/DTD/svg11.dtd">
<svg xmlns="http://www.w3.org/2000/svg" version="1.1" width="125px" height="128px" style="shape-rendering:geometricPrecision; text-rendering:geometricPrecision; image-rendering:optimizeQuality; fill-rule:evenodd; clip-rule:evenodd" xmlns:xlink="http://www.w3.org/1999/xlink">
<g><path style="opacity:0.004" fill="#feff00" d="M 58.5,-0.5 C 58.8333,-0.5 59.1667,-0.5 59.5,-0.5C 59.3147,0.170143 58.9813,0.170143 58.5,-0.5 Z"/></g>
<g><path style="opacity:0.004" fill="#feff00" d="M 65.5,-0.5 C 65.8333,-0.5 66.1667,-0.5 66.5,-0.5C 66.3147,0.170143 65.9813,0.170143 65.5,-0.5 Z"/></g>
<g><path style="opacity:0.004" fill="#feff00" d="M 11.5,3.5 C 12.8333,4.16667 12.8333,4.16667 11.5,3.5 Z"/></g>
<g><path style="opacity:1" fill="#413c12" d="M 68.5,5.5 C 66.7085,5.63404 65.0418,5.30071 63.5,4.5C 59.8333,5.16667 56.1667,5.83333 52.5,6.5C 56.1419,3.02542 60.4753,1.85875 65.5,3C 66.9423,3.37675 67.9423,4.21009 68.5,5.5 Z"/></g>
<g><path style="opacity:1" fill="#5b531e" d="M 69.5,5.5 C 70.7095,5.93205 71.7095,6.59872 72.5,7.5C 70.8212,7.71481 69.8212,7.04814 69.5,5.5 Z"/></g>
<g><path style="opacity:0.004" fill="#feff00" d="M 83.5,7.5 C 84.8333,8.16667 84.8333,8.16667 83.5,7.5 Z"/></g>
<g><path style="opacity:1" fill="#413a13" d="M 52.5,6.5 C 50.7625,8.89006 48.4292,10.5567 45.5,11.5C 44.8333,11.5 44.1667,11.5 43.5,11.5C 46.2402,9.4405 49.2402,7.77383 52.5,6.5 Z"/></g>
<g><path style="opacity:1" fill="#0e1a27" d="M 63.5,4.5 C 62.3157,5.68787 62.3157,6.85453 63.5,8C 61.0261,8.03669 59.0261,8.87003 57.5,10.5C 54.1047,11.941 50.6047,13.2744 47,14.5C 44.4219,14.3176 43.9219,13.3176 45.5,11.5C 48.4292,10.5567 50.7625,8.89006 52.5,6.5C 56.1667,5.83333 59.8333,5.16667 63.5,4.5 Z"/></g>
<g><path style="opacity:1" fill="#6a6324" d="M 74.5,8.5 C 75.8471,9.17119 77.0138,9.17119 78,8.5C 78.5133,9.52656 79.0133,10.5266 79.5,11.5C 77.0107,11.7593 75.344,10.7593 74.5,8.5 Z"/></g>
<g><path style="opacity:1" fill="#23241e" d="M 63.5,4.5 C 65.0418,5.30071 66.7085,5.63404 68.5,5.5C 68.8333,5.5 69.1667,5.5 69.5,5.5C 69.8212,7.04814 70.8212,7.71481 72.5,7.5C 73.4916,7.32842 74.1583,7.66175 74.5,8.5C 75.344,10.7593 77.0107,11.7593 79.5,11.5C 83.6553,12.7417 87.322,14.7417 90.5,17.5C 89.7354,17.9234 88.9021,18.2568 88,18.5C 84.0611,16.87 80.3945,14.87 77,12.5C 76.1667,12.8333 75.3333,13.1667 74.5,13.5C 75.1925,14.5178 75.8592,15.5178 76.5,16.5C 71.9099,14.8716 67.5765,12.7049 63.5,10C 61.4546,9.50987 59.4546,9.67653 57.5,10.5C 59.0261,8.87003 61.0261,8.03669 63.5,8C 62.3157,6.85453 62.3157,5.68787 63.5,4.5 Z"/></g>
<g><path style="opacity:1" fill="#212314" d="M 57.5,10.5 C 51.8302,14.337 45.8302,17.6704 39.5,20.5C 41.2528,18.7775 43.2528,17.2775 45.5,16C 44.3914,15.3623 43.2247,14.8623 42,14.5C 39.7903,16.1109 37.2903,16.7776 34.5,16.5C 37.0078,14.0764 40.0078,12.4097 43.5,11.5C 44.1667,11.5 44.8333,11.5 45.5,11.5C 43.9219,13.3176 44.4219,14.3176 47,14.5C 50.6047,13.2744 54.1047,11.941 57.5,10.5 Z"/></g>
<g><path style="opacity:0.004" fill="#feff00" d="M 5.5,15.5 C 6.83333,16.1667 6.83333,16.1667 5.5,15.5 Z"/></g>
<g><path style="opacity:1" fill="#e3c009" d="M 76.5,16.5 C 81.5016,20.0031 86.835,23.0031 92.5,25.5C 95.2402,27.5595 98.2402,29.2262 101.5,30.5C 103.23,31.3786 104.563,32.712 105.5,34.5C 103.878,36.641 101.878,38.3076 99.5,39.5C 91.9022,42.9665 84.5689,46.9665 77.5,51.5C 72.7283,53.7204 68.0616,56.2204 63.5,59C 61.4546,59.4901 59.4546,59.3235 57.5,58.5C 46.0314,51.5957 34.3648,44.929 22.5,38.5C 19.8106,37.8106 18.1439,36.144 17.5,33.5C 23.1888,30.1313 28.8555,26.798 34.5,23.5C 36.3684,22.7368 38.0351,21.7368 39.5,20.5C 45.8302,17.6704 51.8302,14.337 57.5,10.5C 59.4546,9.67653 61.4546,9.50987 63.5,10C 67.5765,12.7049 71.9099,14.8716 76.5,16.5 Z"/></g>
<g><path style="opacity:1" fill="#323317" d="M 34.5,16.5 C 33.2562,19.5426 30.9229,20.876 27.5,20.5C 29.3356,18.412 31.6689,17.0787 34.5,16.5 Z"/></g>
<g><path style="opacity:1" fill="#43431b" d="M 90.5,17.5 C 93.9922,18.4097 96.9922,20.0764 99.5,22.5C 96.6887,22.1743 94.022,21.3409 91.5,20C 90.7476,19.3292 90.4142,18.4959 90.5,17.5 Z"/></g>
<g><path style="opacity:1" fill="#3a390f" d="M 27.5,20.5 C 26.3933,22.9689 24.3933,23.9689 21.5,23.5C 23.1815,21.9925 25.1815,20.9925 27.5,20.5 Z"/></g>
<g><path style="opacity:1" fill="#1e220c" d="M 34.5,23.5 C 28.8555,26.798 23.1888,30.1313 17.5,33.5C 17.7118,31.6159 18.7118,30.2826 20.5,29.5C 24.9618,26.9335 29.6284,24.9335 34.5,23.5 Z"/></g>
<g><path style="opacity:1" fill="#433d1c" d="M 99.5,22.5 C 102.992,23.4097 105.992,25.0764 108.5,27.5C 105.689,27.1743 103.022,26.3409 100.5,25C 99.7476,24.3292 99.4142,23.4959 99.5,22.5 Z"/></g>
<g><path style="opacity:0.875" fill="#605515" d="M 21.5,23.5 C 20.5144,25.4077 18.8477,26.4077 16.5,26.5C 17.6594,24.7497 19.326,23.7497 21.5,23.5 Z"/></g>
<g><path style="opacity:1" fill="#212311" d="M 92.5,25.5 C 96.502,25.5288 99.502,27.1954 101.5,30.5C 98.2402,29.2262 95.2402,27.5595 92.5,25.5 Z"/></g>
<g><path style="opacity:0.596" fill="#a49928" d="M 13.5,27.5 C 13.0269,28.9063 12.0269,29.573 10.5,29.5C 10.9731,28.0937 11.9731,27.427 13.5,27.5 Z"/></g>
<g><path style="opacity:0.969" fill="#333310" d="M 16.5,26.5 C 14.5468,29.9781 11.5468,31.6448 7.5,31.5C 7.97306,30.0937 8.97306,29.427 10.5,29.5C 12.0269,29.573 13.0269,28.9063 13.5,27.5C 14.391,26.8902 15.391,26.5569 16.5,26.5 Z"/></g>
<g><path style="opacity:1" fill="#3b3817" d="M 108.5,27.5 C 111.331,28.0787 113.664,29.412 115.5,31.5C 114.883,31.6107 114.383,31.944 114,32.5C 112.829,31.1068 111.329,30.2735 109.5,30C 108.748,29.3292 108.414,28.4959 108.5,27.5 Z"/></g>
<g><path style="opacity:1" fill="#1e2409" d="M 101.5,30.5 C 106.378,30.5349 107.711,32.8682 105.5,37.5C 103.677,38.7472 101.677,39.4139 99.5,39.5C 101.878,38.3076 103.878,36.641 105.5,34.5C 104.563,32.712 103.23,31.3786 101.5,30.5 Z"/></g>
<g><path style="opacity:1" fill="#252509" d="M 7.5,31.5 C 6.38154,51.4757 6.21487,71.4757 7,91.5C 8.02223,93.6642 9.1889,95.6642 10.5,97.5C 6.90736,96.5702 5.2407,94.2368 5.5,90.5C 5.5,72.5 5.5,54.5 5.5,36.5C 5.40206,34.4471 6.06873,32.7804 7.5,31.5 Z"/></g>
<g><path style="opacity:1" fill="#0e1a29" d="M 39.5,20.5 C 38.0351,21.7368 36.3684,22.7368 34.5,23.5C 29.6284,24.9335 24.9618,26.9335 20.5,29.5C 18.7118,30.2826 17.7118,31.6159 17.5,33.5C 18.1439,36.144 19.8106,37.8106 22.5,38.5C 23.1712,39.8471 23.1712,41.0138 22.5,42C 20.8659,42.4935 19.1992,42.6602 17.5,42.5C 15.8067,40.2336 13.6401,39.9003 11,41.5C 10.3333,58.1667 10.3333,74.8333 11,91.5C 11.6708,92.2524 12.5041,92.5858 13.5,92.5C 14.609,92.5569 15.609,92.8902 16.5,93.5C 18.3306,95.7757 20.6639,97.609 23.5,99C 21.6547,100.128 19.6547,100.628 17.5,100.5C 15.8243,98.1663 13.491,97.1663 10.5,97.5C 9.1889,95.6642 8.02223,93.6642 7,91.5C 6.21487,71.4757 6.38154,51.4757 7.5,31.5C 11.5468,31.6448 14.5468,29.9781 16.5,26.5C 18.8477,26.4077 20.5144,25.4077 21.5,23.5C 24.3933,23.9689 26.3933,22.9689 27.5,20.5C 30.9229,20.876 33.2562,19.5426 34.5,16.5C 37.2903,16.7776 39.7903,16.1109 42,14.5C 43.2247,14.8623 44.3914,15.3623 45.5,16C 43.2528,17.2775 41.2528,18.7775 39.5,20.5 Z"/></g>
<g><path style="opacity:1" fill="#202210" d="M 99.5,39.5 C 97.4245,41.7188 95.0912,43.7188 92.5,45.5C 88.512,46.6458 84.8453,48.4792 81.5,51C 80.2068,51.49 78.8734,51.6567 77.5,51.5C 84.5689,46.9665 91.9022,42.9665 99.5,39.5 Z"/></g>
<g><path style="opacity:1" fill="#171d1c" d="M 22.5,38.5 C 34.3648,44.929 46.0314,51.5957 57.5,58.5C 54.7766,57.6481 52.11,56.4814 49.5,55C 48.0563,54.2195 46.723,54.3861 45.5,55.5C 48.9368,56.8715 51.9368,58.8715 54.5,61.5C 53.8333,61.5 53.1667,61.5 52.5,61.5C 43.5069,57.3384 34.8403,52.6718 26.5,47.5C 23.331,46.0834 20.331,44.4168 17.5,42.5C 19.1992,42.6602 20.8659,42.4935 22.5,42C 23.1712,41.0138 23.1712,39.8471 22.5,38.5 Z"/></g>
<g><path style="opacity:1" fill="#0f1929" d="M 26.5,47.5 C 25.657,45.8267 24.3237,44.66 22.5,44C 24.0249,42.9914 25.6916,42.4914 27.5,42.5C 27.5,43.5 27.5,44.5 27.5,45.5C 32.9407,45.2651 37.2741,47.2651 40.5,51.5C 38.7305,52.6265 37.3972,52.1265 36.5,50C 33.2231,48.8566 29.8898,48.0233 26.5,47.5 Z"/></g>
<g><path style="opacity:1" fill="#191c05" d="M 17.5,42.5 C 15.6089,41.4639 13.7755,41.4639 12,42.5C 11.3333,58.5 11.3333,74.5 12,90.5C 12.7172,91.0442 13.2172,91.7109 13.5,92.5C 12.5041,92.5858 11.6708,92.2524 11,91.5C 10.3333,74.8333 10.3333,58.1667 11,41.5C 13.6401,39.9003 15.8067,40.2336 17.5,42.5 Z"/></g>
<g><path style="opacity:0.145" fill="#c8b437" d="M 5.5,36.5 C 5.5,54.5 5.5,72.5 5.5,90.5C 4.79863,87.4371 4.13197,84.2704 3.5,81C 4.15915,66.0688 4.82582,51.2354 5.5,36.5 Z"/></g>
<g><path style="opacity:1" fill="#434012" d="M 115.5,31.5 C 116.966,32.347 117.8,33.6803 118,35.5C 118.667,54.5 118.667,73.5 118,92.5C 117.623,93.9423 116.79,94.9423 115.5,95.5C 116.811,74.1477 116.811,52.8144 115.5,31.5 Z"/></g>
<g><path style="opacity:0.004" fill="#feff00" d="M 1.5,85.5 C 2.83333,86.1667 2.83333,86.1667 1.5,85.5 Z"/></g>
<g><path style="opacity:1" fill="#fad71e" d="M 17.5,42.5 C 20.331,44.4168 23.331,46.0834 26.5,47.5C 34.8403,52.6718 43.5069,57.3384 52.5,61.5C 53.9842,63.0737 55.6508,64.407 57.5,65.5C 57.6666,81.1702 57.4999,96.8369 57,112.5C 55.9887,113.337 54.8221,113.67 53.5,113.5C 50.1667,111.833 46.8333,110.167 43.5,108.5C 34.6962,103.262 25.6962,98.262 16.5,93.5C 15.609,92.8902 14.609,92.5569 13.5,92.5C 13.2172,91.7109 12.7172,91.0442 12,90.5C 11.3333,74.5 11.3333,58.5 12,42.5C 13.7755,41.4639 15.6089,41.4639 17.5,42.5 Z"/></g>
<g><path style="opacity:1" fill="#222013" d="M 36.5,80.5 C 42.1305,80.299 44.9638,82.9656 45,88.5C 42.1865,87.0336 39.3531,85.5336 36.5,84C 35.3157,82.8545 35.3157,81.6879 36.5,80.5 Z"/></g>
<g><path style="opacity:1" fill="#e7d030" d="M 27.5,78.5 C 28.8946,80.0544 29.5613,79.721 29.5,77.5C 28.4169,72.622 25.4169,70.7887 20.5,72C 19.1602,74.1489 19.8269,75.3155 22.5,75.5C 22.8417,76.3382 23.5084,76.6716 24.5,76.5C 25.1667,77.1667 25.8333,77.8333 26.5,78.5C 23.5231,77.9292 20.6897,76.9292 18,75.5C 17.376,73.5355 17.876,71.8689 19.5,70.5C 18.9747,69.8076 18.3081,69.3076 17.5,69C 20.1667,68.3333 22.8333,68.3333 25.5,69C 26.9003,70.4381 28.567,71.2714 30.5,71.5C 30.5,74.5 30.5,77.5 30.5,80.5C 28.8212,80.7148 27.8212,80.0481 27.5,78.5 Z"/></g>
<g><path style="opacity:1" fill="#1a191f" d="M 24.5,76.5 C 23.5084,76.6716 22.8417,76.3382 22.5,75.5C 21.1144,73.2395 21.7811,72.4062 24.5,73C 28.2778,74.6399 28.2778,75.8066 24.5,76.5 Z"/></g>
<g><path style="opacity:1" fill="#312807" d="M 27.5,78.5 C 27.1667,78.5 26.8333,78.5 26.5,78.5C 25.8333,77.8333 25.1667,77.1667 24.5,76.5C 28.2778,75.8066 28.2778,74.6399 24.5,73C 21.7811,72.4062 21.1144,73.2395 22.5,75.5C 19.8269,75.3155 19.1602,74.1489 20.5,72C 25.4169,70.7887 28.4169,72.622 29.5,77.5C 29.5613,79.721 28.8946,80.0544 27.5,78.5 Z"/></g>
<g><path style="opacity:1" fill="#bfb04e" d="M 57.5,65.5 C 58.4964,81.6581 58.8298,97.9915 58.5,114.5C 56.5853,114.784 54.9187,114.451 53.5,113.5C 54.8221,113.67 55.9887,113.337 57,112.5C 57.4999,96.8369 57.6666,81.1702 57.5,65.5 Z"/></g>
<g><path style="opacity:1" fill="#534b1e" d="M 114.5,96.5 C 113.101,97.8897 111.434,98.8897 109.5,99.5C 109.5,98.5 109.5,97.5 109.5,96.5C 111.167,96.5 112.833,96.5 114.5,96.5 Z"/></g>
<g><path style="opacity:1" fill="#4c4718" d="M 10.5,97.5 C 13.491,97.1663 15.8243,98.1663 17.5,100.5C 17.5,100.833 17.5,101.167 17.5,101.5C 14.6689,100.921 12.3356,99.588 10.5,97.5 Z"/></g>
<g><path style="opacity:1" fill="#131c29" d="M 90.5,17.5 C 90.4142,18.4959 90.7476,19.3292 91.5,20C 94.022,21.3409 96.6887,22.1743 99.5,22.5C 99.4142,23.4959 99.7476,24.3292 100.5,25C 103.022,26.3409 105.689,27.1743 108.5,27.5C 108.414,28.4959 108.748,29.3292 109.5,30C 111.329,30.2735 112.829,31.1068 114,32.5C 114.383,31.944 114.883,31.6107 115.5,31.5C 116.811,52.8144 116.811,74.1477 115.5,95.5C 115.5,96.1667 115.167,96.5 114.5,96.5C 112.833,96.5 111.167,96.5 109.5,96.5C 109.5,97.5 109.5,98.5 109.5,99.5C 106.607,99.0311 104.607,100.031 103.5,102.5C 97.7657,104.53 92.099,106.863 86.5,109.5C 84.7118,110.283 83.7118,111.616 83.5,113.5C 81.139,113.674 78.8056,114.007 76.5,114.5C 76.5,115.5 76.5,116.5 76.5,117.5C 71.1539,122.504 64.8206,124.671 57.5,124C 56.5842,123.722 55.9175,123.222 55.5,122.5C 55.0269,121.094 54.0269,120.427 52.5,120.5C 50.1815,120.008 48.1815,119.008 46.5,117.5C 46.1667,116.833 45.8333,116.167 45.5,115.5C 44.2197,113.894 44.7197,112.894 47,112.5C 49.532,114.099 52.1986,115.433 55,116.5C 57.3052,116.516 58.9718,115.516 60,113.5C 60.6667,97.8333 60.6667,82.1667 60,66.5C 59.6905,65.2341 59.1905,64.0674 58.5,63C 56.9419,62.79 55.6085,62.29 54.5,61.5C 51.9368,58.8715 48.9368,56.8715 45.5,55.5C 46.723,54.3861 48.0563,54.2195 49.5,55C 52.11,56.4814 54.7766,57.6481 57.5,58.5C 59.4546,59.3235 61.4546,59.4901 63.5,59C 68.0616,56.2204 72.7283,53.7204 77.5,51.5C 78.8734,51.6567 80.2068,51.49 81.5,51C 84.8453,48.4792 88.512,46.6458 92.5,45.5C 95.0912,43.7188 97.4245,41.7188 99.5,39.5C 101.677,39.4139 103.677,38.7472 105.5,37.5C 107.711,32.8682 106.378,30.5349 101.5,30.5C 99.502,27.1954 96.502,25.5288 92.5,25.5C 86.835,23.0031 81.5016,20.0031 76.5,16.5C 75.8592,15.5178 75.1925,14.5178 74.5,13.5C 75.3333,13.1667 76.1667,12.8333 77,12.5C 80.3945,14.87 84.0611,16.87 88,18.5C 88.9021,18.2568 89.7354,17.9234 90.5,17.5 Z"/></g>
<g><path style="opacity:1" fill="#fafafa" d="M 107.5,41.5 C 108.822,41.33 109.989,41.6634 111,42.5C 111.667,58.5 111.667,74.5 111,90.5C 97.1667,98.3333 83.3333,106.167 69.5,114C 68.1667,114.667 66.8333,114.667 65.5,114C 64.3425,97.9075 64.1758,81.7408 65,65.5C 79.3102,57.5992 93.4768,49.5992 107.5,41.5 Z"/></g>
<g><path style="opacity:1" fill="#4b4718" d="M 109.5,99.5 C 107.819,101.008 105.819,102.008 103.5,102.5C 104.607,100.031 106.607,99.0311 109.5,99.5 Z"/></g>
<g><path style="opacity:0.004" fill="#feff00" d="M 114.5,104.5 C 115.833,105.167 115.833,105.167 114.5,104.5 Z"/></g>
<g><path style="opacity:1" fill="#232617" d="M 16.5,93.5 C 25.6962,98.262 34.6962,103.262 43.5,108.5C 40.7124,108.132 38.0457,107.632 35.5,107C 34.8333,107.333 34.1667,107.667 33.5,108C 34.305,109.113 34.9717,110.279 35.5,111.5C 32.331,110.083 29.331,108.417 26.5,106.5C 23.331,105.083 20.331,103.417 17.5,101.5C 17.5,101.167 17.5,100.833 17.5,100.5C 19.6547,100.628 21.6547,100.128 23.5,99C 20.6639,97.609 18.3306,95.7757 16.5,93.5 Z"/></g>
<g><path style="opacity:1" fill="#111924" d="M 26.5,106.5 C 25.7177,104.549 24.3844,103.049 22.5,102C 24.0249,100.991 25.6916,100.491 27.5,100.5C 27.5,101.5 27.5,102.5 27.5,103.5C 29.9892,103.298 32.3225,103.798 34.5,105C 31.9865,106.252 29.3198,106.752 26.5,106.5 Z"/></g>
<g><path style="opacity:0.984" fill="#403d1b" d="M 103.5,102.5 C 97.1623,106.671 90.4956,110.337 83.5,113.5C 83.7118,111.616 84.7118,110.283 86.5,109.5C 92.099,106.863 97.7657,104.53 103.5,102.5 Z"/></g>
<g><path style="opacity:1" fill="#121927" d="M 43.5,108.5 C 43.5774,109.75 44.244,110.583 45.5,111C 42.1832,111.498 38.8499,111.665 35.5,111.5C 34.9717,110.279 34.305,109.113 33.5,108C 34.1667,107.667 34.8333,107.333 35.5,107C 38.0457,107.632 40.7124,108.132 43.5,108.5 Z"/></g>
<g><path style="opacity:1" fill="#1e2014" d="M 52.5,61.5 C 53.1667,61.5 53.8333,61.5 54.5,61.5C 55.6085,62.29 56.9419,62.79 58.5,63C 59.1905,64.0674 59.6905,65.2341 60,66.5C 60.6667,82.1667 60.6667,97.8333 60,113.5C 58.9718,115.516 57.3052,116.516 55,116.5C 52.1986,115.433 49.532,114.099 47,112.5C 44.7197,112.894 44.2197,113.894 45.5,115.5C 44.8333,115.5 44.1667,115.5 43.5,115.5C 40.5152,114.674 37.8485,113.341 35.5,111.5C 38.8499,111.665 42.1832,111.498 45.5,111C 44.244,110.583 43.5774,109.75 43.5,108.5C 46.8333,110.167 50.1667,111.833 53.5,113.5C 54.9187,114.451 56.5853,114.784 58.5,114.5C 58.8298,97.9915 58.4964,81.6581 57.5,65.5C 55.6508,64.407 53.9842,63.0737 52.5,61.5 Z"/></g>
<g><path style="opacity:0.004" fill="#feff00" d="M 27.5,113.5 C 28.8333,114.167 28.8333,114.167 27.5,113.5 Z"/></g>
<g><path style="opacity:1" fill="#46441b" d="M 83.5,113.5 C 81.6644,115.588 79.3311,116.921 76.5,117.5C 76.5,116.5 76.5,115.5 76.5,114.5C 78.8056,114.007 81.139,113.674 83.5,113.5 Z"/></g>
<g><path style="opacity:0.416" fill="#87802e" d="M 43.5,115.5 C 44.1667,115.5 44.8333,115.5 45.5,115.5C 45.8333,116.167 46.1667,116.833 46.5,117.5C 44.9731,117.573 43.9731,116.906 43.5,115.5 Z"/></g>
<g><path style="opacity:0.004" fill="#feff00" d="M 121.5,118.5 C 122.833,119.167 122.833,119.167 121.5,118.5 Z"/></g>
<g><path style="opacity:0.38" fill="#9a8528" d="M 52.5,120.5 C 54.0269,120.427 55.0269,121.094 55.5,122.5C 53.9731,122.573 52.9731,121.906 52.5,120.5 Z"/></g>
<g><path style="opacity:0.004" fill="#feff00" d="M 78.5,121.5 C 79.8333,122.167 79.8333,122.167 78.5,121.5 Z"/></g>
</svg>
