<?xml version="1.0" encoding="UTF-8"?>
<!DOCTYPE svg PUBLIC "-//W3C//DTD SVG 1.1//EN" "http://www.w3.org/Graphics/SVG/1.1/DTD/svg11.dtd">
<svg xmlns="http://www.w3.org/2000/svg" version="1.1" width="367px" height="458px" style="shape-rendering:geometricPrecision; text-rendering:geometricPrecision; image-rendering:optimizeQuality; fill-rule:evenodd; clip-rule:evenodd" xmlns:xlink="http://www.w3.org/1999/xlink">
<g><path style="opacity:0.93" fill="#7a7c88" d="M 255.5,102.5 C 250.359,102.938 245.025,102.938 239.5,102.5C 241.189,85.9629 238.356,70.2963 231,55.5C 219.615,43.5247 205.781,39.3581 189.5,43C 169.154,47.8453 156.154,60.3453 150.5,80.5C 145.056,79.139 139.723,77.8057 134.5,76.5C 147.081,39.1188 173.081,22.6188 212.5,27C 236.752,32.5878 250.585,47.7545 254,72.5C 255.256,82.4593 255.756,92.4593 255.5,102.5 Z"/></g>
<g><path style="opacity:0.931" fill="#000000" d="M 134.5,76.5 C 139.723,77.8057 145.056,79.139 150.5,80.5C 154.313,81.1596 157.979,82.3262 161.5,84C 167.589,91.0531 166.255,96.2198 157.5,99.5C 153.71,98.435 150.043,97.1016 146.5,95.5C 141.435,93.2357 136.102,92.2357 130.5,92.5C 119.16,92.8349 108.493,95.6683 98.5,101C 93.4459,106.054 88.4459,111.054 83.5,116C 77.5689,116.912 73.9023,114.412 72.5,108.5C 80.042,92.2117 92.7087,82.3783 110.5,79C 118.429,77.4708 126.429,76.6375 134.5,76.5 Z"/></g>
<g><path style="opacity:0.942" fill="#767884" d="M 130.5,92.5 C 136.102,92.2357 141.435,93.2357 146.5,95.5C 145.781,97.7638 145.448,100.097 145.5,102.5C 139.974,102.821 134.64,102.488 129.5,101.5C 129.704,98.4824 130.037,95.4824 130.5,92.5 Z"/></g>
<g><path style="opacity:0.904" fill="#060606" d="M 129.5,101.5 C 134.64,102.488 139.974,102.821 145.5,102.5C 161.29,104.644 174.457,111.644 185,123.5C 190.646,131.744 192.646,140.744 191,150.5C 203.077,135.21 218.91,126.877 238.5,125.5C 243.64,126.488 248.974,126.821 254.5,126.5C 268.669,127.258 281.336,131.925 292.5,140.5C 291.797,138.284 290.464,136.451 288.5,135C 278.541,126.855 267.208,121.688 254.5,119.5C 249.783,117.762 244.783,117.096 239.5,117.5C 233.749,118.252 230.416,115.752 229.5,110C 230.416,104.248 233.749,101.748 239.5,102.5C 245.025,102.938 250.359,102.938 255.5,102.5C 280.81,107.337 300.643,120.337 315,141.5C 317.588,147.155 316.088,151.322 310.5,154C 307.743,154.782 305.243,154.282 303,152.5C 308.707,169.494 304.541,183.661 290.5,195C 277.62,203.973 263.287,208.473 247.5,208.5C 242.595,207.555 237.595,207.221 232.5,207.5C 216.706,205.354 203.539,198.354 193,186.5C 187.354,178.256 185.354,169.256 187,159.5C 175.588,174.458 160.421,182.458 141.5,183.5C 136.073,183.218 130.74,183.551 125.5,184.5C 105.472,183.404 89.305,175.071 77,159.5C 68.9219,141.977 72.4219,127.144 87.5,115C 100.065,106.201 114.065,101.701 129.5,101.5 Z M 254.5,119.5 C 267.208,121.688 278.541,126.855 288.5,135C 290.464,136.451 291.797,138.284 292.5,140.5C 281.336,131.925 268.669,127.258 254.5,126.5C 254.5,124.167 254.5,121.833 254.5,119.5 Z"/></g>
<g><path style="opacity:1" fill="#fbfbfb" d="M 117.5,107.5 C 137.306,104.823 155.639,108.656 172.5,119C 186.471,129.781 189.305,142.948 181,158.5C 171.729,169.555 159.895,176.055 145.5,178C 125.905,181.597 107.905,177.93 91.5,167C 77.6239,156.151 74.7905,142.984 83,127.5C 92.4754,117.16 103.975,110.493 117.5,107.5 Z"/></g>
<g><path style="opacity:0.944" fill="#747682" d="M 239.5,117.5 C 244.783,117.096 249.783,117.762 254.5,119.5C 254.5,121.833 254.5,124.167 254.5,126.5C 248.974,126.821 243.64,126.488 238.5,125.5C 238.279,122.721 238.612,120.054 239.5,117.5 Z"/></g>
<g><path style="opacity:1" fill="#030303" d="M 122.5,119.5 C 135.729,118.074 146.896,122.074 156,131.5C 162.337,144.163 159.503,154.33 147.5,162C 131.053,170.041 116.553,167.541 104,154.5C 97.3072,141.71 100.141,131.543 112.5,124C 115.893,122.38 119.226,120.88 122.5,119.5 Z"/></g>
<g><path style="opacity:1" fill="#fbfbfb" d="M 231.5,131.5 C 251.306,128.823 269.639,132.656 286.5,143C 300.471,153.781 303.305,166.948 295,182.5C 285.729,193.555 273.895,200.055 259.5,202C 239.905,205.597 221.905,201.93 205.5,191C 191.624,180.151 188.791,166.984 197,151.5C 206.475,141.16 217.975,134.493 231.5,131.5 Z"/></g>
<g><path style="opacity:1" fill="#030303" d="M 237.5,143.5 C 250.729,142.074 261.896,146.074 271,155.5C 277.337,168.163 274.503,178.33 262.5,186C 246.053,194.041 231.553,191.541 219,178.5C 212.307,165.71 215.141,155.543 227.5,148C 230.893,146.38 234.226,144.88 237.5,143.5 Z"/></g>
<g><path style="opacity:0.939" fill="#7a7c88" d="M 141.5,183.5 C 141.192,220.846 141.692,258.179 143,295.5C 143.705,324.735 149.038,353.068 159,380.5C 165.817,395.975 175.65,409.141 188.5,420C 217.318,438.723 238.818,432.556 253,401.5C 256.547,390.792 258.547,379.792 259,368.5C 260.017,339.509 260.683,310.509 261,281.5C 261.451,260.189 266.951,240.356 277.5,222C 284.206,219.353 288.539,221.519 290.5,228.5C 284.211,242.202 280.044,256.535 278,271.5C 276.334,303.472 275.334,335.472 275,367.5C 275.013,386.782 270.347,404.782 261,421.5C 244.263,445.41 222.096,452.243 194.5,442C 177.212,434.046 163.712,421.879 154,405.5C 143.448,387.847 136.448,368.847 133,348.5C 128.501,321.357 126.168,294.024 126,266.5C 125.731,239.12 125.565,211.786 125.5,184.5C 130.74,183.551 136.073,183.218 141.5,183.5 Z"/></g>
<g><path style="opacity:0.937" fill="#7a7c88" d="M 232.5,207.5 C 237.595,207.221 242.595,207.555 247.5,208.5C 250.385,243.462 250.885,278.462 249,313.5C 248.45,326.924 245.117,339.591 239,351.5C 231.079,362.923 220.245,367.089 206.5,364C 191.726,358.888 180.226,349.721 172,336.5C 161.503,316.847 156.17,295.847 156,273.5C 155.099,252.803 155.433,232.136 157,211.5C 161.667,206.167 166.333,206.167 171,211.5C 171.333,232.5 171.667,253.5 172,274.5C 172.362,293.65 177.028,311.65 186,328.5C 192.815,339.149 202.315,346.149 214.5,349.5C 218.821,348.923 222.321,346.923 225,343.5C 228.738,336.62 231.071,329.287 232,321.5C 233.803,307.057 234.637,292.557 234.5,278C 233.767,254.5 233.1,231 232.5,207.5 Z"/></g>
</svg>
