<?xml version="1.0" encoding="UTF-8"?>
<!DOCTYPE svg PUBLIC "-//W3C//DTD SVG 1.1//EN" "http://www.w3.org/Graphics/SVG/1.1/DTD/svg11.dtd">
<svg xmlns="http://www.w3.org/2000/svg" version="1.1" width="460px" height="460px" style="shape-rendering:geometricPrecision; text-rendering:geometricPrecision; image-rendering:optimizeQuality; fill-rule:evenodd; clip-rule:evenodd" xmlns:xlink="http://www.w3.org/1999/xlink">
<g><path style="opacity:0.004" fill="#fefffe" d="M 126.5,15.5 C 127.833,16.1667 127.833,16.1667 126.5,15.5 Z"/></g>
<g><path style="opacity:0.004" fill="#fefffe" d="M 383.5,17.5 C 384.833,18.1667 384.833,18.1667 383.5,17.5 Z"/></g>
<g><path style="opacity:0.004" fill="#fefffe" d="M 15.5,20.5 C 16.8333,21.1667 16.8333,21.1667 15.5,20.5 Z"/></g>
<g><path style="opacity:0.004" fill="#fefffe" d="M 1.5,37.5 C 2.83333,38.1667 2.83333,38.1667 1.5,37.5 Z"/></g>
<g><path style="opacity:0.004" fill="#fefffe" d="M 50.5,64.5 C 51.8333,65.1667 51.8333,65.1667 50.5,64.5 Z"/></g>
<g><path style="opacity:0.004" fill="#fefffe" d="M 31.5,98.5 C 32.8333,99.1667 32.8333,99.1667 31.5,98.5 Z"/></g>
<g><path style="opacity:0.004" fill="#fefffe" d="M 35.5,345.5 C 36.8333,346.167 36.8333,346.167 35.5,345.5 Z"/></g>
<g><path style="opacity:0.004" fill="#fefffe" d="M 14.5,361.5 C 15.8333,362.167 15.8333,362.167 14.5,361.5 Z"/></g>
<g><path style="opacity:0.004" fill="#fefffe" d="M 423.5,396.5 C 424.833,397.167 424.833,397.167 423.5,396.5 Z"/></g>
<g><path style="opacity:0.004" fill="#fefffe" d="M 421.5,399.5 C 422.833,400.167 422.833,400.167 421.5,399.5 Z"/></g>
<g><path style="opacity:0.912" fill="#06070c" d="M 208.5,6.5 C 297.497,1.58872 367.331,35.2554 418,107.5C 451.842,160.847 462.176,218.514 449,280.5C 423.357,372.811 363.857,429.644 270.5,451C 191.224,462.795 123.39,440.629 67,384.5C 11.5737,322.458 -6.09301,250.792 14,169.5C 40.2536,85.5883 96.0869,32.755 181.5,11C 190.574,9.04324 199.574,7.54324 208.5,6.5 Z"/></g>
<g><path style="opacity:1" fill="#3b5572" d="M 223.5,9.5 C 303.374,10.0167 366.541,42.35 413,106.5C 453.859,171.105 461.192,239.439 435,311.5C 400.483,390.708 340.316,436.541 254.5,449C 188.432,455.308 130.766,436.642 81.5,393C 30.7458,344.95 6.91243,285.784 10,215.5C 16.9793,142.002 50.8126,84.8351 111.5,44C 145.92,22.8973 183.253,11.3973 223.5,9.5 Z"/></g>
<g><path style="opacity:1" fill="#12070a" d="M 201.5,276.5 C 202.156,275.722 202.989,275.056 204,274.5C 204.765,274.57 205.265,274.903 205.5,275.5C 204.5,277.5 203.5,279.5 202.5,281.5C 200.072,279.957 197.406,278.957 194.5,278.5C 193.791,277.596 192.791,277.263 191.5,277.5C 188.095,276.12 184.428,275.454 180.5,275.5C 177.186,275.343 174.186,276.009 171.5,277.5C 171.167,277.5 170.833,277.5 170.5,277.5C 160.703,280.962 153.37,287.296 148.5,296.5C 144.765,299.635 142.932,303.635 143,308.5C 155.35,302.844 167.517,303.177 179.5,309.5C 181.073,309.248 182.406,308.582 183.5,307.5C 182.111,310.607 180.445,313.607 178.5,316.5C 179.193,317.518 179.859,318.518 180.5,319.5C 165.545,321.281 156.379,329.614 153,344.5C 152.333,354.5 152.333,364.5 153,374.5C 155.778,375.325 158.611,375.992 161.5,376.5C 165.728,378.025 170.228,378.692 175,378.5C 180.584,378.952 185.751,377.952 190.5,375.5C 194.606,373.612 198.606,371.446 202.5,369C 206.464,364.877 209.797,360.377 212.5,355.5C 214.421,354.637 216.421,353.971 218.5,353.5C 219.728,354.306 220.728,355.306 221.5,356.5C 224.925,368.908 223.592,380.741 217.5,392C 217.833,392.5 218.167,393 218.5,393.5C 229.436,389.38 238.936,383.047 247,374.5C 249.985,371.019 251.818,367.019 252.5,362.5C 253.98,353.555 253.647,344.555 251.5,335.5C 252.167,335.5 252.833,335.5 253.5,335.5C 253.232,337.099 253.566,338.432 254.5,339.5C 260.273,358.35 255.273,373.85 239.5,386C 233.623,389.185 227.623,392.185 221.5,395C 217.558,396.418 215.225,395.084 214.5,391C 220.945,380.047 222.112,368.547 218,356.5C 213.359,358.474 210.026,361.808 208,366.5C 196.101,379.023 181.601,383.523 164.5,380C 160.081,379.138 155.747,377.971 151.5,376.5C 150.334,365.515 150.168,354.515 151,343.5C 153.542,330.559 161.042,322.059 173.5,318C 174.833,316 176.167,314 177.5,312C 172.489,308.165 166.823,306.665 160.5,307.5C 154.212,306.874 148.379,308.208 143,311.5C 139.169,309.362 138.503,306.362 141,302.5C 147.5,290.667 156.667,281.5 168.5,275C 179.542,271.119 190.209,271.952 200.5,277.5C 201.107,277.376 201.44,277.043 201.5,276.5 Z"/></g>
<g><path style="opacity:1" fill="#cfaa64" d="M 190.5,375.5 C 185.751,377.952 180.584,378.952 175,378.5C 170.228,378.692 165.728,378.025 161.5,376.5C 166.021,376.502 170.521,376.836 175,377.5C 180.168,376.777 185.335,376.111 190.5,375.5 Z"/></g>
<g><path style="opacity:1" fill="#f6bc56" d="M 180.5,319.5 C 182.339,322.144 184.339,324.81 186.5,327.5C 173.027,331.343 168.36,340.01 172.5,353.5C 172.5,354.167 172.5,354.833 172.5,355.5C 171.596,356.209 171.263,357.209 171.5,358.5C 178.222,359.954 184.888,359.788 191.5,358C 195.753,355.29 199.92,352.457 204,349.5C 204.494,347.866 204.66,346.199 204.5,344.5C 205.338,344.842 205.672,345.508 205.5,346.5C 206.08,348.749 207.413,350.415 209.5,351.5C 211.262,352.262 212.262,353.596 212.5,355.5C 209.797,360.377 206.464,364.877 202.5,369C 198.606,371.446 194.606,373.612 190.5,375.5C 185.335,376.111 180.168,376.777 175,377.5C 170.521,376.836 166.021,376.502 161.5,376.5C 158.611,375.992 155.778,375.325 153,374.5C 152.333,364.5 152.333,354.5 153,344.5C 156.379,329.614 165.545,321.281 180.5,319.5 Z"/></g>
<g><path style="opacity:1" fill="#e0ebee" d="M 103.5,358.5 C 107.186,360.896 107.353,363.562 104,366.5C 103.07,364.448 101.57,362.948 99.5,362C 101.91,361.943 103.244,360.776 103.5,358.5 Z"/></g>
<g><path style="opacity:1" fill="#e4ecef" d="M 353.5,347.5 C 355.506,351.001 358.506,353.167 362.5,354C 359.312,355.934 357.812,358.768 358,362.5C 355.924,359.412 353.091,357.579 349.5,357C 352.962,354.761 354.295,351.594 353.5,347.5 Z"/></g>
<g><path style="opacity:1" fill="#972b28" d="M 191.5,332.5 C 188.986,336.53 185.819,340.196 182,343.5C 181.069,345.459 180.236,347.459 179.5,349.5C 180.333,349.833 181.167,350.167 182,350.5C 184.374,349.135 186.874,348.135 189.5,347.5C 185.082,351.554 180.082,354.887 174.5,357.5C 173.478,357.145 172.811,356.478 172.5,355.5C 172.5,354.833 172.5,354.167 172.5,353.5C 177.753,345.578 184.086,338.578 191.5,332.5 Z"/></g>
<g><path style="opacity:1" fill="#fcde66" d="M 199.5,341.5 C 201.411,342.075 203.078,343.075 204.5,344.5C 204.66,346.199 204.494,347.866 204,349.5C 199.92,352.457 195.753,355.29 191.5,358C 184.888,359.788 178.222,359.954 171.5,358.5C 171.263,357.209 171.596,356.209 172.5,355.5C 172.811,356.478 173.478,357.145 174.5,357.5C 180.082,354.887 185.082,351.554 189.5,347.5C 192.806,345.511 196.139,343.511 199.5,341.5 Z"/></g>
<g><path style="opacity:1" fill="#dc2d45" d="M 238.5,343.5 C 243.193,343.54 247.859,343.873 252.5,344.5C 252.5,350.5 252.5,356.5 252.5,362.5C 251.818,367.019 249.985,371.019 247,374.5C 238.936,383.047 229.436,389.38 218.5,393.5C 218.167,393 217.833,392.5 217.5,392C 223.592,380.741 224.925,368.908 221.5,356.5C 221.238,355.022 221.571,353.689 222.5,352.5C 227.38,349.893 232.38,347.56 237.5,345.5C 238.298,345.043 238.631,344.376 238.5,343.5 Z"/></g>
<g><path style="opacity:1" fill="#62482c" d="M 205.5,346.5 C 207.587,347.585 208.92,349.251 209.5,351.5C 207.413,350.415 206.08,348.749 205.5,346.5 Z"/></g>
<g><path style="opacity:1" fill="#7d2932" d="M 238.5,343.5 C 238.631,344.376 238.298,345.043 237.5,345.5C 232.38,347.56 227.38,349.893 222.5,352.5C 221.571,353.689 221.238,355.022 221.5,356.5C 220.728,355.306 219.728,354.306 218.5,353.5C 224.849,349.659 231.516,346.325 238.5,343.5 Z"/></g>
<g><path style="opacity:1" fill="#7a6231" d="M 199.5,341.5 C 199.842,340.662 200.508,340.328 201.5,340.5C 203.262,341.262 204.262,342.596 204.5,344.5C 203.078,343.075 201.411,342.075 199.5,341.5 Z"/></g>
<g><path style="opacity:1" fill="#d13348" d="M 231.5,308.5 C 238.898,316.965 245.565,325.965 251.5,335.5C 253.647,344.555 253.98,353.555 252.5,362.5C 252.5,356.5 252.5,350.5 252.5,344.5C 247.859,343.873 243.193,343.54 238.5,343.5C 239.8,342.173 241.133,340.84 242.5,339.5C 239.063,331.611 234.397,324.611 228.5,318.5C 231.143,315.766 232.143,312.433 231.5,308.5 Z"/></g>
<g><path style="opacity:1" fill="#7d2723" d="M 201.5,338.5 C 201.5,339.167 201.5,339.833 201.5,340.5C 200.508,340.328 199.842,340.662 199.5,341.5C 196.139,343.511 192.806,345.511 189.5,347.5C 189.33,346.178 189.663,345.011 190.5,344C 194.061,342.138 197.727,340.305 201.5,338.5 Z"/></g>
<g><path style="opacity:1" fill="#db2e45" d="M 228.5,305.5 C 232.126,313.571 229.46,318.238 220.5,319.5C 219.232,321.304 218.565,323.304 218.5,325.5C 216.5,325.5 214.5,325.5 212.5,325.5C 212.5,326.833 212.5,328.167 212.5,329.5C 210.334,329.579 208.334,330.246 206.5,331.5C 205.558,331.392 204.725,331.059 204,330.5C 203.918,333.285 203.085,335.952 201.5,338.5C 197.727,340.305 194.061,342.138 190.5,344C 189.663,345.011 189.33,346.178 189.5,347.5C 186.874,348.135 184.374,349.135 182,350.5C 181.167,350.167 180.333,349.833 179.5,349.5C 180.236,347.459 181.069,345.459 182,343.5C 185.819,340.196 188.986,336.53 191.5,332.5C 196.167,328.5 200.5,324.167 204.5,319.5C 206.5,318.167 208.167,316.5 209.5,314.5C 213.57,311.94 217.236,308.773 220.5,305C 223.221,304.398 225.887,304.565 228.5,305.5 Z"/></g>
<g><path style="opacity:1" fill="#aa2b3e" d="M 218.5,325.5 C 213.382,330.558 207.715,334.891 201.5,338.5C 203.085,335.952 203.918,333.285 204,330.5C 204.725,331.059 205.558,331.392 206.5,331.5C 208.334,330.246 210.334,329.579 212.5,329.5C 212.5,328.167 212.5,326.833 212.5,325.5C 214.5,325.5 216.5,325.5 218.5,325.5 Z"/></g>
<g><path style="opacity:1" fill="#fbde66" d="M 186.5,327.5 C 188.167,328.167 189.833,328.833 191.5,329.5C 191.5,330.5 191.5,331.5 191.5,332.5C 184.086,338.578 177.753,345.578 172.5,353.5C 168.36,340.01 173.027,331.343 186.5,327.5 Z"/></g>
<g><path style="opacity:1" fill="#571f1f" d="M 204.5,319.5 C 200.5,324.167 196.167,328.5 191.5,332.5C 191.5,331.5 191.5,330.5 191.5,329.5C 195.833,326.167 200.167,322.833 204.5,319.5 Z"/></g>
<g><path style="opacity:1" fill="#b59154" d="M 180.5,319.5 C 185.095,321.76 188.762,325.093 191.5,329.5C 189.833,328.833 188.167,328.167 186.5,327.5C 184.339,324.81 182.339,322.144 180.5,319.5 Z"/></g>
<g><path style="opacity:1" fill="#dedbdb" d="M 228.5,318.5 C 234.397,324.611 239.063,331.611 242.5,339.5C 241.133,340.84 239.8,342.173 238.5,343.5C 231.516,346.325 224.849,349.659 218.5,353.5C 216.421,353.971 214.421,354.637 212.5,355.5C 212.262,353.596 211.262,352.262 209.5,351.5C 208.92,349.251 207.587,347.585 205.5,346.5C 205.672,345.508 205.338,344.842 204.5,344.5C 204.262,342.596 203.262,341.262 201.5,340.5C 201.5,339.833 201.5,339.167 201.5,338.5C 207.715,334.891 213.382,330.558 218.5,325.5C 221.484,322.674 224.817,320.341 228.5,318.5 Z"/></g>
<g><path style="opacity:1" fill="#972731" d="M 228.5,305.5 C 229.833,306.167 230.833,307.167 231.5,308.5C 232.143,312.433 231.143,315.766 228.5,318.5C 224.817,320.341 221.484,322.674 218.5,325.5C 218.565,323.304 219.232,321.304 220.5,319.5C 229.46,318.238 232.126,313.571 228.5,305.5 Z"/></g>
<g><path style="opacity:1" fill="#5c1c20" d="M 209.5,314.5 C 208.167,316.5 206.5,318.167 204.5,319.5C 205.167,316.833 206.833,315.167 209.5,314.5 Z"/></g>
<g><path style="opacity:1" fill="#811722" d="M 225.5,302.5 C 226.833,303.167 227.833,304.167 228.5,305.5C 225.887,304.565 223.221,304.398 220.5,305C 217.236,308.773 213.57,311.94 209.5,314.5C 212.167,311.5 214.833,308.5 217.5,305.5C 219.545,303.016 222.212,302.016 225.5,302.5 Z"/></g>
<g><path style="opacity:1" fill="#b93145" d="M 148.5,296.5 C 148.306,299.33 147.639,301.996 146.5,304.5C 151.196,303.151 156.029,302.484 161,302.5C 168.267,303.612 175.434,304.945 182.5,306.5C 183.732,301.98 186.399,298.647 190.5,296.5C 188.913,300.683 186.579,304.35 183.5,307.5C 182.406,308.582 181.073,309.248 179.5,309.5C 167.517,303.177 155.35,302.844 143,308.5C 142.932,303.635 144.765,299.635 148.5,296.5 Z"/></g>
<g><path style="opacity:1" fill="#dedcdc" d="M 217.5,305.5 C 214.833,308.5 212.167,311.5 209.5,314.5C 206.833,315.167 205.167,316.833 204.5,319.5C 200.167,322.833 195.833,326.167 191.5,329.5C 188.762,325.093 185.095,321.76 180.5,319.5C 179.859,318.518 179.193,317.518 178.5,316.5C 180.445,313.607 182.111,310.607 183.5,307.5C 186.579,304.35 188.913,300.683 190.5,296.5C 192.803,294.022 194.969,291.355 197,288.5C 203.998,294.001 210.832,299.668 217.5,305.5 Z"/></g>
<g><path style="opacity:1" fill="#5a5038" d="M 228.5,295.5 C 226.236,296.219 223.903,296.552 221.5,296.5C 221.5,296.167 221.5,295.833 221.5,295.5C 225.133,295.557 225.3,294.557 222,292.5C 221.333,291.5 221.333,290.5 222,289.5C 223.436,292.442 225.603,294.442 228.5,295.5 Z"/></g>
<g><path style="opacity:1" fill="#d43348" d="M 194.5,278.5 C 197.406,278.957 200.072,279.957 202.5,281.5C 205.91,285.238 209.91,288.238 214.5,290.5C 216.527,293.194 218.861,295.527 221.5,297.5C 222.833,299.167 224.167,300.833 225.5,302.5C 222.212,302.016 219.545,303.016 217.5,305.5C 210.832,299.668 203.998,294.001 197,288.5C 194.969,291.355 192.803,294.022 190.5,296.5C 190.756,294.208 190.423,292.041 189.5,290C 190.793,289.51 192.127,289.343 193.5,289.5C 193.5,288.167 193.5,286.833 193.5,285.5C 194.5,285.5 195.5,285.5 196.5,285.5C 196.122,283.079 195.455,280.746 194.5,278.5 Z"/></g>
<g><path style="opacity:1" fill="#bc8380" d="M 216.5,289.5 C 218.137,291.475 219.804,293.475 221.5,295.5C 221.5,295.833 221.5,296.167 221.5,296.5C 221.5,296.833 221.5,297.167 221.5,297.5C 218.861,295.527 216.527,293.194 214.5,290.5C 215.492,290.672 216.158,290.338 216.5,289.5 Z"/></g>
<g><path style="opacity:1" fill="#b12f43" d="M 170.5,277.5 C 168.621,280.115 166.288,282.281 163.5,284C 162.167,284.333 160.833,284.667 159.5,285C 156.163,289.196 152.497,293.029 148.5,296.5C 153.37,287.296 160.703,280.962 170.5,277.5 Z"/></g>
<g><path style="opacity:1" fill="#df2c44" d="M 191.5,277.5 C 192.791,277.263 193.791,277.596 194.5,278.5C 195.455,280.746 196.122,283.079 196.5,285.5C 195.5,285.5 194.5,285.5 193.5,285.5C 193.5,286.833 193.5,288.167 193.5,289.5C 192.127,289.343 190.793,289.51 189.5,290C 190.423,292.041 190.756,294.208 190.5,296.5C 186.399,298.647 183.732,301.98 182.5,306.5C 175.434,304.945 168.267,303.612 161,302.5C 156.029,302.484 151.196,303.151 146.5,304.5C 147.639,301.996 148.306,299.33 148.5,296.5C 152.497,293.029 156.163,289.196 159.5,285C 160.833,284.667 162.167,284.333 163.5,284C 166.288,282.281 168.621,280.115 170.5,277.5C 170.833,277.5 171.167,277.5 171.5,277.5C 178.157,276.298 184.823,276.298 191.5,277.5 Z"/></g>
<g><path style="opacity:1" fill="#f1d5ab" d="M 227.5,275.5 C 229.189,279.708 230.522,284.041 231.5,288.5C 231.406,290.923 230.906,293.256 230,295.5C 229.31,296.738 228.81,296.738 228.5,295.5C 225.603,294.442 223.436,292.442 222,289.5C 221.333,290.5 221.333,291.5 222,292.5C 225.3,294.557 225.133,295.557 221.5,295.5C 219.804,293.475 218.137,291.475 216.5,289.5C 215.772,285.69 215.105,281.857 214.5,278C 214.759,276.213 215.425,274.713 216.5,273.5C 217.791,273.737 218.791,273.404 219.5,272.5C 221.582,272.528 223.416,271.861 225,270.5C 225.757,272.315 226.59,273.981 227.5,275.5 Z"/></g>
<g><path style="opacity:1" fill="#6f6d62" d="M 206.5,274.5 C 206.5,274.167 206.5,273.833 206.5,273.5C 209.833,273.5 213.167,273.5 216.5,273.5C 215.425,274.713 214.759,276.213 214.5,278C 215.105,281.857 215.772,285.69 216.5,289.5C 214.125,284.911 213.125,279.911 213.5,274.5C 211.167,274.5 208.833,274.5 206.5,274.5 Z"/></g>
<g><path style="opacity:1" fill="#dedbdb" d="M 206.5,274.5 C 208.833,274.5 211.167,274.5 213.5,274.5C 213.125,279.911 214.125,284.911 216.5,289.5C 216.158,290.338 215.492,290.672 214.5,290.5C 209.91,288.238 205.91,285.238 202.5,281.5C 203.5,279.5 204.5,277.5 205.5,275.5C 206.167,275.5 206.5,275.167 206.5,274.5 Z"/></g>
<g><path style="opacity:1" fill="#86212e" d="M 191.5,277.5 C 184.823,276.298 178.157,276.298 171.5,277.5C 174.186,276.009 177.186,275.343 180.5,275.5C 184.428,275.454 188.095,276.12 191.5,277.5 Z"/></g>
<g><path style="opacity:1" fill="#ecf3ed" d="M 142.5,258.5 C 143.004,262.525 145.004,265.692 148.5,268C 144.841,267.963 141.674,269.129 139,271.5C 139.188,267.768 137.688,264.934 134.5,263C 138.267,263.241 140.934,261.741 142.5,258.5 Z"/></g>
<g><path style="opacity:1" fill="#eef2eb" d="M 66.5,237.5 C 68.671,239.5 71.0043,241.334 73.5,243C 76.5,243.333 79.5,243.667 82.5,244C 77.2507,247.33 74.7507,252.163 75,258.5C 71.2893,254.051 66.456,252.218 60.5,253C 65.4238,248.983 67.4238,243.816 66.5,237.5 Z"/></g>
<g><path style="opacity:1" fill="#dcdcdc" d="M 253.5,335.5 C 252.833,335.5 252.167,335.5 251.5,335.5C 245.565,325.965 238.898,316.965 231.5,308.5C 230.833,307.167 229.833,306.167 228.5,305.5C 227.833,304.167 226.833,303.167 225.5,302.5C 224.167,300.833 222.833,299.167 221.5,297.5C 221.5,297.167 221.5,296.833 221.5,296.5C 223.903,296.552 226.236,296.219 228.5,295.5C 228.81,296.738 229.31,296.738 230,295.5C 230.906,293.256 231.406,290.923 231.5,288.5C 230.522,284.041 229.189,279.708 227.5,275.5C 227.643,273.738 227.309,272.071 226.5,270.5C 228.188,269.479 229.521,268.145 230.5,266.5C 234.167,264.833 236.833,262.167 238.5,258.5C 243.134,253.695 247.634,248.695 252,243.5C 253.193,241.114 254.36,238.78 255.5,236.5C 257.873,234.421 259.206,231.754 259.5,228.5C 261.472,225.916 262.472,222.916 262.5,219.5C 263.082,216.728 264.082,214.061 265.5,211.5C 268.722,210.59 271.389,208.923 273.5,206.5C 278.712,204.896 283.712,202.729 288.5,200C 309.168,192.95 330.168,191.783 351.5,196.5C 355.57,240.522 339.903,275.688 304.5,302C 296.5,307.667 288.5,313.333 280.5,319C 271.135,324.01 262.135,329.51 253.5,335.5 Z"/></g>
<g><path style="opacity:1" fill="#dbe4e5" d="M 335.5,123.5 C 336.052,127.272 337.719,130.605 340.5,133.5C 336.516,133.683 333.35,135.349 331,138.5C 331.389,134.119 329.889,130.619 326.5,128C 328.833,127.667 331.167,127.333 333.5,127C 334.823,126.184 335.489,125.017 335.5,123.5 Z"/></g>
<g><path style="opacity:1" fill="#dbe8ee" d="M 388.5,106.5 C 389.304,108.189 390.304,109.855 391.5,111.5C 390.009,112.244 388.509,112.91 387,113.5C 386.727,111.671 385.893,110.171 384.5,109C 386.32,108.8 387.653,107.966 388.5,106.5 Z"/></g>
<g><path style="opacity:1" fill="#e1f0f4" d="M 322.5,102.5 C 323.316,104.144 324.65,105.31 326.5,106C 324.667,106.5 323.5,107.667 323,109.5C 321.833,108.333 320.667,107.167 319.5,106C 321.426,105.578 322.426,104.411 322.5,102.5 Z"/></g>
<g><path style="opacity:1" fill="#0a1017" d="M 254.5,339.5 C 253.566,338.432 253.232,337.099 253.5,335.5C 262.135,329.51 271.135,324.01 280.5,319C 288.5,313.333 296.5,307.667 304.5,302C 339.903,275.688 355.57,240.522 351.5,196.5C 330.168,191.783 309.168,192.95 288.5,200C 283.712,202.729 278.712,204.896 273.5,206.5C 275.121,204.883 277.121,203.716 279.5,203C 274.017,202.15 268.683,202.65 263.5,204.5C 263.167,204.5 262.833,204.5 262.5,204.5C 262.174,201.689 261.341,199.022 260,196.5C 247.726,183.617 238.226,168.95 231.5,152.5C 236.943,147.632 241.443,141.965 245,135.5C 245.035,127.288 241.535,125.455 234.5,130C 230.414,133.675 228.08,138.175 227.5,143.5C 224.942,137.359 222.609,131.025 220.5,124.5C 220.253,123.287 219.586,122.62 218.5,122.5C 225.724,112.687 224.724,103.853 215.5,96C 213.257,94.8638 210.924,94.0305 208.5,93.5C 207.329,92.6554 205.995,91.9887 204.5,91.5C 203.314,89.8058 203.481,88.1392 205,86.5C 206.773,71.9437 200.273,65.777 185.5,68C 181.699,70.6141 179.366,74.1141 178.5,78.5C 177.292,79.2341 175.959,79.5674 174.5,79.5C 155.3,78.2879 138.633,84.1212 124.5,97C 112.22,97.0561 106.387,103.223 107,115.5C 107.505,118.517 109.005,120.851 111.5,122.5C 112.33,128.472 112.83,134.472 113,140.5C 116.054,151.385 119.721,162.052 124,172.5C 129.667,182.5 135.333,192.5 141,202.5C 152.333,218.5 163.667,234.5 175,250.5C 180.887,256.387 186.721,262.221 192.5,268C 196.734,270.912 201.4,272.745 206.5,273.5C 206.5,273.833 206.5,274.167 206.5,274.5C 206.5,275.167 206.167,275.5 205.5,275.5C 205.265,274.903 204.765,274.57 204,274.5C 202.989,275.056 202.156,275.722 201.5,276.5C 198.227,273.856 194.56,271.689 190.5,270C 184,264.833 178.167,259 173,252.5C 156.158,229.985 140.491,206.651 126,182.5C 120.749,171.745 116.082,160.745 112,149.5C 110.409,140.889 109.242,132.222 108.5,123.5C 101.723,114.014 102.723,105.181 111.5,97C 115.232,95.0306 119.232,94.0306 123.5,94C 138.462,81.3999 155.796,75.2332 175.5,75.5C 182.39,63.298 191.723,61.1313 203.5,69C 205.041,70.5793 206.208,72.4127 207,74.5C 207.418,79.5355 207.418,84.5355 207,89.5C 223.665,94.8221 228.832,105.655 222.5,122C 223.574,126.316 225.074,130.483 227,134.5C 229.552,130.281 233.052,127.114 237.5,125C 247.454,125.219 250.287,130.052 246,139.5C 242.547,144.621 238.714,149.454 234.5,154C 240.3,167.771 248.467,179.938 259,190.5C 261.254,194.007 263.254,197.673 265,201.5C 269.864,199.405 274.864,199.071 280,200.5C 302.557,189.438 326.057,186.938 350.5,193C 352.329,193.273 353.829,194.107 355,195.5C 359.273,239.358 344.106,274.858 309.5,302C 292.314,314.76 274.314,326.26 255.5,336.5C 254.614,337.325 254.281,338.325 254.5,339.5 Z"/></g>
<g><path style="opacity:1" fill="#649aab" d="M 230.5,266.5 C 229.521,268.145 228.188,269.479 226.5,270.5C 227.309,272.071 227.643,273.738 227.5,275.5C 226.59,273.981 225.757,272.315 225,270.5C 223.416,271.861 221.582,272.528 219.5,272.5C 221.739,271.521 223.406,269.854 224.5,267.5C 226.409,266.652 228.409,266.318 230.5,266.5 Z"/></g>
<g><path style="opacity:1" fill="#5f8795" d="M 238.5,258.5 C 236.833,262.167 234.167,264.833 230.5,266.5C 232.833,263.5 235.5,260.833 238.5,258.5 Z"/></g>
<g><path style="opacity:1" fill="#477481" d="M 259.5,228.5 C 259.206,231.754 257.873,234.421 255.5,236.5C 256.326,233.515 257.659,230.849 259.5,228.5 Z"/></g>
<g><path style="opacity:1" fill="#3e4044" d="M 293.5,223.5 C 292.643,222.198 292.143,220.865 292,219.5C 293.708,217.457 295.708,215.79 298,214.5C 298.308,215.308 298.808,215.975 299.5,216.5C 299.94,215.302 300.273,214.135 300.5,213C 306.861,209.728 313.194,209.728 319.5,213C 318.289,213.893 318.289,214.726 319.5,215.5C 320.258,214.189 321.258,213.689 322.5,214C 334.168,222.984 336.668,234.151 330,247.5C 323.848,255.169 316.014,258.169 306.5,256.5C 307.506,255.604 307.506,254.938 306.5,254.5C 305.784,255.311 304.95,255.978 304,256.5C 294.457,253.901 288.957,247.734 287.5,238C 287.691,235.95 288.358,234.117 289.5,232.5C 286.9,229.075 287.067,225.741 290,222.5C 291.011,223.337 292.178,223.67 293.5,223.5 Z"/></g>
<g><path style="opacity:1" fill="#cfd1d2" d="M 329.5,239.5 C 331.337,239.639 331.67,240.306 330.5,241.5C 329.702,241.043 329.369,240.376 329.5,239.5 Z"/></g>
<g><path style="opacity:1" fill="#c6cac7" d="M 330.5,229.5 C 332.337,229.639 332.67,230.306 331.5,231.5C 330.702,231.043 330.369,230.376 330.5,229.5 Z"/></g>
<g><path style="opacity:1" fill="#cfe6fc" d="M 329.5,239.5 C 326.77,245.399 322.437,249.899 316.5,253C 317.711,253.893 317.711,254.726 316.5,255.5C 306.166,255.661 298.332,251.328 293,242.5C 290.898,236.073 291.065,229.74 293.5,223.5C 302.449,214.196 312.449,213.029 323.5,220C 328.898,225.358 330.898,231.858 329.5,239.5 Z"/></g>
<g><path style="opacity:1" fill="#3e707f" d="M 262.5,204.5 C 262.833,204.5 263.167,204.5 263.5,204.5C 263.41,207.152 264.076,209.485 265.5,211.5C 264.082,214.061 263.082,216.728 262.5,219.5C 262.5,214.5 262.5,209.5 262.5,204.5 Z"/></g>
<g><path style="opacity:1" fill="#e0c8a4" d="M 273.5,206.5 C 271.389,208.923 268.722,210.59 265.5,211.5C 264.076,209.485 263.41,207.152 263.5,204.5C 268.683,202.65 274.017,202.15 279.5,203C 277.121,203.716 275.121,204.883 273.5,206.5 Z"/></g>
<g><path style="opacity:1" fill="#efd4aa" d="M 231.5,152.5 C 230.925,149.088 229.592,146.088 227.5,143.5C 228.08,138.175 230.414,133.675 234.5,130C 241.535,125.455 245.035,127.288 245,135.5C 241.443,141.965 236.943,147.632 231.5,152.5 Z"/></g>
<g><path style="opacity:1" fill="#f8faf9" d="M 208.5,93.5 C 210.924,94.0305 213.257,94.8638 215.5,96C 224.724,103.853 225.724,112.687 218.5,122.5C 210.202,128.261 202.368,127.594 195,120.5C 189.541,111.162 190.708,102.829 198.5,95.5C 201.635,93.9767 204.968,93.31 208.5,93.5 Z"/></g>
<g><path style="opacity:1" fill="#0f0f0f" d="M 203.5,107.5 C 209.313,107.062 210.98,109.562 208.5,115C 204.558,116.418 202.225,115.084 201.5,111C 201.978,109.697 202.645,108.531 203.5,107.5 Z"/></g>
<g><path style="opacity:1" fill="#547787" d="M 204.5,91.5 C 205.995,91.9887 207.329,92.6554 208.5,93.5C 204.968,93.31 201.635,93.9767 198.5,95.5C 200.19,93.6583 202.19,92.325 204.5,91.5 Z"/></g>
<g><path style="opacity:1" fill="#50cdf9" d="M 204.5,91.5 C 202.19,92.325 200.19,93.6583 198.5,95.5C 190.708,102.829 189.541,111.162 195,120.5C 202.368,127.594 210.202,128.261 218.5,122.5C 219.586,122.62 220.253,123.287 220.5,124.5C 222.609,131.025 224.942,137.359 227.5,143.5C 229.592,146.088 230.925,149.088 231.5,152.5C 238.226,168.95 247.726,183.617 260,196.5C 261.341,199.022 262.174,201.689 262.5,204.5C 262.5,209.5 262.5,214.5 262.5,219.5C 262.472,222.916 261.472,225.916 259.5,228.5C 257.659,230.849 256.326,233.515 255.5,236.5C 254.36,238.78 253.193,241.114 252,243.5C 247.634,248.695 243.134,253.695 238.5,258.5C 235.5,260.833 232.833,263.5 230.5,266.5C 228.409,266.318 226.409,266.652 224.5,267.5C 223.406,269.854 221.739,271.521 219.5,272.5C 218.791,273.404 217.791,273.737 216.5,273.5C 213.167,273.5 209.833,273.5 206.5,273.5C 201.4,272.745 196.734,270.912 192.5,268C 186.721,262.221 180.887,256.387 175,250.5C 163.667,234.5 152.333,218.5 141,202.5C 135.333,192.5 129.667,182.5 124,172.5C 119.721,162.052 116.054,151.385 113,140.5C 112.83,134.472 112.33,128.472 111.5,122.5C 109.005,120.851 107.505,118.517 107,115.5C 106.387,103.223 112.22,97.0561 124.5,97C 138.633,84.1212 155.3,78.2879 174.5,79.5C 177.656,80.4339 180.989,81.1006 184.5,81.5C 189.134,82.3142 193.467,83.9809 197.5,86.5C 199.936,78.1735 196.936,74.6735 188.5,76C 186.93,77.3968 185.596,78.8968 184.5,80.5C 182.374,79.9518 180.374,79.2852 178.5,78.5C 179.366,74.1141 181.699,70.6141 185.5,68C 200.273,65.777 206.773,71.9437 205,86.5C 203.481,88.1392 203.314,89.8058 204.5,91.5 Z"/></g>
<g><path style="opacity:1" fill="#3c696b" d="M 181.5,211.5 C 182.124,211.917 182.457,212.584 182.5,213.5C 182,215.5 181.5,217.5 181,219.5C 180.578,221.426 179.411,222.426 177.5,222.5C 179.895,219.272 181.229,215.605 181.5,211.5 Z"/></g>
<g><path style="opacity:1" fill="#efd8af" d="M 182.5,205.5 C 181.659,207.379 181.325,209.379 181.5,211.5C 181.229,215.605 179.895,219.272 177.5,222.5C 171.652,222.535 168.652,219.535 168.5,213.5C 168.632,207.077 169.465,200.743 171,194.5C 174.784,195.637 178.618,195.637 182.5,194.5C 182.5,198.167 182.5,201.833 182.5,205.5 Z"/></g>
<g><path style="opacity:1" fill="#457072" d="M 182.5,205.5 C 182.5,201.833 182.5,198.167 182.5,194.5C 178.618,195.637 174.784,195.637 171,194.5C 169.465,200.743 168.632,207.077 168.5,213.5C 167.964,207.043 167.964,200.543 168.5,194C 173.5,194.826 178.5,194.659 183.5,193.5C 183.817,197.702 183.483,201.702 182.5,205.5 Z"/></g>
<g><path style="opacity:1" fill="#549eb9" d="M 148.5,145.5 C 151.333,147.478 154.333,149.311 157.5,151C 162.884,152.132 167.884,151.298 172.5,148.5C 172.279,149.735 171.612,150.735 170.5,151.5C 164.537,152.496 158.537,152.829 152.5,152.5C 152.039,149.697 150.705,147.363 148.5,145.5 Z"/></g>
<g><path style="opacity:1" fill="#4a7380" d="M 205.5,148.5 C 203.361,149.158 201.361,150.158 199.5,151.5C 199.302,149.425 199.135,147.425 199,145.5C 200.509,147.919 202.675,148.919 205.5,148.5 Z"/></g>
<g><path style="opacity:1" fill="#466c6c" d="M 185.5,140.5 C 184.782,142.137 184.616,143.803 185,145.5C 187.364,146.304 189.531,146.637 191.5,146.5C 191.5,147.167 191.5,147.833 191.5,148.5C 188.991,147.887 186.491,147.22 184,146.5C 183.059,144.011 183.559,142.011 185.5,140.5 Z"/></g>
<g><path style="opacity:1" fill="#5c96a6" d="M 205.5,148.5 C 206.238,141.809 203.571,139.143 197.5,140.5C 199.418,139.132 201.585,138.132 204,137.5C 204.494,135.866 204.66,134.199 204.5,132.5C 201.803,131.37 199.137,131.37 196.5,132.5C 195.833,132.5 195.5,132.167 195.5,131.5C 199.135,130.421 202.801,130.421 206.5,131.5C 206.822,137.358 206.489,143.025 205.5,148.5 Z"/></g>
<g><path style="opacity:1" fill="#f1f3f2" d="M 205.5,148.5 C 202.675,148.919 200.509,147.919 199,145.5C 199.135,147.425 199.302,149.425 199.5,151.5C 197.932,152.473 196.265,152.64 194.5,152C 193.837,150.482 192.837,149.315 191.5,148.5C 191.5,147.833 191.5,147.167 191.5,146.5C 193.167,144.167 195.167,142.167 197.5,140.5C 203.571,139.143 206.238,141.809 205.5,148.5 Z"/></g>
<g><path style="opacity:1" fill="#eed5ae" d="M 197.5,140.5 C 195.167,142.167 193.167,144.167 191.5,146.5C 189.531,146.637 187.364,146.304 185,145.5C 184.616,143.803 184.782,142.137 185.5,140.5C 186.5,139.833 187.5,139.167 188.5,138.5C 192.806,138.377 195.473,136.377 196.5,132.5C 199.137,131.37 201.803,131.37 204.5,132.5C 204.66,134.199 204.494,135.866 204,137.5C 201.585,138.132 199.418,139.132 197.5,140.5 Z"/></g>
<g><path style="opacity:1" fill="#496f79" d="M 188.5,134.5 C 188.5,135.833 188.5,137.167 188.5,138.5C 187.5,139.167 186.5,139.833 185.5,140.5C 186.508,138.456 187.508,136.456 188.5,134.5 Z"/></g>
<g><path style="opacity:1" fill="#43788c" d="M 178.5,125.5 C 180.047,127.807 180.713,130.473 180.5,133.5C 180.713,136.527 180.047,139.193 178.5,141.5C 179.833,136.167 179.833,130.833 178.5,125.5 Z"/></g>
<g><path style="opacity:1" fill="#07070b" d="M 195.5,131.5 C 195.5,132.167 195.833,132.5 196.5,132.5C 195.473,136.377 192.806,138.377 188.5,138.5C 188.5,137.167 188.5,135.833 188.5,134.5C 190.176,132.166 192.509,131.166 195.5,131.5 Z"/></g>
<g><path style="opacity:1" fill="#52788a" d="M 146.5,122.5 C 144.736,127.644 144.069,132.977 144.5,138.5C 143.353,134.354 143.186,130.02 144,125.5C 144.377,124.058 145.21,123.058 146.5,122.5 Z"/></g>
<g><path style="opacity:1" fill="#58a5c3" d="M 178.5,125.5 C 175.311,121.149 171.311,117.649 166.5,115C 162.848,114.501 159.182,114.335 155.5,114.5C 157.084,113.231 158.917,112.231 161,111.5C 163.824,112.054 166.657,112.554 169.5,113C 168.167,113.667 168.167,114.333 169.5,115C 175.104,116.114 178.104,119.614 178.5,125.5 Z"/></g>
<g><path style="opacity:1" fill="#f9fbfb" d="M 155.5,114.5 C 159.182,114.335 162.848,114.501 166.5,115C 171.311,117.649 175.311,121.149 178.5,125.5C 179.833,130.833 179.833,136.167 178.5,141.5C 176.529,143.808 174.529,146.142 172.5,148.5C 167.884,151.298 162.884,152.132 157.5,151C 154.333,149.311 151.333,147.478 148.5,145.5C 147.416,142.996 146.083,140.663 144.5,138.5C 144.069,132.977 144.736,127.644 146.5,122.5C 148.895,119.139 151.895,116.472 155.5,114.5 Z"/></g>
<g><path style="opacity:1" fill="#121212" d="M 155.5,133.5 C 162.536,132.603 164.203,135.103 160.5,141C 155.483,140.808 153.817,138.308 155.5,133.5 Z"/></g>
<g><path style="opacity:1" fill="#03090e" d="M 119.5,105.5 C 122.722,105.108 125.722,105.608 128.5,107C 125.561,111.042 123.894,115.542 123.5,120.5C 120.439,120.556 118.272,119.222 117,116.5C 115.812,112.259 116.645,108.592 119.5,105.5 Z"/></g>
<g><path style="opacity:1" fill="#16688a" d="M 178.5,78.5 C 180.374,79.2852 182.374,79.9518 184.5,80.5C 184.5,80.8333 184.5,81.1667 184.5,81.5C 180.989,81.1006 177.656,80.4339 174.5,79.5C 175.959,79.5674 177.292,79.2341 178.5,78.5 Z"/></g>
<g><path style="opacity:1" fill="#040c11" d="M 184.5,81.5 C 184.5,81.1667 184.5,80.8333 184.5,80.5C 185.596,78.8968 186.93,77.3968 188.5,76C 196.936,74.6735 199.936,78.1735 197.5,86.5C 193.467,83.9809 189.134,82.3142 184.5,81.5 Z"/></g>
<g><path style="opacity:0.004" fill="#fefffe" d="M 372.5,421.5 C 373.833,422.167 373.833,422.167 372.5,421.5 Z"/></g>
<g><path style="opacity:0.004" fill="#fefffe" d="M 44.5,428.5 C 45.8333,429.167 45.8333,429.167 44.5,428.5 Z"/></g>
<g><path style="opacity:0.004" fill="#fefffe" d="M 73.5,442.5 C 74.8333,443.167 74.8333,443.167 73.5,442.5 Z"/></g>
<g><path style="opacity:0.004" fill="#fefffe" d="M 446.5,442.5 C 447.833,443.167 447.833,443.167 446.5,442.5 Z"/></g>
<g><path style="opacity:0.004" fill="#fefffe" d="M 37.5,445.5 C 38.8333,446.167 38.8333,446.167 37.5,445.5 Z"/></g>
<g><path style="opacity:0.004" fill="#fefffe" d="M 392.5,446.5 C 393.833,447.167 393.833,447.167 392.5,446.5 Z"/></g>
<g><path style="opacity:0.004" fill="#fefffe" d="M 301.5,450.5 C 302.833,451.167 302.833,451.167 301.5,450.5 Z"/></g>
</svg>
