<?xml version="1.0" encoding="UTF-8"?>
<!DOCTYPE svg PUBLIC "-//W3C//DTD SVG 1.1//EN" "http://www.w3.org/Graphics/SVG/1.1/DTD/svg11.dtd">
<svg xmlns="http://www.w3.org/2000/svg" version="1.1" width="501px" height="472px" style="shape-rendering:geometricPrecision; text-rendering:geometricPrecision; image-rendering:optimizeQuality; fill-rule:evenodd; clip-rule:evenodd" xmlns:xlink="http://www.w3.org/1999/xlink">
<g><path style="opacity:0.885" fill="#0a0c0b" d="M 271.5,8.5 C 278.728,9.22874 283.394,13.0621 285.5,20C 285.561,21.7106 284.894,23.044 283.5,24C 285.5,25 287.5,26 289.5,27C 301.303,27.7124 312.303,31.0457 322.5,37C 327.869,41.5726 330.703,47.406 331,54.5C 341.531,65.0252 350.531,76.6919 358,89.5C 372.36,96.2055 385.36,104.872 397,115.5C 408.039,128.939 405.205,137.773 388.5,142C 384.853,142.774 381.186,143.441 377.5,144C 378.758,150.062 379.591,156.229 380,162.5C 398.958,177.335 403.292,195.668 393,217.5C 388.438,223.057 383.605,228.224 378.5,233C 376.961,243.481 375.627,253.981 374.5,264.5C 385.919,264.817 396.919,266.984 407.5,271C 397.609,279.056 388.942,288.223 381.5,298.5C 392.685,301.87 394.518,308.204 387,317.5C 380.772,325.89 372.772,328.224 363,324.5C 357.589,352.067 348.589,378.4 336,403.5C 331.781,410.772 326.948,417.605 321.5,424C 330.727,427.307 340.061,430.307 349.5,433C 354.738,436.274 355.904,440.774 353,446.5C 343.144,456.673 331.644,458.84 318.5,453C 311.996,449.336 306.163,444.836 301,439.5C 291.432,444.35 281.265,447.183 270.5,448C 232.207,452.202 196.04,445.369 162,427.5C 162.766,435.411 164.266,443.245 166.5,451C 164.872,457.408 160.706,459.908 154,458.5C 134.916,459.092 126.916,450.092 130,431.5C 131.577,425.101 133.744,418.935 136.5,413C 124.473,404.728 114.306,394.561 106,382.5C 102.673,376.015 99.5068,369.515 96.5,363C 88.7345,361.523 81.4011,358.856 74.5,355C 70.024,349.331 70.6906,344.331 76.5,340C 82.4426,338.221 88.4426,338.054 94.5,339.5C 94.9208,325.894 97.0875,312.561 101,299.5C 107.491,278.853 114.825,258.52 123,238.5C 132.992,207.208 139.659,175.208 143,142.5C 145.726,129.975 148.226,117.641 150.5,105.5C 141.539,107.82 132.539,107.986 123.5,106C 119.335,104.517 117.835,101.684 119,97.5C 128.578,89.1895 139.745,84.3562 152.5,83C 155.549,78.2842 159.549,74.6176 164.5,72C 167.429,71.2228 170.263,71.3895 173,72.5C 190.589,54.9082 210.422,40.4082 232.5,29C 229.391,26.1593 228.391,22.826 229.5,19C 235.814,18.1533 242.147,17.4866 248.5,17C 251.352,15.4091 254.352,14.0758 257.5,13C 260.099,12.231 262.599,12.3977 265,13.5C 267.352,11.9697 269.519,10.3031 271.5,8.5 Z"/></g>
<g><path style="opacity:1" fill="#60483b" d="M 271.5,12.5 C 276.621,12.7763 280.288,15.2763 282.5,20C 279.5,22.003 276.167,22.8364 272.5,22.5C 272.327,19.8205 271.327,17.4872 269.5,15.5C 270.193,14.4822 270.859,13.4822 271.5,12.5 Z"/></g>
<g><path style="opacity:1" fill="#634a3d" d="M 256.5,16.5 C 260.308,16.1632 263.974,16.6632 267.5,18C 270.405,21.3742 270.072,24.3742 266.5,27C 262.375,27.8538 258.375,27.5204 254.5,26C 251.749,22.1667 252.415,19.0001 256.5,16.5 Z"/></g>
<g><path style="opacity:1" fill="#62493d" d="M 240.5,20.5 C 243.5,20.5 246.5,20.5 249.5,20.5C 249.346,25.0353 251.346,28.3687 255.5,30.5C 250.849,36.0958 245.849,36.5958 240.5,32C 237.269,29.2727 234.603,26.106 232.5,22.5C 235.306,21.8324 237.972,21.1657 240.5,20.5 Z"/></g>
<g><path style="opacity:1" fill="#916c5a" d="M 271.5,25.5 C 274.941,25.3011 278.274,25.8011 281.5,27C 314.866,41.318 340.199,64.318 357.5,96C 356.339,98.5926 354.339,100.259 351.5,101C 328.937,107.673 305.937,111.839 282.5,113.5C 280.807,99.362 281.64,85.362 285,71.5C 288.047,58.9852 284.881,48.4852 275.5,40C 270.446,36.8061 265.112,34.1394 259.5,32C 263.226,30.9806 266.893,29.6473 270.5,28C 271.252,27.3292 271.586,26.4959 271.5,25.5 Z"/></g>
<g><path style="opacity:1" fill="#694e41" d="M 300.5,33.5 C 307.444,33.8671 314.11,36.0338 320.5,40C 323.498,42.3286 325.498,45.3286 326.5,49C 326.15,50.2575 325.483,50.5908 324.5,50C 317.34,43.2554 309.34,37.7554 300.5,33.5 Z"/></g>
<g><path style="opacity:1" fill="#6f5244" d="M 234.5,34.5 C 236.199,34.3398 237.866,34.5065 239.5,35C 241.681,36.8403 244.181,38.0069 247,38.5C 250.434,37.4509 253.767,36.1175 257,34.5C 265.439,37.0495 272.772,41.3828 279,47.5C 281.888,52.4365 283.055,57.7699 282.5,63.5C 280.841,75.7883 279.508,88.1216 278.5,100.5C 278.751,105.18 279.084,109.846 279.5,114.5C 250.951,115.974 223.285,111.807 196.5,102C 194.045,96.9201 191.212,92.0868 188,87.5C 193.02,60.646 208.52,42.9793 234.5,34.5 Z"/></g>
<g><path style="opacity:1" fill="#8c6956" d="M 196.5,55.5 C 197.239,55.369 197.906,55.5357 198.5,56C 192.491,64.0032 187.991,72.8365 185,82.5C 182.167,79.6667 179.333,76.8333 176.5,74C 182.762,67.2317 189.429,61.065 196.5,55.5 Z"/></g>
<g><path style="opacity:1" fill="#68d5e2" d="M 164.5,75.5 C 171.865,74.7653 177.699,77.432 182,83.5C 187.505,91.8399 192.505,100.507 197,109.5C 201.038,111.03 201.538,110.196 198.5,107C 226.092,115.491 254.425,119.158 283.5,118C 311.29,135.653 341.623,144.486 374.5,144.5C 375.71,150.096 376.377,155.762 376.5,161.5C 348.972,153.18 330.472,162.513 321,189.5C 319.896,219.728 334.396,234.894 364.5,235C 367.627,234.608 370.627,233.775 373.5,232.5C 373.833,233.833 374.167,235.167 374.5,236.5C 372.948,245.811 371.615,255.144 370.5,264.5C 361.781,264.203 353.114,264.703 344.5,266C 341.006,271.32 337.006,276.154 332.5,280.5C 331.833,280.167 331.167,279.833 330.5,279.5C 331.022,278.393 331.355,277.226 331.5,276C 330.431,272.226 329.764,268.393 329.5,264.5C 332.961,264.854 335.461,263.521 337,260.5C 340.913,249.886 338.413,241.22 329.5,234.5C 333.436,227.947 331.77,223.781 324.5,222C 318.036,220.348 312.536,221.848 308,226.5C 307.202,229.711 307.702,232.711 309.5,235.5C 300.367,242.067 297.533,250.734 301,261.5C 303.228,263.113 305.728,263.78 308.5,263.5C 307.866,269.496 307.7,275.496 308,281.5C 310.596,283.02 313.429,283.853 316.5,284C 307.991,286.849 301.658,292.182 297.5,300C 292.333,301.5 287.167,303 282,304.5C 272.632,298.95 262.465,296.45 251.5,297C 243.339,294.003 235.839,289.836 229,284.5C 228.457,281.132 228.624,277.799 229.5,274.5C 228.5,274.5 227.5,274.5 226.5,274.5C 225.833,278.5 225.167,282.5 224.5,286.5C 222.097,286.393 220.264,287.393 219,289.5C 218.282,288.549 217.449,288.383 216.5,289C 215.257,290.154 214.257,291.488 213.5,293C 204.998,291.817 198.332,294.817 193.5,302C 193.833,302.5 194.167,303 194.5,303.5C 198.328,300.004 202.662,297.337 207.5,295.5C 209.383,295.876 210.883,296.876 212,298.5C 213.337,297.235 214.837,296.735 216.5,297C 224.314,304.07 232.314,310.904 240.5,317.5C 237.839,318.499 235.172,319.499 232.5,320.5C 229.557,324.73 230.391,328.063 235,330.5C 240.153,328.727 245.319,327.06 250.5,325.5C 253.92,326.374 257.253,327.541 260.5,329C 274.597,331.965 282.931,326.465 285.5,312.5C 290.037,310.432 294.704,308.766 299.5,307.5C 304.291,309.554 309.291,311.054 314.5,312C 311.676,315.476 309.843,319.31 309,323.5C 324.154,318.703 339.654,317.37 355.5,319.5C 356.76,320.382 357.926,321.382 359,322.5C 354.431,350.875 345.431,377.875 332,403.5C 324.784,415.436 315.618,425.603 304.5,434C 286.474,443.205 267.307,447.039 247,445.5C 216.575,445.602 188.075,438.269 161.5,423.5C 160.129,414.844 161.296,406.51 165,398.5C 166.512,397.743 167.846,396.743 169,395.5C 169.333,397.5 169.667,399.5 170,401.5C 170.414,401.957 170.914,402.291 171.5,402.5C 172.764,398.82 172.764,395.153 171.5,391.5C 170.635,390.417 169.635,390.251 168.5,391C 165.631,394.368 162.298,397.202 158.5,399.5C 155.427,395.562 152.26,395.562 149,399.5C 148.08,396.899 147.413,394.232 147,391.5C 142.416,389.71 139.249,391.21 137.5,396C 137.833,396.5 138.167,397 138.5,397.5C 140.167,396.167 141.833,394.833 143.5,393.5C 143.833,394.167 144.167,394.833 144.5,395.5C 142.593,400.312 140.426,404.979 138,409.5C 126.527,401.605 116.86,391.939 109,380.5C 98.5373,360.645 95.5373,339.645 100,317.5C 105.668,293.829 113.335,270.829 123,248.5C 134.879,214.772 142.546,180.105 146,144.5C 148.082,130.837 151.416,117.504 156,104.5C 159.5,108 163,111.5 166.5,115C 167.965,115.601 168.965,115.101 169.5,113.5C 162.56,108.733 157.727,102.399 155,94.5C 154.333,91.5 154.333,88.5 155,85.5C 157.696,81.6393 160.863,78.306 164.5,75.5 Z"/></g>
<g><path style="opacity:1" fill="#8f6b58" d="M 145.5,87.5 C 147.5,87.5 149.5,87.5 151.5,87.5C 151.001,92.3645 152.001,96.8645 154.5,101C 144.991,103.36 135.324,104.026 125.5,103C 122.968,102.388 122.135,100.888 123,98.5C 129.85,93.3241 137.35,89.6575 145.5,87.5 Z"/></g>
<g><path style="opacity:1" fill="#050a0b" d="M 169.5,87.5 C 171.582,87.472 173.416,88.1387 175,89.5C 178.06,93.6715 180.56,98.1715 182.5,103C 175.451,104.886 169.618,103.053 165,97.5C 164.333,95.8333 164.333,94.1667 165,92.5C 166.707,90.9625 168.207,89.2959 169.5,87.5 Z"/></g>
<g><path style="opacity:1" fill="#906c59" d="M 360.5,95.5 C 376.738,101.904 389.905,112.237 400,126.5C 401.054,132.457 398.554,135.957 392.5,137C 377.743,141.621 362.743,142.621 347.5,140C 326.197,135.678 306.197,128.011 287.5,117C 307.221,113.706 326.887,110.039 346.5,106C 351.823,104.923 356.323,102.423 360,98.5C 360.483,97.552 360.649,96.552 360.5,95.5 Z"/></g>
<g><path style="opacity:1" fill="#121616" d="M 266.5,157.5 C 282.681,155.502 296.181,160.502 307,172.5C 316.653,187.95 316.987,203.617 308,219.5C 291.299,238.707 272.132,241.541 250.5,228C 233.841,211.721 231.341,193.555 243,173.5C 249.418,165.886 257.251,160.553 266.5,157.5 Z"/></g>
<g><path style="opacity:1" fill="#fcfcfc" d="M 266.5,160.5 C 297.508,159.008 312.341,173.675 311,204.5C 304.494,225.855 289.994,235.355 267.5,233C 246.366,226.187 236.866,211.687 239,189.5C 243.283,175.054 252.449,165.387 266.5,160.5 Z"/></g>
<g><path style="opacity:1" fill="#fcfcfc" d="M 350.5,161.5 C 380.001,159.508 394.835,173.174 395,202.5C 388.871,224.649 374.371,234.483 351.5,232C 331.138,225.114 321.971,210.948 324,189.5C 327.948,175.389 336.781,166.056 350.5,161.5 Z"/></g>
<g><path style="opacity:1" fill="#0c0c0c" d="M 287.5,212.5 C 296.151,210.52 298.984,213.52 296,221.5C 291.33,226.834 285.497,229.001 278.5,228C 276.012,225.373 275.845,222.54 278,219.5C 281.068,216.917 284.235,214.584 287.5,212.5 Z"/></g>
<g><path style="opacity:1" fill="#0d0d0d" d="M 371.5,212.5 C 383.851,212.386 385.518,216.553 376.5,225C 372.278,228.111 367.611,229.111 362.5,228C 359.662,223.847 360.328,220.18 364.5,217C 366.898,215.476 369.231,213.976 371.5,212.5 Z"/></g>
<g><path style="opacity:1" fill="#e8e8e8" d="M 282.5,218.5 C 288.824,218.872 288.991,220.205 283,222.5C 282.167,222.167 281.333,221.833 280.5,221.5C 281.193,220.482 281.859,219.482 282.5,218.5 Z"/></g>
<g><path style="opacity:1" fill="#dfdfdf" d="M 366.5,218.5 C 372.758,219.127 372.758,220.794 366.5,223.5C 364.07,221.963 364.07,220.296 366.5,218.5 Z"/></g>
<g><path style="opacity:1" fill="#efcc9c" d="M 310.5,238.5 C 313.296,240.778 316.462,242.444 320,243.5C 323.184,243.158 325.684,241.658 327.5,239C 328.5,238.333 329.5,238.333 330.5,239C 335.954,245.443 336.954,252.609 333.5,260.5C 332.333,260.833 331.167,261.167 330,261.5C 325.667,260.5 321.333,259.5 317,258.5C 312.55,259.742 308.05,260.242 303.5,260C 300.755,251.07 303.088,243.903 310.5,238.5 Z"/></g>
<g><path style="opacity:1" fill="#f1f1f1" d="M 311.5,262.5 C 313.167,262.5 314.833,262.5 316.5,262.5C 316.5,268.5 316.5,274.5 316.5,280.5C 314.473,280.662 312.473,280.495 310.5,280C 309.978,279.439 309.645,278.772 309.5,278C 311.006,272.943 311.673,267.776 311.5,262.5 Z"/></g>
<g><path style="opacity:1" fill="#f3f3f3" d="M 321.5,262.5 C 323.117,263.038 324.784,263.371 326.5,263.5C 327.208,268.186 327.708,272.853 328,277.5C 325.619,278.435 323.119,278.768 320.5,278.5C 320.179,272.974 320.512,267.64 321.5,262.5 Z"/></g>
<g><path style="opacity:1" fill="#fbfbc8" d="M 351.5,267.5 C 368.165,266.342 384.498,268.009 400.5,272.5C 391.579,280.365 383.579,289.032 376.5,298.5C 366.581,298.869 359.081,303.203 354,311.5C 353.51,312.793 353.343,314.127 353.5,315.5C 341.042,315.073 328.708,316.073 316.5,318.5C 315.833,318.167 315.167,317.833 314.5,317.5C 323.399,300.114 334.066,283.947 346.5,269C 348.382,268.802 350.048,268.302 351.5,267.5 Z"/></g>
<g><path style="opacity:1" fill="#9b9b9b" d="M 321.5,262.5 C 320.512,267.64 320.179,272.974 320.5,278.5C 319.184,272.987 319.184,267.32 320.5,261.5C 321.107,261.624 321.44,261.957 321.5,262.5 Z"/></g>
<g><path style="opacity:1" fill="#91f1f1" d="M 325.5,287.5 C 326.675,287.281 327.675,287.614 328.5,288.5C 324.237,295.369 319.737,302.036 315,308.5C 307.992,306.498 306.658,302.498 311,296.5C 315.343,292.585 320.177,289.585 325.5,287.5 Z"/></g>
<g><path style="opacity:1" fill="#f2ce9e" d="M 226.5,287.5 C 232.779,290.976 239.112,294.476 245.5,298C 255.584,299.531 265.584,301.531 275.5,304C 281.253,308.268 282.753,313.768 280,320.5C 274.636,326.061 268.136,327.895 260.5,326C 244.605,317.277 230.272,306.443 217.5,293.5C 220.994,292.06 223.994,290.06 226.5,287.5 Z"/></g>
<g><path style="opacity:1" fill="#454545" d="M 321.5,284.5 C 322.873,284.343 324.207,284.51 325.5,285C 318.787,287.103 312.954,290.603 308,295.5C 305.588,298.797 305.088,302.297 306.5,306C 301.882,305.143 300.382,302.31 302,297.5C 307.825,292.015 314.325,287.681 321.5,284.5 Z"/></g>
<g><path style="opacity:1" fill="#f1ce9e" d="M 368.5,302.5 C 374.659,302.034 380.659,302.701 386.5,304.5C 387.641,306.421 387.808,308.421 387,310.5C 381.342,322.387 372.509,325.553 360.5,320C 356.99,318.093 355.824,315.26 357,311.5C 360.183,307.462 364.016,304.462 368.5,302.5 Z"/></g>
<g><path style="opacity:1" fill="#464646" d="M 297.5,302.5 C 298.692,303.566 298.359,304.399 296.5,305C 292.39,306.222 288.39,307.722 284.5,309.5C 284.167,309.167 283.833,308.833 283.5,308.5C 287.927,305.914 292.594,303.914 297.5,302.5 Z"/></g>
<g><path style="opacity:1" fill="#484848" d="M 240.5,320.5 C 243.157,320.162 245.49,320.829 247.5,322.5C 243.278,324.626 238.944,326.126 234.5,327C 233.483,325.951 233.316,324.784 234,323.5C 236.294,322.578 238.461,321.578 240.5,320.5 Z"/></g>
<g><path style="opacity:1" fill="#e9c799" d="M 81.5,341.5 C 85.954,341.422 90.2873,342.089 94.5,343.5C 95.2829,348.554 96.2829,353.554 97.5,358.5C 89.1439,358.587 81.6439,355.92 75,350.5C 74.9813,346.006 77.1479,343.006 81.5,341.5 Z"/></g>
<g><path style="opacity:1" fill="#f2cf9e" d="M 152.5,400.5 C 153.404,401.209 153.737,402.209 153.5,403.5C 155.5,403.5 157.5,403.5 159.5,403.5C 158.38,408.935 157.714,414.435 157.5,420C 158.465,431.323 159.965,442.489 162,453.5C 135.692,458.184 127.026,447.851 136,422.5C 138.451,415.596 141.451,408.93 145,402.5C 148.242,405.259 150.742,404.593 152.5,400.5 Z"/></g>
<g><path style="opacity:1" fill="#f1ce9e" d="M 316.5,427.5 C 328.376,430.07 339.876,433.737 351,438.5C 350.188,445.331 346.354,449.831 339.5,452C 325.093,453.797 313.426,448.963 304.5,437.5C 308.836,434.491 312.836,431.157 316.5,427.5 Z"/></g>
</svg>
