<svg version="1.1" viewBox="0 0 32 32" xmlns="http://www.w3.org/2000/svg"><title>default_folder_opened</title><path d="M27.4,5.5H18.2L16.1,9.7H4.3V26.5H29.5V5.5Zm0,18.7H6.6V11.8H27.4Zm0-14.5H19.2l1-2.1h7.1V9.7Z" fill="#d3dcf4"/><polygon points="25.7 13.7 0.5 13.7 4.3 26.5 29.5 26.5" fill="#d3dcf4"/><g transform="matrix(.054428 0 0 .047652 11.98 7.2259)" fill="none" fill-rule="evenodd"><path d="m11.679 189h19.786v26.789h23.904v-26.789h19.786v75.25h-19.786v-28.695h-23.904v28.695h-19.786zm86.174 75.25v-75.25h46.803v16.354h-27.017v12.241h23.904v16.655h-23.904v13.846h27.017v16.154zm68.497 0v-75.25h19.786v55.384h27.118v19.866zm77.536-75.25 30.733 27.893 30.633-27.893h8.9388v75.25h-19.886v-38.628l-19.685 17.96-19.786-17.859v38.528h-19.886v-75.25z" fill="#0f1689"/><g transform="matrix(1 0 0 -1 11.958 455)"><g fill="#0f1689" mask="url(#a)"><path transform="rotate(35 137.93 151.55)" d="m203.46 95.688c6.9363 0 12.559-14.809 12.559-33.077 0-18.268-5.623-33.077-12.559-33.077s-12.559 14.809-12.559 33.077c0 18.268 5.623 33.077 12.559 33.077z"/><path transform="matrix(-.81915 .57358 .57358 .81915 58.085 47.705)" d="m30.142 95.688c6.9363 0 12.559-14.809 12.559-33.077 0-18.268-5.623-33.077-12.559-33.077-6.9363 0-12.559 14.809-12.559 33.077 0 18.268 5.623 33.077 12.559 33.077z"/><path transform="matrix(-1 0 0 1 272.63 53.671)" d="m116.73 66.275c6.9363 0 12.559-14.809 12.559-33.077 0-18.268-5.623-33.077-12.559-33.077-6.9363 0-12.559 14.809-12.559 33.077 0 18.268 5.623 33.077 12.559 33.077z"/></g><path d="m251.47 173.1c-20.23-33.61-56.89-56.068-98.756-56.068-40.721 0-76.516 21.246-97.059 53.335m2.1981 129.17c20.84 30.233 55.556 50.027 94.861 50.027 39.376 0 74.146-19.866 94.974-50.191" mask="url(#a)" stroke="#0f1689" stroke-width="20"/></g><g transform="translate(11.958)"><g fill="#0f1689" mask="url(#b)"><path transform="rotate(35 141.83 150.32)" d="m203.46 95.688c6.9363 0 12.559-14.809 12.559-33.077 0-18.268-5.623-33.077-12.559-33.077s-12.559 14.809-12.559 33.077c0 18.268 5.623 33.077 12.559 33.077z"/><path transform="matrix(-.81915 .57358 .57358 .81915 58.085 45.245)" d="m30.142 95.688c6.9363 0 12.559-14.809 12.559-33.077 0-18.268-5.623-33.077-12.559-33.077-6.9363 0-12.559 14.809-12.559 33.077 0 18.268 5.623 33.077 12.559 33.077z"/><path transform="matrix(-1 0 0 1 272.63 51.211)" d="m116.73 66.275c6.9363 0 12.559-14.809 12.559-33.077 0-18.268-5.623-33.077-12.559-33.077-6.9363 0-12.559 14.809-12.559 33.077 0 18.268 5.623 33.077 12.559 33.077z"/></g><path d="m251.47 170.64c-20.23-33.61-56.89-56.068-98.756-56.068-40.721 0-76.516 21.246-97.059 53.335m2.1981 129.17c20.84 30.233 55.556 50.027 94.861 50.027 39.376 0 74.146-19.866 94.974-50.191" mask="url(#b)" stroke="#0f1689" stroke-width="20"/></g></g></svg>
