<svg version="1.1" viewBox="0 0 32 32" xmlns="http://www.w3.org/2000/svg"><title>default_folder_opened</title><g><path d="M27.4,5.5H18.2L16.1,9.7H4.3V26.5H29.5V5.5Zm0,18.7H6.6V11.8H27.4Zm0-14.5H19.2l1-2.1h7.1V9.7Z" fill="#e6522c"/><polygon points="25.7 13.7 0.5 13.7 4.3 26.5 29.5 26.5" fill="#e6522c"/><g transform="matrix(.16141 0 0 .16141 11.843 9.6435)" fill="#e6e2d8"><path d="m56.667 0.667c-31.295 0-56.667 25.369-56.667 56.665 0 31.295 25.372 56.666 56.667 56.666s56.666-25.371 56.666-56.666c0-31.296-25.372-56.665-56.666-56.665zm0 106.06c-8.904 0-16.123-5.948-16.123-13.283h32.246c0 7.334-7.219 13.283-16.123 13.283zm26.63-17.682h-53.263v-9.658h53.264v9.658zm-0.191-14.629h-52.92c-0.176-0.203-0.356-0.403-0.526-0.609-5.452-6.62-6.736-10.076-7.983-13.598-0.021-0.116 6.611 1.355 11.314 2.413 0 0 2.42 0.56 5.958 1.205-3.397-3.982-5.414-9.044-5.414-14.218 0-11.359 8.712-21.285 5.569-29.308 3.059 0.249 6.331 6.456 6.552 16.161 3.252-4.494 4.613-12.701 4.613-17.733 0-5.21 3.433-11.262 6.867-11.469-3.061 5.045 0.793 9.37 4.219 20.099 1.285 4.03 1.121 10.812 2.113 15.113 0.329-8.933 1.865-21.967 7.532-26.467-2.5 5.667 0.37 12.758 2.333 16.167 3.167 5.5 5.087 9.667 5.087 17.548 0 5.284-1.951 10.259-5.242 14.148 3.742-0.702 6.326-1.335 6.326-1.335l12.152-2.371c1e-3 -1e-3 -1.765 7.261-8.55 14.254z" fill="#e6e2d8"/></g></g></svg>
