<svg version="1.1" viewBox="0 0 32 32" xmlns="http://www.w3.org/2000/svg"><title>default_folder_opened</title><g><path d="M27.4,5.5H18.2L16.1,9.7H4.3V26.5H29.5V5.5Zm0,18.7H6.6V11.8H27.4Zm0-14.5H19.2l1-2.1h7.1V9.7Z" fill="#e6522c"/><polygon points="25.7 13.7 0.5 13.7 4.3 26.5 29.5 26.5" fill="#e6522c"/><g transform="matrix(.083134 0 0 .083339 11.772 9.4894)" clip-rule="evenodd" fill="#e6e2d8" fill-rule="evenodd" image-rendering="optimizeQuality" shape-rendering="geometricPrecision"><g fill="#e6e2d8"><path d="m197.5 2.5c1.333 0.66667 1.333 0.66667 0 0z" opacity=".004"/><path d="m218.5 91.5v41c-10.317 44.154-37.317 72.654-81 85.5-57.052 9.231-98.886-11.603-125.5-62.5-1.7897-3.827-2.9564-7.827-3.5-12-1.1912-7.068-2.3579-14.068-3.5-21-0.49966-7.326-0.66632-14.659-0.5-22 5.7184-43.233 28.718-73.399 69-90.5 47.306-15.216 87.806-4.7162 121.5 31.5 11.958 14.698 19.792 31.365 23.5 50zm-67 51c-27.002 0.167-54.002 0-81-0.5 3.1445-5.748 4.4779-11.915 4-18.5v-3c0.4821-12.92 1.4821-25.92 3-39 5.2607-12.415 14.594-19.915 28-22.5-0.31-3.8474 0.19-7.6807 1.5-11.5 5.104-4.5768 8.77-3.5768 11 3v8c15.389 3.0285 25.222 12.362 29.5 28-0.108 0.9419-0.441 1.7753-1 2.5 2.312 5.1592 2.645 10.492 1 16 0.71 7.483 1.21 14.983 1.5 22.5 0.244 4.9 1.411 9.566 3.5 14-0.124 0.607-0.457 0.94-1 1zm13 7c3.565 2.133 4.565 5.133 3 9-1.382 1.301-3.048 2.134-5 2.5-34.375 0.82-68.708 0.653-103-0.5-4.4626-2.523-5.1293-5.856-2-10 35.594-0.993 71.26-1.326 107-1zm-65 18c8.028-0.331 16.028 2e-3 24 1 0.209 0.586 0.543 1.086 1 1.5-4.364 9.191-11.031 11.524-20 7-2.527-2.775-4.194-5.941-5-9.5z"/><path d="m170.5 5.5c1.333 0.66667 1.333 0.66667 0 0z" opacity=".004"/><path d="m173.5 9.5c1.333 0.6667 1.333 0.6667 0 0z" opacity=".004"/><path d="m188.5 14.5c1.333 0.6667 1.333 0.6667 0 0z" opacity=".004"/><path d="m56.5 15.5c1.3333 0.6667 1.3333 0.6667 0 0z" opacity=".004"/><path d="m53.5 16.5c1.3333 0.6667 1.3333 0.6667 0 0z" opacity=".004"/><path d="m94.5 15.5c33.894-3.8963 63.061 5.7703 87.5 29 29.136 34.06 34.469 71.727 16 113-29.511 46.137-70.678 60.97-123.5 44.5-37.083-17.912-56.75-47.412-59-88.5 0.8679-44.268 21.534-75.101 62-92.5 5.9504-1.3276 11.617-3.1609 17-5.5zm57 127c-27.002 0.167-54.002 0-81-0.5 3.1445-5.748 4.4779-11.915 4-18.5v-3c0.4821-12.92 1.4821-25.92 3-39 5.2607-12.415 14.594-19.915 28-22.5-0.31-3.8474 0.19-7.6807 1.5-11.5 5.104-4.5768 8.77-3.5768 11 3v8c15.389 3.0285 25.222 12.362 29.5 28-0.108 0.9419-0.441 1.7753-1 2.5 2.312 5.1592 2.645 10.492 1 16 0.71 7.483 1.21 14.983 1.5 22.5 0.244 4.9 1.411 9.566 3.5 14-0.124 0.607-0.457 0.94-1 1zm13 7c3.565 2.133 4.565 5.133 3 9-1.382 1.301-3.048 2.134-5 2.5-34.375 0.82-68.708 0.653-103-0.5-4.4626-2.523-5.1293-5.856-2-10 35.594-0.993 71.26-1.326 107-1zm-65 18c0.806 3.559 2.473 6.725 5 9.5 8.969 4.524 15.636 2.191 20-7-0.457-0.414-0.791-0.914-1-1.5-7.972-0.998-15.972-1.331-24-1z"/><path d="m5.5 35.5c1.3333 0.6667 1.3333 0.6667 0 0z" opacity=".004"/><path d="m221.5 44.5c1.333 0.6667 1.333 0.6667 0 0z" opacity=".004"/><path d="m8.5 59.5c1.025 0.3966 1.1917 1.0632 0.5 2-0.46434-0.5944-0.63101-1.2611-0.5-2z" opacity=".004"/><path d="m77.5 81.5c-1.5179 13.08-2.5179 26.08-3 39-0.1665-11.338 1e-4 -22.672 0.5-34 0.0995-2.1526 0.9328-3.8192 2.5-5z" opacity=".439"/><path d="m218.5 91.5c2.667 13.667 2.667 27.333 0 41v-41z"/><path d="m4.5 100.5c-0.16632 7.341 3.4e-4 14.674 0.5 22 1.1421 6.932 2.3088 13.932 3.5 21-2.8184-6.243-4.3184-12.91-4.5-20-0.82233-7.845-0.65566-15.511 0.5-23z" opacity=".471"/><path d="m74.5 123.5c0.4779 6.585-0.8555 12.752-4 18.5 26.998 0.5 53.998 0.667 81 0.5-13.15 1.333-26.65 1.999-40.5 2-13.5-0.167-27-0.333-40.5-0.5-1.8467-2.579-2.3467-5.412-1.5-8.5 0.3333 0.667 0.6667 1.333 1 2 0.2896-1.544 0.9563-2.877 2-4 0.1489-3.633 0.9823-6.966 2.5-10z" opacity=".933"/><path d="m164.5 149.5c-35.74-0.326-71.406 7e-3 -107 1 17.487-1.333 35.321-2 53.5-2 18.003 0 35.836 0.333 53.5 1z" opacity=".055"/><path d="m2.5 150.5c1.025 0.397 1.1917 1.063 0.5 2-0.46434-0.594-0.63101-1.261-0.5-2z" opacity=".004"/><path d="m218.5 154.5c1.333 0.667 1.333 0.667 0 0z" opacity=".004"/><path d="m2.5 159.5c1.3333 0.667 1.3333 0.667 0 0z" opacity=".004"/><path d="m167.5 158.5c-0.074 1.911-1.074 3.078-3 3.5-17.5 0.167-35 0.333-52.5 0.5-17.846 0-35.346-0.667-52.5-2 34.292 1.153 68.625 1.32 103 0.5 1.952-0.366 3.618-1.199 5-2.5z" opacity=".407"/><path d="m209.5 171.5c1.333 0.667 1.333 0.667 0 0z" opacity=".004"/><path d="m212.5 173.5c1.333 0.667 1.333 0.667 0 0z" opacity=".004"/><path d="m14.5 182.5c1.3333 0.667 1.3333 0.667 0 0z" opacity=".004"/><path d="m11.5 192.5c1.3333 0.667 1.3333 0.667 0 0z" opacity=".004"/><path d="m5.5 198.5c1.3333 0.667 1.3333 0.667 0 0z" opacity=".004"/><path d="m14.5 205.5c1.3333 0.667 1.3333 0.667 0 0z" opacity=".004"/><path d="m5.5 208.5c1.3333 0.667 1.3333 0.667 0 0z" opacity=".004"/><path d="m161.5 216.5c1.333 0.667 1.333 0.667 0 0z" opacity=".004"/><path d="m38.5 221.5c1.3333 0.667 1.3333 0.667 0 0z" opacity=".004"/></g></g></g></svg>
