<?xml version="1.0" encoding="UTF-8" standalone="no"?>
<svg
   version="1.1"
   viewBox="0 0 32 32"
   id="svg3"
   sodipodi:docname="folder_type_grafana_opened.svg"
   inkscape:version="1.4 (e7c3feb100, 2024-10-09)"
   xmlns:inkscape="http://www.inkscape.org/namespaces/inkscape"
   xmlns:sodipodi="http://sodipodi.sourceforge.net/DTD/sodipodi-0.dtd"
   xmlns="http://www.w3.org/2000/svg"
   xmlns:svg="http://www.w3.org/2000/svg">
  <sodipodi:namedview
     id="namedview3"
     pagecolor="#505050"
     bordercolor="#eeeeee"
     borderopacity="1"
     inkscape:showpageshadow="0"
     inkscape:pageopacity="0"
     inkscape:pagecheckerboard="0"
     inkscape:deskcolor="#505050"
     inkscape:zoom="25.40625"
     inkscape:cx="16"
     inkscape:cy="16"
     inkscape:window-width="1920"
     inkscape:window-height="1020"
     inkscape:window-x="0"
     inkscape:window-y="28"
     inkscape:window-maximized="1"
     inkscape:current-layer="svg3" />
  <defs
     id="defs2">
    <linearGradient
       id="a"
       x1="416.94"
       x2="416.94"
       y1="937.01"
       y2="238.28"
       gradientTransform="matrix(.071134 0 0 .071393 11.804 9.4723)"
       gradientUnits="userSpaceOnUse">
      <stop
         stop-color="#FFF100"
         offset="0"
         id="stop1" />
      <stop
         stop-color="#F05A28"
         offset="1"
         id="stop2" />
    </linearGradient>
  </defs>
  <title
     id="title2">default_folder_opened</title>
  <path
     d="M27.4,5.5H18.2L16.1,9.7H4.3V26.5H29.5V5.5Zm0,18.7H6.6V11.8H27.4Zm0-14.5H19.2l1-2.1h7.1V9.7Z"
     fill="#2f70ad"
     id="path2"
     style="fill:#ae6956;fill-opacity:0.8509804" />
  <polygon
     points="25.7 13.7 0.5 13.7 4.3 26.5 29.5 26.5"
     fill="#2f70ad"
     id="polygon2"
     style="fill:#ae6956;fill-opacity:0.8509804" />
  <path
     d="m30.757 17.881c-0.0341-0.32017-0.09092-0.68757-0.20459-1.097-0.11366-0.40414-0.28415-0.85028-0.53421-1.3122-0.25006-0.46188-0.57399-0.9395-0.99454-1.4066-0.16481-0.1837-0.34666-0.36216-0.53989-0.53536 0.28984-1.0655-0.35235-1.9892-0.35235-1.9892-1.1082-0.06298-1.8129 0.32016-2.0743 0.49337-0.04546-0.01575-0.08525-0.03673-0.13071-0.05248-0.18754-0.06824-0.38077-0.13646-0.58536-0.1942-0.19891-0.05774-0.4035-0.11022-0.61377-0.15746-0.21027-0.04724-0.42055-0.08398-0.6365-0.11547-0.03979-0.0052-0.07388-0.0105-0.11366-0.01574-0.48306-1.4276-1.8697-2.026-1.8697-2.026-1.5515 0.90801-1.8413 2.1782-1.8413 2.1782s-0.0057 0.02625-0.01705 0.07348c-0.08525 0.021-0.17049 0.04724-0.25574 0.06824-0.11934 0.0315-0.23869 0.07348-0.35235 0.11547-0.11934 0.042-0.23301 0.08398-0.35235 0.13122-0.23301 0.09447-0.46601 0.19945-0.69334 0.31492-0.22164 0.11547-0.4376 0.24144-0.64787 0.37265-0.02841-0.0105-0.05683-0.021-0.05683-0.021-2.1482-0.7558-4.052 0.15221-4.052 0.15221-0.17618 2.1099 0.85814 3.4378 1.0627 3.6793-0.05115 0.13122-0.09661 0.26243-0.14208 0.39365-0.15912 0.47762-0.27847 0.96574-0.35235 1.4749-0.01138 0.07348-0.02273 0.14696-0.02841 0.22044-1.9891 0.90801-2.5744 2.7608-2.5744 2.7608 1.6538 1.7583 3.586 1.8685 3.586 1.8685l0.0057-0.0052c0.24437 0.40414 0.52853 0.78729 0.84678 1.1494 0.13639 0.15221 0.27279 0.29392 0.42055 0.43564-0.6024 1.5956 0.08525 2.9182 0.08525 2.9182 1.8413 0.06298 3.0518-0.7453 3.3075-0.929 0.18186 0.05774 0.3694 0.11022 0.55694 0.15221 0.56831 0.13647 1.148 0.21519 1.7277 0.23619 0.14208 0.0052 0.28984 0.0105 0.43191 0.0052h0.20459l0.09093-0.0052v0.0052c0.86951 1.1442 2.3926 1.3069 2.3926 1.3069 1.0855-1.055 1.148-2.1047 1.148-2.3304v-0.01575-0.0315-0.04723c0.22732-0.14696 0.44328-0.30442 0.64787-0.47762 0.43191-0.36215 0.81268-0.77679 1.1309-1.2229 0.02841-0.042 0.05683-0.08398 0.08525-0.12597 1.2275 0.06298 2.097-0.70331 2.097-0.70331-0.20459-1.1809-0.93202-1.7583-1.0855-1.8685 0 0-0.0057-0.0052-0.01705-0.0105-0.01138-0.0052-0.01138-0.0105-0.01138-0.0105-0.0057-0.0052-0.01705-0.0105-0.02841-0.01574 0.0057-0.07348 0.01138-0.14171 0.01705-0.21519 0.01137-0.12597 0.01137-0.25718 0.01137-0.38315v-0.16795-0.0315l-0.0057-0.07873-0.0057-0.10497c0-0.03675-0.0057-0.06824-0.01137-0.09972-0.0057-0.0315-0.0057-0.06824-0.01138-0.09973l-0.01138-0.09972-0.01705-0.09973c-0.02269-0.13121-0.04541-0.25717-0.07952-0.38839-0.13071-0.50912-0.34667-0.99199-0.62514-1.4276-0.28415-0.43564-0.6365-0.81878-1.04-1.1442-0.39781-0.32541-0.84678-0.58784-1.3128-0.78204-0.4717-0.1942-0.96044-0.32016-1.4492-0.3779-0.24437-0.03149-0.48874-0.04199-0.73311-0.03674h-0.11366-0.02841-0.03979l-0.09093 0.0052c-0.03411 0-0.0682 0.0052-0.09661 0.0052-0.12502 0.0105-0.25005 0.02625-0.3694 0.04724-0.48874 0.08398-0.94907 0.24668-1.3526 0.47238-0.4035 0.22569-0.75585 0.50387-1.04 0.81878-0.28415 0.31492-0.50579 0.66657-0.65924 1.0287-0.15344 0.36216-0.23869 0.74006-0.26142 1.1022-0.0057 0.08924-0.0057 0.1837-0.0057 0.27293v0.06824l0.0057 0.07348c0.0057 0.04199 0.0057 0.08923 0.01137 0.13122 0.01705 0.1837 0.05683 0.36216 0.10798 0.53011 0.10798 0.34116 0.27847 0.65083 0.48875 0.91326 0.21027 0.26243 0.46601 0.47762 0.73312 0.65083 0.2671 0.16796 0.55694 0.28867 0.84109 0.3674 0.28415 0.07874 0.5683 0.11022 0.83541 0.11022h0.09661 0.05115c0.01705 0 0.0341 0 0.05114-0.0052 0.02841 0 0.05683-0.0052 0.08525-0.0052 0.0057 0 0.01705 0 0.02273-0.0052l0.02841-0.0052c0.01705 0 0.0341-0.0052 0.05114-0.0052 0.03411-0.0052 0.06252-0.0105 0.09661-0.01575 0.03411-0.0052 0.06251-0.0105 0.09093-0.02099 0.06251-0.0105 0.11934-0.0315 0.17618-0.04725 0.11366-0.03674 0.22732-0.07874 0.32393-0.12597 0.1023-0.04725 0.19322-0.10497 0.28415-0.15746 0.02273-0.01575 0.05114-0.03149 0.07387-0.05248 0.09093-0.06824 0.10798-0.1942 0.0341-0.27818-0.06251-0.07348-0.17618-0.09447-0.2671-0.04724-0.02273 0.0105-0.04546 0.02099-0.06819 0.0315-0.07957 0.03674-0.15912 0.06824-0.24437 0.09448-0.08525 0.02625-0.17618 0.04725-0.2671 0.06298-0.04546 0.0052-0.09093 0.0105-0.14208 0.01574-0.02274 0-0.04546 0.0052-0.07387 0.0052h-0.0682-0.0682c-0.02841 0-0.05683 0-0.08525-0.0052h-0.0057-0.02842c-0.01137 0-0.02841 0-0.03978-0.0052-0.02841-0.0052-0.05115-0.0052-0.07957-0.0105-0.21027-0.02625-0.42055-0.08398-0.61945-0.16796-0.20459-0.08398-0.39781-0.19945-0.57399-0.34641-0.17618-0.14696-0.32962-0.32017-0.44896-0.51961-0.11934-0.19945-0.20459-0.41989-0.24437-0.65083-0.01705-0.11547-0.02841-0.23619-0.02273-0.35166 0-0.0315 0.0057-0.06298 0.0057-0.09448v-0.0052-0.03675c0-0.01575 0.0057-0.0315 0.0057-0.04723 0.0057-0.06298 0.01705-0.12597 0.02841-0.18895 0.09661-0.50387 0.3694-0.99724 0.78994-1.3699 0.10798-0.09448 0.22164-0.17845 0.34099-0.25718 0.11934-0.07874 0.25006-0.14696 0.38645-0.2047 0.1364-0.05774 0.27279-0.10497 0.42055-0.14171 0.14208-0.03674 0.28984-0.05774 0.44328-0.07348 0.07387-0.0052 0.14776-0.0105 0.22732-0.0105h0.05114 0.1023 0.0057 0.01705l0.06251 0.0052c0.16481 0.0105 0.32394 0.0315 0.48306 0.06824 0.31825 0.06298 0.63082 0.1732 0.92066 0.32016 0.57967 0.29917 1.0741 0.76105 1.3753 1.3174 0.15344 0.27818 0.26142 0.57735 0.31257 0.88702 0.01138 0.07874 0.02274 0.15746 0.02841 0.23618l0.0114 0.11548v0.05774 0.05774 0.11022c0 0.03674-0.0057 0.09973-0.0057 0.13646-0.0057 0.08398-0.01705 0.17321-0.02841 0.25718-0.01137 0.08398-0.02841 0.16796-0.04546 0.25193-0.01705 0.08398-0.03978 0.16796-0.06251 0.24668-0.04546 0.16271-0.1023 0.32542-0.17049 0.48812-0.13639 0.31492-0.31825 0.61934-0.53421 0.89751-0.4376 0.55635-1.0343 1.0077-1.7163 1.2964-0.34098 0.14171-0.69902 0.24668-1.0684 0.29917-0.18186 0.0315-0.3694 0.04725-0.55694 0.05248h-0.26141-0.0057-0.01705c-0.10229 0-0.19891-0.0052-0.3012-0.01575-0.39782-0.02625-0.78995-0.09448-1.1764-0.1942-0.38074-0.09973-0.75014-0.24144-1.1025-0.40939-0.699-0.34654-1.3298-0.81892-1.8186-1.391-0.24437-0.28342-0.46033-0.59309-0.6365-0.91326-0.17618-0.32017-0.31826-0.66133-0.42055-1.0025-0.1023-0.34641-0.16481-0.69806-0.19322-1.055l-0.0057-0.06824v-0.29918-0.0052-0.0315-0.13121c0.0057-0.1732 0.02273-0.3569 0.04546-0.53536s0.05683-0.36216 0.09661-0.54061c0.03979-0.17845 0.08525-0.3569 0.14208-0.53536 0.10798-0.35166 0.24437-0.69282 0.4035-1.013 0.32393-0.64033 0.74448-1.2124 1.2503-1.6691 0.12503-0.11547 0.25574-0.22044 0.39213-0.32542 0.13639-0.09972 0.27847-0.1942 0.42623-0.28342 0.14208-0.08923 0.29552-0.16796 0.44896-0.24144 0.07387-0.03674 0.15344-0.07348 0.23301-0.10497 0.03979-0.01575 0.07957-0.0315 0.11934-0.04725 0.03979-0.01575 0.07957-0.0315 0.11934-0.04723 0.15913-0.06298 0.32394-0.11547 0.49443-0.16271 0.03978-0.0105 0.08524-0.02099 0.12503-0.03673 0.03978-0.0105 0.08525-0.021 0.12503-0.0315 0.08525-0.02099 0.17049-0.04199 0.25574-0.05774 0.03979-0.0105 0.08525-0.01575 0.13071-0.02625s0.08525-0.01575 0.13071-0.02625c0.04546-0.0052 0.08525-0.01574 0.13071-0.02099l0.06251-0.0105 0.0682-0.0105c0.04546-0.0052 0.08525-0.0105 0.13071-0.01575 0.05115-0.0052 0.09661-0.0105 0.14776-0.01575 0.03978-0.0052 0.10798-0.0105 0.14776-0.01574 0.02841-0.0052 0.06252-0.0052 0.09093-0.0105l0.06252-0.0052 0.02841-0.0052h0.0341c0.05115-0.0052 0.09661-0.0052 0.14776-0.0105l0.07387-0.0052h0.0057 0.05115c0.03978 0 0.08525-0.0052 0.12503-0.0052 0.16481-0.0052 0.3353-0.0052 0.50011 0 0.32962 0.0105 0.65355 0.04725 0.96612 0.09972 0.63082 0.11022 1.2219 0.29392 1.7618 0.54061 0.53989 0.24144 1.0173 0.54061 1.4378 0.86602 0.02841 0.021 0.05115 0.04199 0.07957 0.06298 0.02274 0.02099 0.05115 0.04199 0.07387 0.06298 0.05115 0.042 0.09661 0.08398 0.14776 0.12597 0.05115 0.04199 0.09661 0.08398 0.14208 0.12597 0.04546 0.042 0.09093 0.08398 0.13639 0.13122 0.17618 0.1732 0.34098 0.34641 0.48874 0.52486 0.29552 0.35166 0.53421 0.70856 0.72175 1.0445 0.01138 0.021 0.02273 0.04199 0.03411 0.06298 0.01138 0.021 0.02273 0.042 0.0341 0.06298 0.02273 0.042 0.04546 0.08398 0.06251 0.12597 0.02274 0.042 0.03978 0.07874 0.06252 0.12072 0.01705 0.04199 0.03979 0.07874 0.05683 0.12072 0.0682 0.15746 0.13639 0.30967 0.18754 0.45138 0.08525 0.23094 0.14776 0.43564 0.19891 0.61409 0.01705 0.07348 0.09093 0.12072 0.17049 0.11022 0.08525-0.0052 0.14776-0.06824 0.14776-0.14696 0.0057-0.18895 0-0.41464-0.02841-0.67182z"
     fill="url(#a)"
     stroke-width=".071263"
     id="path3" />
</svg>
